SplineFontDB: 3.2
FontName: SovngardeConsole
FullName: SonvgardeConsole
FamilyName: SovngardeConsole
Weight: Console
Copyright: (c) All Rights Reserved. Designed and developed by K.
Version: 8.9
ItalicAngle: 0
UnderlinePosition: -100
UnderlineWidth: 50
Ascent: 800
Descent: 200
InvalidEm: 0
LayerCount: 2
Layer: 0 0 "Back" 1
Layer: 1 0 "Fore" 0
XUID: [1021 726 -1732314294 23016]
FSType: 0
OS2Version: 0
OS2_WeightWidthSlopeOnly: 0
OS2_UseTypoMetrics: 1
CreationTime: 1464055314
ModificationTime: 1599533207
PfmFamily: 17
TTFWeight: 700
TTFWidth: 5
LineGap: 90
VLineGap: 0
OS2TypoAscent: 0
OS2TypoAOffset: 1
OS2TypoDescent: 0
OS2TypoDOffset: 1
OS2TypoLinegap: 90
OS2WinAscent: 0
OS2WinAOffset: 1
OS2WinDescent: 0
OS2WinDOffset: 1
HheadAscent: 0
HheadAOffset: 1
HheadDescent: 0
HheadDOffset: 1
OS2Vendor: 'PfEd'
Lookup: 258 0 0 "Default" { "Default-1" [150,0,2] } ['kern' ('DFLT' <'dflt' > 'latn' <'dflt' > ) ]
MarkAttachClasses: 1
DEI: 91125
KernClass2: 11 25 "Default-1"
 1 T
 1 Y
 1 f
 1 A
 9 parenleft
 11 bracketleft
 1 V
 1 L
 1 O
 7 uni1E6A
 1 A
 1 G
 1 J
 1 o
 1 a
 1 b
 1 c
 1 d
 1 e
 1 f
 1 g
 1 h
 1 i
 1 j
 1 k
 1 l
 1 V
 1 T
 1 Y
 10 parenright
 12 bracketright
 1 O
 6 Yacute
 0 

StartChar: A
Encoding: 65 65 0
Width: 807
VWidth: 0
Flags: W
HStem: 0.901367 21G<44.0537 233.508 575.694 763.746> 755.673 20G<387.729 407.048>
LayerCount: 2
Fore
SplineSet
726.096679688 111.603515625 m 2
 738.247070312 86.8583984375 754.4609375 54.90625 763.74609375 47.0478515625 c 1
 763.74609375 0.9013671875 l 1
 607.103515625 0.9013671875 l 1
 575.694335938 0.9013671875 l 1
 575.694335938 45.9794921875 l 1
 575.694335938 45.9794921875 594.634765625 70.6220703125 551.76953125 122.250976562 c 2
 509.319335938 173.379882812 l 1
 467.540039062 161.638671875 422.870117188 163.966796875 422.870117188 163.966796875 c 1
 277.78125 158.727539062 l 1
 230.247070312 78.6806640625 l 1
 222.24609375 48.6962890625 233.5078125 45.9794921875 233.5078125 45.9794921875 c 1
 233.5078125 0.9013671875 l 1
 207.826171875 0.9013671875 l 1
 44.0537109375 0.9013671875 l 1
 44.0537109375 47.0478515625 l 1
 50.5732421875 52.578125 59.95703125 68.0078125 69.142578125 85.2783203125 c 2
 397.233398438 775.672851562 l 1
 703.346679688 151.887695312 l 1
 726.096679688 111.603515625 l 2
525.303710938 295.974609375 m 1
 533.995117188 301.6015625 l 1
 520.760742188 307.618164062 530.513671875 312.857421875 530.513671875 312.857421875 c 1
 508.116210938 277.87109375 l 1
 487.276367188 309.364257812 l 1
 487.276367188 317.126953125 l 1
 471.276367188 318.875 l 1
 400.921875 496.096679688 l 1
 378.896484375 447.381835938 l 2
 377.514648438 449.130859375 375.2421875 451.84765625 372.673828125 453.787109375 c 0
 368.625 456.892578125 364.08203125 474.940429688 359.043945312 455.245117188 c 1
 362.5 451.458984375 l 1
 361.413085938 447.381835938 l 1
 367.04296875 443.403320312 l 1
 370.994140625 430.111328125 l 1
 306.315429688 257.643554688 l 1
 376.1484375 267.250976562 390.693359375 304.998046875 390.693359375 304.998046875 c 1
 450.943359375 301.892578125 424.090820312 300.825195312 457.176757812 301.01953125 c 1
 480.067382812 282.583007812 l 1
 480.067382812 295.974609375 l 1
 525.303710938 295.974609375 l 1
EndSplineSet
Validated: 37
EndChar

StartChar: B
Encoding: 66 66 1
Width: 604
VWidth: 0
Flags: W
HStem: 2.1748 52.3086<24.6426 45.0021> 321.521 143.421<203.024 328.172> 662.723 112.667<202.341 305.003>
VStem: 59.9502 143.074<154.263 321.327 464.942 466.112 480.646 543.563>
LayerCount: 2
Fore
SplineSet
282.861328125 464.942382812 m 2
 428.400390625 464.942382812 421.251953125 563.181640625 421.251953125 563.181640625 c 1
 421.251953125 673.400390625 305.002929688 662.72265625 305.002929688 662.72265625 c 1
 202.340820312 662.72265625 l 1
 202.340820312 609.467773438 l 1
 201.659179688 602.54296875 l 1
 198.147460938 608.78515625 l 1
 194.63671875 599.8125 l 1
 193.271484375 586.112304688 l 1
 198.830078125 574.310546875 l 1
 202.340820312 566.703125 l 1
 202.340820312 480.645507812 l 1
 196.782226562 479.961914062 l 1
 194.05078125 474.403320312 l 1
 203.024414062 466.112304688 l 1
 203.024414062 464.942382812 l 1
 282.861328125 464.942382812 l 2
453.751953125 402.958984375 m 1
 538.8984375 375.747070312 592.3671875 283.8046875 574.711914062 159.250976562 c 0
 549.256835938 -20.115234375 375.430664062 1.8828125 375.430664062 1.8828125 c 1
 199.610351562 2.1748046875 l 1
 24.642578125 2.1748046875 l 1
 24.642578125 54.4833984375 l 1
 57.7060546875 63.359375 59.9501953125 154.262695312 59.9501953125 154.262695312 c 1
 59.9501953125 530.396484375 l 1
 62.6796875 543.563476562 l 1
 67.1669921875 554.681640625 l 1
 104.23046875 554.681640625 l 1
 109.7890625 562.290039062 l 1
 86.283203125 565.80078125 l 1
 64.142578125 571.360351562 l 1
 64.142578125 586.575195312 l 1
 56.5361328125 586.575195312 l 1
 56.5361328125 657.874023438 l 1
 50.9755859375 662.068359375 l 1
 50.9755859375 682.842773438 l 1
 24.642578125 709.860351562 l 1
 24.642578125 769.146484375 l 1
 24.642578125 775.389648438 l 1
 332.02734375 775.389648438 l 1
 332.02734375 775.389648438 577.625976562 773.989257812 541.440429688 545.463867188 c 0
 529.736328125 471.532226562 499.788085938 427.05078125 453.751953125 402.958984375 c 1
204.450195312 130.122070312 m 5
 457.799804688 89.599609375 439.87109375 225.245117188 439.87109375 225.245117188 c 1
 439.87109375 324.799804688 328.171875 321.521484375 328.171875 321.521484375 c 1
 211.509765625 321.521484375 l 1
 203.024414062 321.327148438 l 1
 203.024414062 151.641601562 l 2
 203.024414062 142.020507812 203.543945312 138.578125 204.450195312 130.122070312 c 5
EndSplineSet
Validated: 33
EndChar

StartChar: C
Encoding: 67 67 2
Width: 756
VWidth: 0
Flags: W
HStem: 0.542969 21G<393.407 502.377>
VStem: 43.6582 176.094<254.052 398.329>
LayerCount: 2
Fore
SplineSet
427 145.599609375 m 1
 427 145.599609375 596.400390625 162.400390625 673.69140625 294.061523438 c 1
 713.744140625 302.504882812 l 1
 712.344726562 191.413085938 l 1
 712.344726562 191.413085938 611.34765625 6.744140625 393.407226562 0.54296875 c 1
 393.407226562 0.54296875 49.8603515625 -15.404296875 43.658203125 398.329101562 c 1
 43.658203125 398.329101562 38.736328125 787.452148438 404.333007812 773.965820312 c 1
 544.705078125 773.965820312 638.319335938 704.961914062 638.319335938 704.961914062 c 1
 688.817382812 635.95703125 712.24609375 661.845703125 712.24609375 661.845703125 c 1
 683.994140625 589.100585938 618.379882812 466.360351562 618.379882812 466.360351562 c 1
 584.134765625 476.083007812 l 1
 579.599609375 627.200195312 441 638.400390625 441 638.400390625 c 1
 441 638.400390625 219.751953125 684.599609375 219.751953125 372.024414062 c 0
 219.751953125 110.599609375 427 145.599609375 427 145.599609375 c 1
EndSplineSet
Validated: 33
EndChar

StartChar: D
Encoding: 68 68 3
Width: 691
VWidth: 0
Flags: W
HStem: 0.0273438 138.294<233.526 324.811> 634.665 138.589<233.526 324.811>
VStem: 75.9609 157.565<157.396 521.834 550.381 566.131> 509.206 158.726<259.124 513.174>
LayerCount: 2
Fore
SplineSet
330.224609375 773.25390625 m 1
 330.224609375 773.25390625 667.833007812 768.33203125 667.931640625 386.689453125 c 4
 667.931640625 5.0478515625 336.8203125 0.02734375 336.8203125 0.02734375 c 1
 212.198242188 0.02734375 l 1
 155.203125 0.02734375 l 1
 37.865234375 0.02734375 l 1
 37.865234375 54.2333984375 l 1
 79.072265625 75.599609375 75.9609375 157.396484375 75.9609375 157.396484375 c 1
 75.9609375 508.249023438 l 1
 78.9140625 521.833984375 l 1
 83.7373046875 533.251953125 l 1
 123.703125 533.251953125 l 1
 129.708007812 541.126953125 l 1
 104.310546875 544.670898438 l 1
 80.390625 550.380859375 l 1
 80.390625 566.130859375 l 1
 72.1220703125 566.130859375 l 1
 72.1220703125 639.958984375 l 1
 66.1171875 644.290039062 l 1
 66.1171875 665.749023438 l 1
 37.6689453125 707.705078125 l 1
 37.6689453125 766.756835938 l 1
 37.6689453125 773.25390625 l 1
 330.224609375 773.25390625 l 1
324.810546875 138.321289062 m 1
 324.810546875 138.321289062 509.206054688 124.599609375 509.206054688 384.819335938 c 0
 509.206054688 648.200195312 324.810546875 634.665039062 324.810546875 634.665039062 c 1
 277.626953125 634.665039062 l 1
 233.526367188 634.665039062 l 1
 233.526367188 138.321289062 l 1
 277.626953125 138.321289062 l 1
 324.810546875 138.321289062 l 1
EndSplineSet
Validated: 33
EndChar

StartChar: E
Encoding: 69 69 4
Width: 558
VWidth: 0
Flags: W
HStem: 0.420898 120.323<257.836 394.423 394.485 452.807> 344.799 83.0596<217.399 285.973> 661.713 111.541<302.744 355.868>
VStem: 71.5479 146.146<164.638 344.799 427.858 525.979 555.51 648.806> 487.993 35.0869<591.822 621.686>
LayerCount: 2
Fore
SplineSet
523.080078125 591.822265625 m 5
 487.993164062 591.232421875 l 5
 467.71484375 661.712890625 355.868164062 661.712890625 355.868164062 661.712890625 c 5
 302.744140625 661.712890625 l 5
 302.744140625 661.712890625 228.030273438 666.733398438 218.580078125 621.05859375 c 5
 218.580078125 555.509765625 l 5
 208.93359375 549.209960938 l 5
 207.94921875 543.40234375 l 5
 197.219726562 543.40234375 l 5
 194.66015625 539.169921875 l 5
 194.16796875 534.444335938 l 5
 190.131835938 537.102539062 l 5
 190.624023438 529.227539062 l 5
 197.711914062 529.227539062 l 5
 202.732421875 525.978515625 l 5
 205.193359375 527.750976562 l 5
 209.524414062 532.869140625 l 5
 217.202148438 536.51171875 l 5
 217.30078125 427.858398438 l 5
 273.700195312 427.858398438 286.009765625 449.897460938 286.009765625 449.897460938 c 5
 443.099609375 441 460.748046875 456.88671875 460.748046875 456.88671875 c 5
 450.099609375 422.799804688 l 5
 438.205078125 380.673828125 l 6
 421.56640625 345.249023438 317.641601562 344.634765625 317.641601562 344.634765625 c 5
 217.399414062 344.798828125 l 5
 217.694335938 227.352539062 l 6
 220.155273438 199.297851562 234.870117188 120.744140625 323.12109375 120.744140625 c 4
 465.5 120.744140625 479.822265625 165.041015625 479.822265625 165.041015625 c 5
 523.080078125 165.041015625 l 5
 523.080078125 0.51953125 l 5
 479.374023438 0.6181640625 394.422851562 0.4208984375 394.422851562 0.4208984375 c 5
 210.541015625 0.716796875 l 5
 210.344726562 0.51953125 l 5
 35.51953125 0.51953125 l 5
 35.51953125 83.75390625 l 5
 35.51953125 83.75390625 68.5947265625 83.064453125 71.5478515625 177.26953125 c 6
 71.744140625 582.646484375 l 5
 71.744140625 618.37890625 l 6
 70.46484375 635.408203125 67.216796875 655.587890625 59.341796875 671.633789062 c 4
 54.025390625 681.083984375 46.4462890625 689.943359375 35.51953125 696.045898438 c 5
 35.51953125 696.63671875 l 5
 35.51953125 772.663085938 l 5
 35.51953125 773.25390625 l 5
 88.873046875 773.25390625 l 5
 253.952148438 773.25390625 l 5
 523.080078125 773.25390625 l 5
 523.080078125 591.822265625 l 5
EndSplineSet
Validated: 33
EndChar

StartChar: F
Encoding: 70 70 5
Width: 530
VWidth: 0
Flags: W
HStem: -0.0712891 63.3613<242.742 269.527> 357.541 83.7051<229.267 285.473> 663.113 110.141<275.729 365.143> 699.338 73.916<31.6582 58.9179>
VStem: 82.748 146.519<157.691 357.541 441.246 490.738 519.384 627.971> 464.346 34.5957<593.025 625.256>
LayerCount: 2
Fore
SplineSet
457.029296875 446.517578125 m 2xec
 437.793945312 365.783203125 333.271484375 361.380859375 333.271484375 361.282226562 c 2
 229.266601562 357.541015625 l 1
 229.266601562 157.69140625 l 1
 229.266601562 157.69140625 230.15234375 63.2900390625 269.52734375 63.2900390625 c 1
 269.52734375 -0.0712890625 l 1
 41.3056640625 -0.0712890625 l 1
 41.3056640625 63.978515625 l 1
 41.3056640625 63.978515625 80.6806640625 63.2900390625 82.748046875 159.16796875 c 2
 82.748046875 627.970703125 l 1
 82.748046875 627.970703125 74.380859375 679.35546875 31.658203125 699.337890625 c 1
 31.658203125 773.25390625 l 1
 82.748046875 773.25390625 l 1
 240.936523438 773.25390625 l 1
 498.94140625 773.25390625 l 1xdc
 498.94140625 593.025390625 l 1
 464.345703125 592.533203125 l 1
 444.954101562 663.11328125 365.142578125 663.11328125 365.142578125 663.11328125 c 1
 275.728515625 663.11328125 l 1
 275.728515625 663.11328125 230.64453125 664.688476562 231.13671875 607.791015625 c 2
 231.13671875 519.383789062 l 1
 220.013671875 513.37890625 l 1
 218.83203125 507.866210938 l 1
 206.52734375 507.866210938 l 1
 203.57421875 503.830078125 l 1
 202.983398438 499.302734375 l 1
 198.357421875 501.861328125 l 1
 198.947265625 494.282226562 l 1
 207.118164062 494.282226562 l 1
 213.516601562 490.73828125 l 1
 220.505859375 497.826171875 l 1
 229.266601562 501.369140625 l 1
 229.266601562 441.24609375 l 1
 273.30078125 442.400390625 287.344726562 465.439453125 287.344726562 465.439453125 c 1
 446.900390625 442.400390625 408.26953125 472.428710938 408.26953125 472.428710938 c 1
 461.240234375 464.193359375 l 1
 457.029296875 446.517578125 l 2xec
EndSplineSet
Validated: 33
EndChar

StartChar: G
Encoding: 71 71 6
Width: 789
VWidth: 0
Flags: W
HStem: -0.0712891 157.905<311.967 533.318> 296.095 66.4561<531.76 603.482> 629.546 143.905<341.181 523.581>
VStem: 39.7686 161.547<271.991 484.915>
LayerCount: 2
Fore
SplineSet
810.731445312 397.649414062 m 1
 831.03125 394.204101562 l 1
 804.354492188 317.258789062 l 2
 796.184570312 307.907226562 779.450195312 302.689453125 761.435546875 299.834960938 c 1
 742.280273438 291.200195312 736.333984375 235.599609375 736.333984375 235.599609375 c 1
 602.7109375 263.599609375 l 1
 606.48046875 280 600.879882812 296.586914062 577.412109375 296.586914062 c 1
 502.7421875 296.094726562 l 1
 531.759765625 362.55078125 l 1
 597.909179688 364.814453125 640.5546875 396.369140625 640.5546875 396.369140625 c 1
 801.080078125 375.200195312 810.731445312 397.649414062 810.731445312 397.649414062 c 1
426.135742188 157.833984375 m 0
 498.684570312 157.833984375 578.48046875 176.400390625 602.513671875 263.697265625 c 1
 736.629882812 235.697265625 l 1
 693.280273438 36.400390625 542.291992188 -0.0712890625 414.815429688 -0.0712890625 c 0
 207.604492188 -0.0712890625 39.7685546875 173.27734375 39.7685546875 386.788085938 c 0
 39.7685546875 600.298828125 207.703125 773.451171875 414.9140625 773.451171875 c 0
 551.643554688 773.451171875 694.680664062 691.599609375 736.8046875 557.336914062 c 1
 619.521484375 529.336914062 l 1
 565.479492188 590.76171875 514.3359375 629.545898438 426.135742188 629.545898438 c 0
 312.48046875 629.545898438 201.315429688 516.599609375 201.315429688 390.725585938 c 0
 201.315429688 256.200195312 263.3203125 157.833984375 426.135742188 157.833984375 c 0
105.033203125 547.33984375 m 1
 105.033203125 547.33984375 114.581054688 581.30078125 149.919921875 587.994140625 c 1
 126.984375 587.994140625 l 1
 113.005859375 574.607421875 l 1
 103.064453125 575.591796875 l 1
 97.0595703125 564.271484375 l 1
 81.1123046875 563.287109375 l 1
 105.033203125 547.33984375 l 1
EndSplineSet
Validated: 37
EndChar

StartChar: S
Encoding: 83 83 7
Width: 593
VWidth: 0
Flags: W
LayerCount: 2
Fore
SplineSet
502.982421875 722.06640625 m 1
 502.982421875 586.98828125 l 1
 452.713867188 586.98828125 l 1
 452.713867188 586.98828125 280 704.200195312 212.088867188 592.227539062 c 1
 212.088867188 592.227539062 173.599609375 518 280.951171875 478.92578125 c 1
 280.951171875 478.92578125 277.615234375 479.931640625 380.974609375 429.334960938 c 1
 380.974609375 429.334960938 529.200195312 371 550.528320312 267.580078125 c 1
 550.528320312 267.580078125 581.536132812 160.185546875 500.916015625 71.2958984375 c 1
 500.916015625 71.2958984375 429.504882812 -6.4697265625 273.580078125 0.4208984375 c 1
 273.580078125 0.4208984375 89.6767578125 5.146484375 37.208984375 109.490234375 c 1
 37.208984375 259.826171875 l 1
 95.626953125 259.826171875 l 1
 95.626953125 259.826171875 119.765625 158.336914062 261.318359375 147.016601562 c 1
 261.318359375 147.016601562 395.401367188 140 395.401367188 230.961914062 c 1
 395.401367188 230.961914062 407.400390625 284.200195312 237.453125 332.998046875 c 1
 237.453125 332.998046875 246.706054688 355.244140625 283.916015625 373.849609375 c 1
 260.192382812 373.849609375 l 1
 245.721679688 360.461914062 l 1
 235.385742188 361.446289062 l 1
 229.184570312 350.125976562 l 1
 212.646484375 349.141601562 l 1
 212.646484375 349.141601562 54.2392578125 404.485351562 45.7734375 575.962890625 c 1
 45.7734375 575.962890625 40.599609375 691.599609375 191.974609375 758.389648438 c 1
 191.876953125 758.193359375 332.489257812 809.873046875 502.982421875 722.06640625 c 1
EndSplineSet
Validated: 33
EndChar

StartChar: T
Encoding: 84 84 8
Width: 708
VWidth: 0
Flags: W
HStem: -0.0712891 49.3613<434.359 457.444> 617.733 155.521<29.0771 63.082 631.238 679.225> 660.313 112.94<82.1912 275.306 457.444 547.963>
VStem: 278.616 144.179<143.691 490.738 519.384 624.92> 645.515 33.8076<617.733 640.205>
LayerCount: 2
Fore
SplineSet
679.224609375 773.25390625 m 5xd8
 679.322265625 617.733398438 l 5
 645.514648438 617.733398438 l 5xd8
 635.599609375 660.799804688 547.962890625 660.313476562 547.962890625 660.313476562 c 5
 457.444335938 660.313476562 l 5
 457.444335938 660.313476562 424.271484375 658 424.271484375 632.991210938 c 6
 424.271484375 519.383789062 l 5
 414.72265625 513.37890625 l 5
 413.73828125 507.866210938 l 5
 403.205078125 507.866210938 l 5
 400.646484375 503.830078125 l 5
 400.154296875 499.302734375 l 5
 396.118164062 501.861328125 l 5
 396.610351562 494.282226562 l 5
 403.697265625 494.282226562 l 5
 409.209960938 490.73828125 l 5
 415.21484375 497.826171875 l 5
 422.794921875 501.369140625 l 5
 422.794921875 143.69140625 l 5
 422.794921875 143.69140625 423.483398438 49.2900390625 457.444335938 49.2900390625 c 5
 457.444335938 -0.0712890625 l 5
 242.883789062 -0.0712890625 l 5
 242.883789062 49.978515625 l 5
 242.883789062 49.978515625 276.844726562 49.2900390625 278.616210938 145.16796875 c 6
 278.616210938 624.919921875 l 5
 278.616210938 624.919921875 278.599609375 660.21484375 234.592773438 660.21484375 c 5
 190.689453125 660.21484375 189.771484375 660.21484375 161.618164062 660.313476562 c 4xb8
 81.1943359375 660.509765625 63.08203125 617.733398438 63.08203125 617.733398438 c 5
 29.0771484375 617.733398438 l 5
 29.0771484375 773.25390625 l 5
 679.224609375 773.25390625 l 5xd8
EndSplineSet
Validated: 33
EndChar

StartChar: U
Encoding: 85 85 9
Width: 674
VWidth: 0
Flags: W
HStem: -0.0712891 133.448<330.839 410.35> 732.413 40.8408<193.886 215.853 461.028 485.266>
VStem: 34.9902 152.315<257.314 686.147> 489.575 149.909<263.348 272.798 273.052 698.475>
LayerCount: 2
Fore
SplineSet
461.028320312 772.98046875 m 5
 668.719726562 773.25390625 l 5
 668.719726562 729.952148438 l 5
 668.719726562 729.952148438 639.287109375 717.451171875 640.172851562 670.49609375 c 4
 641.059570312 623.541015625 639.484375 272.797851562 639.484375 272.797851562 c 5
 639.484375 263.34765625 l 5
 632.297851562 250.05859375 l 5
 639.484375 247.794921875 l 5
 639.484375 247.794921875 619.8515625 -0.0712890625 322.373046875 -0.0712890625 c 4
 58.9541015625 -0.0712890625 34.990234375 257.047851562 34.990234375 257.047851562 c 5
 34.990234375 257.047851562 34.3017578125 623.541015625 35.1875 670.49609375 c 4
 36.0732421875 717.451171875 6.640625 729.952148438 6.640625 729.952148438 c 5
 6.640625 773.25390625 l 5
 215.852539062 773.25390625 l 5
 215.852539062 732.413085938 l 5
 186.419921875 720.994140625 187.305664062 686.147460938 187.305664062 686.147460938 c 5
 187.305664062 320.408203125 l 5
 194.098632812 124.517578125 330.838867188 133.376953125 330.838867188 133.376953125 c 5
 450.799804688 133.376953125 481.010742188 227.287109375 488 283.001953125 c 4
 488.393554688 294.51953125 488.885742188 306.430664062 489.575195312 318.833984375 c 6
 489.083007812 336.060546875 l 5
 489.575195312 698.474609375 l 5
 489.575195312 698.474609375 490.4609375 719.22265625 461.028320312 730.740234375 c 5
 461.028320312 772.98046875 l 5
EndSplineSet
Validated: 33
EndChar

StartChar: V
Encoding: 86 86 10
Width: 725
VWidth: 0
Flags: W
HStem: -0.0947266 21G<299.644 446.344> 726.451 46.2109<461.224 484.301>
LayerCount: 2
Fore
SplineSet
461.223632812 772.662109375 m 1
 689.926757812 772.662109375 l 1
 689.926757812 725.073242188 l 1
 689.926757812 725.073242188 652.126953125 708.174804688 611.963867188 594.971679688 c 2
 440.583984375 -0.0947265625 l 1
 306.370117188 -0.0947265625 l 1
 107.723632812 590.541992188 l 1
 107.723632812 590.541992188 60.080078125 707.944335938 35.2734375 727.927734375 c 1
 35.2734375 772.662109375 l 1
 281.903320312 772.662109375 l 1
 281.8046875 728.026367188 l 1
 281.8046875 728.026367188 218.3125 718.43359375 280.033203125 547.940429688 c 2
 371.448242188 237.850585938 l 1
 375.955078125 237.850585938 l 1
 482.486328125 600.58203125 l 1
 482.486328125 600.58203125 518.513671875 704.401367188 460.927734375 726.451171875 c 1
 461.223632812 772.662109375 l 1
EndSplineSet
Validated: 33
EndChar

StartChar: W
Encoding: 87 87 11
Width: 932
VWidth: 0
Flags: W
HStem: -0.280273 32.2109<202.869 208.611 713.679 719.294> 727.479 46.1338<35.9951 65.5701 868.353 896.404>
VStem: 790.781 2.06738<428.021 448.89>
LayerCount: 2
Fore
SplineSet
430.215820312 182.146484375 m 5
 430.609375 183.524414062 l 5
 430.412109375 183.524414062 l 5
 430.215820312 182.146484375 l 5
665.284179688 773.61328125 m 5
 896.404296875 773.61328125 l 5
 896.404296875 727.479492188 l 5
 851.025390625 723.935546875 829.171875 594.490234375 829.171875 594.490234375 c 5
 792.848632812 428.021484375 l 5
 790.78125 448.889648438 l 5
 779.755859375 445.641601562 l 5
 779.263671875 437.66796875 l 5
 767.057617188 436.290039062 l 5
 770.502929688 430.678710938 l 5
 770.502929688 430.678710938 760.659179688 428.513671875 757.115234375 422.90234375 c 4
 753.572265625 417.291992188 749.4375 408.235351562 749.4375 408.235351562 c 5
 759.674804688 412.467773438 l 5
 764.400390625 406.857421875 l 5
 768.927734375 413.157226562 l 5
 775.326171875 408.333984375 l 5
 789.107421875 407.349609375 l 5
 725.692382812 150.94140625 l 5
 725.791015625 150.94140625 l 5
 725.791015625 150.94140625 703.051757812 35.1787109375 719.490234375 31.044921875 c 5
 719.293945312 -0.181640625 l 5
 715.455078125 -0.181640625 l 5
 586.009765625 -0.181640625 l 5
 585.517578125 -0.181640625 l 5
 576.122070312 32.81640625 l 5
 506.056640625 169.64453125 l 5
 507.041015625 189.33203125 l 5
 506.056640625 169.64453125 l 5
 492.111328125 198.584960938 l 5
 483.896484375 214.43359375 l 5
 466.440429688 256.26953125 l 5
 439.90625 202.916992188 l 5
 438.4296875 205.279296875 l 5
 436.067382812 204.688476562 l 5
 438.724609375 219.256835938 l 5
 437.740234375 215.221679688 l 5
 436.755859375 211.381835938 l 5
 436.755859375 211.381835938 434 210.299804688 432.03125 210.299804688 c 4
 430.161132812 210.299804688 436.755859375 214.729492188 436.755859375 214.729492188 c 5
 433.310546875 214.729492188 l 5
 433.310546875 243.96484375 l 5
 430.357421875 247.115234375 l 5
 434.393554688 225.163085938 431.736328125 210.397460938 429.471679688 203.014648438 c 5
 420.612304688 200.948242188 l 5
 420.612304688 197.404296875 l 5
 411.752929688 193.860351562 l 5
 413.677734375 179.094726562 l 5
 429.625 183.229492188 l 5
 430.314453125 182.146484375 l 5
 346.533203125 31.1435546875 l 5
 331.833007812 -0.2802734375 l 5
 206.708007812 -0.2802734375 l 5
 202.869140625 -0.2802734375 l 5
 202.671875 31.9306640625 l 5
 216.650390625 38.919921875 204.345703125 121.508789062 200.112304688 147.49609375 c 6
 103.228515625 594.490234375 l 5
 103.228515625 594.490234375 89.25 714.583984375 35.9951171875 727.479492188 c 5
 35.9951171875 773.61328125 l 5
 281.213867188 773.61328125 l 5
 281.115234375 727.577148438 l 5
 281.115234375 727.577148438 252.470703125 717.537109375 268.515625 601.479492188 c 5
 266.841796875 602.266601562 262.806640625 603.64453125 257.884765625 603.841796875 c 6
 257.884765625 603.841796875 236.129882812 616.245117188 245.973632812 597.24609375 c 5
 250.994140625 596.065429688 l 5
 252.470703125 592.029296875 l 5
 259.361328125 591.930664062 l 5
 271.271484375 582.48046875 l 5
 273.4375 568.995117188 276.193359375 552.73046875 279.638671875 536.586914062 c 6
 332.642578125 309.58984375 l 5
 336.481445312 309.58984375 l 5
 392.864257812 434.321289062 l 5
 469.262695312 607.779296875 l 5
 547.892578125 427.321289062 l 5
 604.275390625 312.389648438 l 5
 608.114257812 312.389648438 l 5
 652.760742188 536.586914062 l 6
 688.591796875 709.443359375 665.3828125 727.577148438 665.3828125 727.577148438 c 5
 665.284179688 773.61328125 l 5
EndSplineSet
Validated: 37
EndChar

StartChar: X
Encoding: 88 88 12
Width: 771
VWidth: 0
Flags: W
HStem: 0.0273438 43.3457<274.293 295.022> 729.318 43.3447<490.432 511.162>
LayerCount: 2
Fore
SplineSet
670.583984375 114.05078125 m 1
 670.583984375 114.05078125 705.05859375 66.8994140625 745.41796875 42.880859375 c 1
 745.41796875 -0.0712890625 l 1
 484.131835938 -0.0712890625 l 1
 484.23046875 42.486328125 l 1
 484.23046875 42.486328125 527.345703125 73.986328125 485.805664062 144.271484375 c 2
 390.758789062 279.469726562 l 1
 388.41796875 279.469726562 l 1
 276.319335938 108.63671875 l 1
 276.319335938 108.63671875 257.813476562 55.283203125 295.318359375 43.373046875 c 1
 295.022460938 0.02734375 l 1
 25.982421875 0.02734375 l 1
 25.982421875 44.16015625 l 1
 25.982421875 44.16015625 59.3525390625 50.9521484375 94.7900390625 111.688476562 c 2
 286.764648438 390.266601562 l 1
 128.772460938 616.836914062 l 1
 128.772460938 616.836914062 77.595703125 705.98828125 37.3349609375 729.810546875 c 1
 37.3349609375 772.76171875 l 1
 286.021484375 772.76171875 l 1
 285.922851562 730.204101562 l 1
 285.922851562 730.204101562 235.91796875 715.275390625 270.34765625 656.419921875 c 2
 382.194335938 493.220703125 l 1
 398.53515625 493.220703125 l 1
 509.134765625 664.053710938 l 1
 509.134765625 664.053710938 527.641601562 717.407226562 490.13671875 729.318359375 c 1
 490.431640625 772.663085938 l 1
 735.672851562 772.663085938 l 1
 735.672851562 728.62890625 l 1
 735.672851562 728.62890625 702.302734375 721.836914062 666.865234375 661.100585938 c 2
 498.591796875 390.922851562 l 1
 670.583984375 114.05078125 l 1
EndSplineSet
Validated: 33
EndChar

StartChar: Y
Encoding: 89 89 13
Width: 708
VWidth: 0
Flags: W
HStem: -0.267578 49.8525<444.112 464.854> 729.931 43.3232<32.5938 52.184 455.656 470.22>
VStem: 276.073 156.986<129.319 146.939 173.912 306.244>
LayerCount: 2
Fore
SplineSet
455.65625 773.25390625 m 1
 675.806640625 773.25390625 l 1
 675.806640625 728.650390625 l 1
 675.806640625 728.650390625 655.254882812 720.579101562 618.537109375 648.62109375 c 2
 433.059570312 306.244140625 l 1
 433.059570312 129.319335938 l 1
 433.059570312 129.319335938 433.059570312 58.740234375 464.854492188 49.5849609375 c 1
 464.854492188 -0.267578125 l 1
 233.056640625 -0.267578125 l 1
 233.056640625 45.3525390625 l 1
 233.056640625 45.3525390625 272.923828125 55.884765625 276.466796875 146.939453125 c 1
 290.248046875 157.571289062 l 1
 353.740234375 152.649414062 l 1
 356.595703125 160.42578125 l 1
 331.887695312 162.591796875 l 1
 324.799804688 169.678710938 l 1
 283.849609375 169.678710938 l 1
 276.073242188 173.912109375 l 1
 276.073242188 308.235351562 l 1
 91.197265625 645.766601562 l 1
 91.197265625 645.766601562 43.400390625 729.930664062 32.59375 729.930664062 c 1
 32.59375 773.25390625 l 1
 275.275390625 773.25390625 l 1
 275.176757812 730.521484375 l 1
 275.176757812 730.521484375 230.486328125 693.115234375 273.502929688 609.836914062 c 2
 349.989257812 439.375976562 l 1
 359.919921875 439.375976562 l 1
 449.848632812 610.165039062 l 1
 449.848632812 610.165039062 494.145507812 715.361328125 455.361328125 729.438476562 c 1
 455.65625 773.25390625 l 1
EndSplineSet
Validated: 33
EndChar

StartChar: H
Encoding: 72 72 14
Width: 711
VWidth: 0
Flags: W
HStem: 0.0273438 50.3457<44.8105 68.0966 444.248 467.534> 311.363 136.675<267.247 444.347> 753.254 20G<44.8105 267.05 444.15 666.389>
VStem: 79.4609 150.281<149.007 305.832 459.109 657.447> 480.474 148.607<149.007 305.323 453.89 527.182 557.107 657.447>
LayerCount: 2
Fore
SplineSet
666.388671875 727.436523438 m 1
 629.671875 707.454101562 629.081054688 657.447265625 629.081054688 657.447265625 c 1
 629.081054688 150.58203125 l 2
 630.951171875 50.373046875 666.388671875 51.0615234375 666.388671875 51.0615234375 c 1
 666.388671875 0.02734375 l 1
 444.248046875 0.02734375 l 1
 444.248046875 50.373046875 l 1
 479.685546875 50.373046875 480.473632812 149.006835938 480.473632812 149.006835938 c 1
 480.473632812 250.33203125 l 2
 477.421875 309.788085938 444.346679688 311.658203125 444.346679688 311.658203125 c 1
 267.345703125 311.36328125 l 2
 239.684570312 311.36328125 231.809570312 274.350585938 229.840820312 244.42578125 c 2
 229.840820312 209.283203125 l 2
 229.939453125 208.00390625 230.037109375 207.216796875 230.037109375 207.216796875 c 1
 229.840820312 207.806640625 l 1
 229.840820312 150.58203125 l 2
 231.7109375 50.373046875 267.1484375 51.0615234375 267.1484375 51.0615234375 c 1
 267.1484375 0.02734375 l 1
 44.810546875 0.02734375 l 1
 44.810546875 50.373046875 l 1
 80.248046875 50.373046875 81.0361328125 149.006835938 81.0361328125 149.006835938 c 1
 79.4609375 665.913085938 l 2
 79.4609375 712.178710938 44.810546875 723.696289062 44.810546875 723.696289062 c 1
 44.810546875 773.25390625 l 1
 267.049804688 773.25390625 l 1
 267.049804688 727.337890625 l 1
 230.234375 707.35546875 229.7421875 657.447265625 229.7421875 657.447265625 c 1
 229.7421875 555.040039062 l 1
 229.939453125 555.630859375 l 1
 230.627929688 451.188476562 267.247070312 448.038085938 267.247070312 448.038085938 c 1
 444.248046875 447.939453125 l 2
 474.666015625 449.810546875 479.587890625 503.655273438 480.375 520.881835938 c 2
 480.375 538.20703125 l 1
 488.25 534.564453125 l 1
 494.549804688 527.181640625 l 1
 500.357421875 530.82421875 l 1
 507.740234375 530.82421875 l 1
 508.232421875 538.69921875 l 1
 504 536.041015625 l 1
 503.5078125 540.766601562 l 1
 500.849609375 544.999023438 l 1
 489.825195312 544.999023438 l 1
 488.7421875 550.806640625 l 1
 478.799804688 557.107421875 l 1
 478.799804688 666.01171875 l 2
 478.799804688 712.27734375 444.150390625 723.794921875 444.150390625 723.794921875 c 1
 444.150390625 773.352539062 l 1
 666.388671875 773.352539062 l 1
 666.388671875 727.436523438 l 1
EndSplineSet
Validated: 33
EndChar

StartChar: I
Encoding: 73 73 15
Width: 277
VWidth: 0
Flags: W
HStem: -0.0712891 50.3457<219.483 242.769> 753.254 20G<34.4316 242.769>
VStem: 71.7393 134.805<148.908 513.084 543.009 657.447>
LayerCount: 2
Fore
SplineSet
34.431640625 773.25390625 m 5
 242.768554688 773.25390625 l 5
 242.768554688 723.696289062 l 5
 242.768554688 723.696289062 208.119140625 712.178710938 208.119140625 665.913085938 c 6
 208.119140625 543.008789062 l 5
 198.176757812 536.708984375 l 5
 197.09375 530.900390625 l 5
 186.068359375 530.900390625 l 5
 183.411132812 526.66796875 l 5
 182.918945312 521.943359375 l 5
 178.685546875 524.600585938 l 5
 179.177734375 516.725585938 l 5
 186.560546875 516.725585938 l 5
 192.369140625 513.083984375 l 5
 198.668945312 520.466796875 l 5
 206.543945312 524.108398438 l 5
 206.543945312 148.908203125 l 5
 206.543945312 148.908203125 207.331054688 50.2744140625 242.768554688 50.2744140625 c 5
 242.768554688 -0.0712890625 l 5
 34.431640625 -0.0712890625 l 5
 34.431640625 50.962890625 l 5
 34.431640625 50.962890625 69.869140625 50.2744140625 71.7392578125 150.483398438 c 6
 71.7392578125 657.447265625 l 5
 71.7392578125 657.447265625 71.2470703125 707.35546875 34.431640625 727.337890625 c 5
 34.431640625 773.25390625 l 5
242.669921875 50.2744140625 m 1028
EndSplineSet
Validated: 33
EndChar

StartChar: J
Encoding: 74 74 16
Width: 480
VWidth: 0
Flags: W
HStem: 731.199 42.1533<437.439 456.002>
VStem: 284.621 134.312<-37.363 670.562 727.36 729.011>
LayerCount: 2
Fore
SplineSet
266.705078125 96.11328125 m 1024
248.494140625 773.25390625 m 1
 248.494140625 773.352539062 l 1
 456.241210938 773.352539062 l 1
 456.241210938 741.240234375 l 1
 451.123046875 738.384765625 446.791015625 734.939453125 442.952148438 731.19921875 c 2
 437.439453125 731.19921875 l 1
 434.092773438 739.763671875 l 1
 420.115234375 737.10546875 l 1
 420.115234375 733.758789062 l 1
 413.125976562 731.100585938 l 1
 413.125976562 727.360351562 l 1
 416.767578125 722.537109375 l 1
 427.103515625 719.583984375 l 1
 429.170898438 725.587890625 l 1
 434.486328125 724.505859375 l 1
 439.60546875 727.75390625 l 1
 419.327148438 704.423828125 418.93359375 670.561523438 418.93359375 670.561523438 c 1
 418.93359375 -23.904296875 l 1
 418.93359375 -170.799804688 310.357421875 -210.235351562 310.357421875 -210.235351562 c 1
 310.357421875 -210.235351562 51.3798828125 -301 23.958984375 -92.77734375 c 1
 56.048828125 -1.33984375 l 1
 75.638671875 -1.33984375 l 1
 75.638671875 -1.33984375 103.298828125 -44.7509765625 142.280273438 -67.982421875 c 2
 141.88671875 -67.78515625 l 1
 136.374023438 -73.001953125 l 1
 139.130859375 -76.447265625 l 1
 141.88671875 -73.7900390625 l 1
 141.88671875 -76.447265625 l 1
 139.130859375 -79.10546875 l 1
 141.88671875 -81.271484375 l 1
 143.264648438 -83.6337890625 l 1
 147.990234375 -85.208984375 l 1
 145.33203125 -82.255859375 l 1
 146.119140625 -79.10546875 l 1
 142.181640625 -78.810546875 l 1
 145.33203125 -76.447265625 l 1
 144.249023438 -73.494140625 l 1
 150.844726562 -72.8056640625 l 1
 150.155273438 -72.412109375 l 2
 166.298828125 -80.4833984375 184.017578125 -84.716796875 202.327148438 -80.9755859375 c 1
 202.327148438 -80.9755859375 284.62109375 -75.0693359375 284.62109375 49.650390625 c 2
 284.62109375 521.352539062 l 1
 283.045898438 679.02734375 l 2
 283.045898438 725.78515625 248.494140625 739.07421875 248.494140625 739.07421875 c 1
 248.494140625 773.25390625 l 1
EndSplineSet
Validated: 33
EndChar

StartChar: K
Encoding: 75 75 17
Width: 750
VWidth: 0
Flags: W
HStem: 0.0273438 20.9014G<29.2852 240.521 482.021 721.115> 730.98 42.2734<29.2852 57.0848 686.398 714.717>
VStem: 62.5566 151.091<116.868 263.446 281.264 687.274>
LayerCount: 2
Fore
SplineSet
29.28515625 734.91796875 m 1
 29.28515625 773.25390625 l 1
 246.919921875 773.25390625 l 1
 246.919921875 732.358398438 l 1
 246.919921875 732.358398438 212.564453125 719.462890625 213.647460938 671.032226562 c 0
 214.73046875 622.600585938 213.647460938 116.500976562 213.647460938 116.500976562 c 1
 213.647460938 116.500976562 213.451171875 67.2822265625 240.521484375 48.775390625 c 1
 240.521484375 -0.0712890625 l 1
 29.28515625 -0.0712890625 l 1
 29.28515625 50.4931640625 l 1
 29.28515625 50.4931640625 62.556640625 64.400390625 62.556640625 119.79296875 c 2
 62.556640625 263.446289062 l 1
 86.181640625 259.705078125 l 1
 101.735351562 250.05859375 l 1
 109.51171875 251.633789062 l 1
 112.46484375 243.069335938 l 1
 127.525390625 247.400390625 l 1
 132.939453125 254.389648438 l 1
 132.939453125 259.803710938 l 1
 122.702148438 263.544921875 l 1
 122.702148438 268.368164062 l 1
 102.326171875 272.108398438 l 1
 97.501953125 259.705078125 l 1
 86.181640625 259.705078125 l 1
 62.064453125 281.263671875 l 1
 62.556640625 687.274414062 l 1
 62.556640625 687.274414062 63.6396484375 723.10546875 29.28515625 734.91796875 c 1
612.341796875 165.369140625 m 2
 683.905273438 56.8916015625 721.115234375 50.0771484375 721.115234375 50.17578125 c 2
 721.115234375 0.02734375 l 1
 482.021484375 0.02734375 l 1
 482.021484375 45.2978515625 l 1
 502.599609375 61.599609375 477.689453125 106.897460938 477.689453125 106.897460938 c 1
 393.23046875 199.899414062 l 1
 393.23046875 213.483398438 l 1
 438.314453125 213.483398438 l 1
 446.87890625 219.193359375 l 1
 430.439453125 226.280273438 l 1
 426.896484375 229.134765625 l 1
 421.186523438 223.42578125 l 1
 421.186523438 223.42578125 402.58203125 226.969726562 400.416015625 226.969726562 c 0
 398.250976562 226.969726562 400.416015625 234.844726562 400.416015625 234.844726562 c 1
 375.314453125 237.69921875 l 1
 248.505859375 405.196289062 l 1
 479.209960938 663.157226562 l 2
 518.092773438 708.83203125 479.209960938 730.98046875 479.209960938 730.98046875 c 1
 479.209960938 773.25390625 l 1
 714.716796875 773.25390625 l 1
 715.405273438 730.98046875 l 1
 684.98828125 722.318359375 611.881835938 630.836914062 611.881835938 630.836914062 c 1
 423.30859375 405.196289062 l 1
 482.764648438 314.633789062 549.209960938 276.866210938 549.209960938 276.866210938 c 1
 612.341796875 165.369140625 l 2
460.16796875 213.08984375 m 1
 466.172851562 215.944335938 l 1
 462.62890625 218.798828125 l 1
 460.16796875 225.88671875 l 1
 451.209960938 218.798828125 l 1
 460.16796875 213.08984375 l 1
EndSplineSet
Validated: 37
EndChar

StartChar: L
Encoding: 76 76 18
Width: 534
VWidth: 0
Flags: W
HStem: -0.0712891 113.323<236.367 417.687 417.725 441.883> 753.254 20G<19.5615 227.899>
VStem: 56.8691 134.805<244.787 513.084 543.009 657.447>
LayerCount: 2
Fore
SplineSet
471.48828125 146.20703125 m 1
 515.23828125 146.20703125 l 1
 515.23828125 -0.0712890625 l 1
 470.154296875 0.02734375 417.686523438 -0.169921875 417.686523438 -0.169921875 c 1
 228.095703125 0.1259765625 l 1
 227.899414062 -0.0712890625 l 1
 19.5615234375 -0.0712890625 l 1
 22.361328125 88.763671875 l 1
 22.361328125 88.763671875 56.869140625 117.599609375 56.869140625 248.483398438 c 2
 56.869140625 657.447265625 l 1
 56.869140625 657.447265625 56.376953125 707.35546875 19.5615234375 727.337890625 c 1
 19.5615234375 773.25390625 l 1
 227.899414062 773.25390625 l 1
 227.899414062 723.696289062 l 1
 227.899414062 723.696289062 193.249023438 712.178710938 193.249023438 665.913085938 c 2
 193.249023438 543.008789062 l 1
 183.306640625 536.708984375 l 1
 182.224609375 530.900390625 l 1
 171.19921875 530.900390625 l 1
 168.541015625 526.66796875 l 1
 168.048828125 521.943359375 l 1
 163.81640625 524.600585938 l 1
 164.30859375 516.725585938 l 1
 171.69140625 516.725585938 l 1
 177.499023438 513.083984375 l 1
 183.798828125 520.466796875 l 1
 191.673828125 524.108398438 l 1
 191.673828125 244.787109375 l 1
 191.673828125 244.787109375 188.34765625 113.251953125 300.939453125 113.251953125 c 0
 401.799804688 113.251953125 471.48828125 146.20703125 471.48828125 146.20703125 c 1
EndSplineSet
Validated: 33
EndChar

StartChar: M
Encoding: 77 77 19
Width: 940
VWidth: 0
Flags: W
HStem: 0.0273438 37.625<236.25 257.649 889.193 904.92> 706.743 66.5107<46.709 66.53 846.645 868.399 872.436 904.723>
VStem: 73.877 148.531<127.821 160.699 190.132 518.334> 707.268 167.432<118.765 434.115 476.147 517.645>
LayerCount: 2
Fore
SplineSet
846.64453125 706.743164062 m 1
 846.053710938 700.344726562 l 1
 833.84765625 693.35546875 l 1
 854.913085938 690.599609375 l 1
 858.94921875 696.209960938 l 1
 874.797851562 694.83203125 l 1
 881.58984375 701.131835938 l 1
 878.833984375 687.842773438 l 1
 878.833984375 476.147460938 l 1
 859.146484375 474.76953125 l 1
 853.04296875 469.84765625 l 1
 848.318359375 476.147460938 l 1
 843.592773438 470.537109375 l 1
 833.35546875 474.76953125 l 1
 839.458984375 461.48046875 l 1
 846.250976562 455.869140625 l 1
 854.420898438 452.326171875 l 1
 850.975585938 446.71484375 l 1
 863.181640625 445.336914062 l 1
 863.87109375 434.803710938 l 1
 874.69921875 434.115234375 l 1
 874.69921875 118.764648438 l 1
 874.69921875 118.764648438 878.833984375 49.5634765625 904.919921875 37.65234375 c 1
 904.919921875 0.02734375 l 1
 678.032226562 0.02734375 l 1
 678.032226562 37.455078125 l 1
 678.032226562 37.455078125 708.646484375 46.216796875 707.267578125 120.83203125 c 2
 707.267578125 517.64453125 l 1
 701.165039062 517.64453125 l 1
 470.44921875 239.28515625 l 1
 229.889648438 518.333984375 l 1
 222.408203125 518.333984375 l 1
 222.408203125 190.131835938 l 1
 212.170898438 178.220703125 l 1
 205.37890625 176.842773438 l 1
 204.689453125 172.610351562 l 1
 199.96484375 170.54296875 l 1
 199.96484375 170.54296875 194.55078125 157.155273438 205.37890625 160.69921875 c 2
 205.37890625 160.69921875 210.891601562 166.310546875 212.860351562 166.310546875 c 0
 214.829101562 166.310546875 223.688476562 171.232421875 223.688476562 171.232421875 c 1
 223.688476562 127.821289062 l 1
 223.688476562 127.821289062 221.62109375 42.6728515625 257.649414062 36.373046875 c 1
 257.649414062 0.02734375 l 1
 35.880859375 0.02734375 l 1
 35.880859375 36.373046875 l 1
 35.880859375 36.373046875 73.876953125 49.95703125 73.876953125 123.587890625 c 0
 73.876953125 197.219726562 73.876953125 652.798828125 73.876953125 652.798828125 c 1
 73.876953125 652.798828125 71.12109375 699.75390625 46.708984375 706.743164062 c 1
 46.708984375 773.25390625 l 1
 251.032226562 773.25390625 l 1
 474.462890625 490.803710938 l 1
 708.17578125 773.25390625 l 1
 904.72265625 773.25390625 l 1
 904.72265625 713.04296875 l 1
 872.435546875 712.353515625 l 1
 868.399414062 706.743164062 l 1
 846.64453125 706.743164062 l 1
590.740234375 442.459960938 m 1
 596.842773438 452.40234375 l 1
 590.05078125 455.552734375 l 1
 587.983398438 463.624023438 l 1
 568.985351562 468.545898438 l 1
 564.259765625 453.780273438 l 1
 573.119140625 450.236328125 l 1
 573.119140625 446.693359375 l 1
 590.740234375 442.459960938 l 1
EndSplineSet
Validated: 33
EndChar

StartChar: N
Encoding: 78 78 20
Width: 809
VWidth: 0
Flags: W
HStem: -0.267578 50.3447<241.795 265.081 747.37 770.656> 753.057 20.1973G<38.5439 261.669 552.333 770.558>
VStem: 75.8516 153.005<148.712 373.084 403.009 511.563> 586.119 148.312<255.801 653.608>
LayerCount: 2
Fore
SplineSet
264.982421875 50.2744140625 m 1024
735.908203125 665.913085938 m 2
 734.431640625 524.108398438 l 1
 734.431640625 148.908203125 l 1
 734.431640625 148.908203125 735.21875 50.2744140625 770.65625 50.2744140625 c 1
 770.65625 -0.0712890625 l 1
 585.134765625 -0.0712890625 l 1
 230.431640625 511.563476562 l 1
 230.431640625 403.008789062 l 1
 220.489257812 396.708984375 l 1
 219.40625 390.900390625 l 1
 208.380859375 390.900390625 l 1
 205.723632812 386.66796875 l 1
 205.231445312 381.943359375 l 1
 200.998046875 384.600585938 l 1
 201.490234375 376.725585938 l 1
 208.873046875 376.725585938 l 1
 214.681640625 373.083984375 l 1
 220.981445312 380.466796875 l 1
 228.856445312 384.108398438 l 1
 228.856445312 148.711914062 l 1
 228.856445312 148.711914062 229.643554688 50.0771484375 265.081054688 50.0771484375 c 1
 265.081054688 -0.267578125 l 1
 38.5439453125 -0.267578125 l 1
 38.5439453125 50.7666015625 l 1
 38.5439453125 50.7666015625 73.9814453125 50.0771484375 75.8515625 150.287109375 c 2
 75.8515625 657.250976562 l 1
 75.8515625 657.250976562 75.359375 707.158203125 38.5439453125 727.141601562 c 1
 38.5439453125 773.056640625 l 1
 226.034179688 773.056640625 l 1
 260.684570312 773.056640625 l 1
 261.668945312 771.28515625 l 1
 250.151367188 739.446289062 l 1
 245.623046875 739.150390625 l 1
 245.229492188 731.177734375 l 1
 227.708007812 720.15234375 l 1
 222.490234375 725.959960938 l 1
 202.310546875 711.587890625 l 1
 240.40625 695.641601562 l 1
 231.448242188 705.583984375 l 1
 264.424804688 735.311523438 l 1
 264.916992188 737.37890625 l 1
 586.119140625 255.80078125 l 1
 589.3671875 653.608398438 l 1
 589.3671875 653.608398438 586.884765625 702.334960938 552.333007812 727.337890625 c 1
 552.333007812 773.25390625 l 1
 770.557617188 773.25390625 l 1
 770.557617188 723.696289062 l 1
 770.557617188 723.696289062 735.908203125 712.178710938 735.908203125 665.913085938 c 2
EndSplineSet
Validated: 33
EndChar

StartChar: O
Encoding: 79 79 21
Width: 833
VWidth: 0
Flags: W
HStem: 0.587891 152.495<329.663 503.819> 624.248 148.725<336.741 495.871>
VStem: 35.208 179.98<277.367 476.408> 612.278 185.514<275.648 492.683>
LayerCount: 2
Fore
SplineSet
416.5 772.97265625 m 0
 627.045898438 772.97265625 797.791992188 595.225585938 797.791992188 384.6796875 c 0
 797.791992188 174.134765625 627.142578125 0.587890625 416.5 0.587890625 c 0
 205.857421875 0.587890625 35.2080078125 174.134765625 35.2080078125 384.6796875 c 0
 35.2080078125 595.225585938 205.954101562 772.97265625 416.5 772.97265625 c 0
418.635742188 153.083007812 m 0
 521.53515625 153.083007812 612.278320312 236.599609375 612.278320312 387.106445312 c 0
 612.278320312 508.200195312 538.3359375 624.248046875 416.305664062 624.248046875 c 0
 319.935546875 624.248046875 227.418945312 534.799804688 227.418945312 476.217773438 c 1
 225.08984375 478.450195312 221.88671875 481.16796875 218.5859375 483.012695312 c 2
 218.5859375 483.012695312 200.822265625 516.11328125 198.686523438 481.458984375 c 1
 204.801757812 475.92578125 l 1
 203.734375 469.130859375 l 1
 213.34375 463.598632812 l 1
 220.624023438 446.028320312 l 1
 217.033203125 426.419921875 215.188476562 405.938476562 215.188476562 384.583007812 c 0
 215.188476562 222.599609375 322.735351562 153.083007812 418.635742188 153.083007812 c 0
EndSplineSet
Validated: 1
EndChar

StartChar: P
Encoding: 80 80 22
Width: 660
VWidth: 0
Flags: W
HStem: -0.169922 21G<42.1025 258.436> 645.296 127.958<225.262 326.86>
VStem: 82.2646 142.997<155.428 433.765 448.53 537.233 588.027 598.385>
LayerCount: 2
Fore
SplineSet
357.93359375 317.116210938 m 1
 297.61328125 351.01171875 l 1
 297.61328125 432.288085938 l 1
 302.64453125 432.288085938 l 1
 486.701171875 410.200195312 469.026367188 542.36328125 469.026367188 542.36328125 c 5
 469.026367188 651 342.041992188 645.295898438 342.041992188 645.295898438 c 1
 225.26171875 645.295898438 l 1
 225.26171875 595.115234375 l 1
 224.573242188 588.02734375 l 1
 221.029296875 594.42578125 l 1
 217.485351562 585.271484375 l 1
 216.107421875 557.01953125 l 1
 221.717773438 545.009765625 l 1
 225.26171875 537.233398438 l 1
 225.26171875 448.530273438 l 1
 219.651367188 447.841796875 l 1
 216.795898438 442.23046875 l 1
 225.951171875 433.764648438 l 1
 225.951171875 144.107421875 l 1
 221.029296875 67.2275390625 258.435546875 55.2177734375 258.435546875 55.2177734375 c 1
 258.435546875 -0.169921875 l 1
 42.1025390625 -0.169921875 l 1
 42.1025390625 53.83984375 l 1
 79.30078125 77 78.130859375 155.427734375 78.130859375 155.427734375 c 1
 78.130859375 541.291015625 l 1
 80.9853515625 554.678710938 l 1
 85.6123046875 565.999023438 l 1
 123.313476562 565.999023438 l 1
 128.924804688 573.775390625 l 1
 104.905273438 577.319335938 l 1
 82.2646484375 582.83203125 l 1
 82.2646484375 598.384765625 l 1
 74.48828125 598.384765625 l 1
 74.48828125 671.032226562 l 1
 68.8779296875 675.264648438 l 1
 68.8779296875 696.428710938 l 1
 42.1025390625 723.991210938 l 1
 42.1025390625 766.85546875 l 1
 42.1025390625 773.25390625 l 1
 326.860351562 773.25390625 l 1
 326.860351562 773.25390625 632.30078125 788.200195312 618.224609375 526.44921875 c 0
 605.817382812 295.716796875 357.93359375 317.116210938 357.93359375 317.116210938 c 1
EndSplineSet
Validated: 33
EndChar

StartChar: Q
Encoding: 81 81 23
Width: 798
VWidth: 0
Flags: W
HStem: 10.5654 146.592<320.379 418.468> 612.749 160.923<318.161 479.367>
VStem: 45.1582 167.892<282.338 491.95> 579.975 172.867<251.552 497.168>
LayerCount: 2
Fore
SplineSet
613.305664062 91.2568359375 m 1
 687.400390625 -14 731.717773438 -39.2451171875 731.717773438 -39.2451171875 c 2
 734.203125 -49.703125 l 1
 658.11328125 -68.82421875 l 2
 610.051757812 -69.4658203125 520.426757812 19.9345703125 520.426757812 19.9345703125 c 1
 517.04296875 23.8837890625 l 1
 474.599609375 11.2001953125 445.66796875 10.5654296875 399 10.5654296875 c 0
 203.571289062 10.5654296875 45.158203125 180.444335938 45.158203125 390.018554688 c 0
 45.158203125 599.59375 203.571289062 773.671875 399 773.671875 c 0
 594.4296875 773.671875 752.841796875 599.59375 752.841796875 390.018554688 c 0
 752.841796875 260.263671875 706.043945312 159.657226562 613.305664062 91.2568359375 c 1
106.952148438 547.733398438 m 1
 106.952148438 547.733398438 115.907226562 581.026367188 149.340820312 587.641601562 c 1
 127.6484375 587.641601562 l 1
 114.514648438 574.518554688 l 1
 105.060546875 575.477539062 l 1
 99.388671875 564.380859375 l 1
 84.36328125 563.418945312 l 1
 106.952148438 547.733398438 l 1
400.990234375 157.157226562 m 0
 410.200195312 157.157226562 419.220703125 160.254882812 419.220703125 160.254882812 c 1
 351.436523438 244.833007812 l 1
 484.822265625 236.03515625 l 1
 511 190.400390625 543.200195312 217 543.200195312 217 c 2
 549.168945312 223.486328125 l 1
 577.68359375 252 579.974609375 319.200195312 579.974609375 392.47265625 c 0
 579.974609375 509.599609375 513.799804688 612.749023438 398.900390625 612.749023438 c 0
 284.200195312 612.749023438 213.049804688 498.400390625 213.049804688 389.912109375 c 0
 213.049804688 260.400390625 292.599609375 157.157226562 400.990234375 157.157226562 c 0
EndSplineSet
Validated: 33
EndChar

StartChar: R
Encoding: 82 82 24
Width: 693
VWidth: 0
Flags: W
HStem: -0.0712891 53.9111<28.8096 52.3638> 645.788 127.564<210.886 326.583>
VStem: 68.6768 142.209<143.319 422.127 436.795 524.514 584.014 599.468> 444.38 142.811<530.069 614.196>
LayerCount: 2
Fore
SplineSet
514.981445312 273.584960938 m 1
 606.900390625 50.400390625 664.2890625 50.3291015625 664.2890625 50.3291015625 c 1
 664.2890625 -0.0712890625 l 1
 540.388671875 -0.0712890625 l 1
 477.979492188 3.8662109375 383.435546875 146.720703125 383.435546875 146.720703125 c 1
 274.345703125 294.771484375 l 1
 274.345703125 434.749023438 l 1
 320.982421875 434.749023438 l 1
 419.299804688 434.749023438 444.379882812 530.069335938 444.379882812 530.069335938 c 1
 444.379882812 558.845703125 l 1
 444.379882812 652.400390625 326.583007812 645.788085938 326.583007812 645.788085938 c 1
 210.885742188 645.788085938 l 1
 210.885742188 582.000976562 l 1
 210.197265625 575.01171875 l 1
 206.653320312 581.311523438 l 1
 203.109375 572.157226562 l 1
 201.731445312 544.102539062 l 1
 207.341796875 532.19140625 l 1
 210.885742188 524.513671875 l 1
 210.885742188 436.794921875 l 1
 205.275390625 436.10546875 l 1
 202.518554688 430.494140625 l 1
 211.673828125 422.126953125 l 1
 211.673828125 140.716796875 l 2
 211.673828125 45.6259765625 243.9609375 52.41796875 243.9609375 52.41796875 c 1
 243.9609375 -0.0712890625 l 1
 28.8095703125 -0.0712890625 l 1
 28.8095703125 53.83984375 l 1
 63.2626953125 53.83984375 64.5419921875 143.319335938 64.5419921875 143.319335938 c 1
 64.5419921875 542.669921875 l 1
 67.298828125 555.958984375 l 1
 71.826171875 567.180664062 l 1
 109.331054688 567.180664062 l 1
 114.942382812 574.858398438 l 1
 91.1201171875 578.40234375 l 1
 68.6767578125 584.013671875 l 1
 68.6767578125 599.467773438 l 1
 60.998046875 599.467773438 l 1
 60.998046875 671.623046875 l 1
 55.3876953125 675.85546875 l 1
 55.3876953125 696.920898438 l 1
 28.7109375 724.287109375 l 1
 28.7109375 767.052734375 l 1
 28.7109375 773.352539062 l 1
 367.5 773.352539062 l 1
 367.5 773.352539062 587.190429688 774.631835938 587.190429688 547.624023438 c 0
 587.190429688 350 412.573242188 329.672851562 412.573242188 329.672851562 c 1
 438.900390625 268.799804688 514.981445312 273.584960938 514.981445312 273.584960938 c 1
EndSplineSet
Validated: 33
EndChar

StartChar: Z
Encoding: 90 90 25
Width: 716
VWidth: 0
Flags: W
HStem: 0.0273438 148.706<278.195 374.861 398.584 505.072> 626.221 147.033<146.497 464.144>
LayerCount: 2
Fore
SplineSet
663.556640625 773.25390625 m 1
 663.556640625 639.564453125 l 1
 278.1953125 148.733398438 l 1
 374.861328125 148.733398438 l 1
 379.880859375 134.952148438 l 1
 384.409179688 133.475585938 l 1
 384.409179688 118.31640625 l 1
 387.755859375 114.673828125 l 1
 391.497070312 113.985351562 l 1
 389.4296875 108.177734375 l 1
 395.630859375 108.866210938 l 1
 395.630859375 119.005859375 l 1
 398.583984375 126.978515625 l 1
 392.776367188 135.641601562 l 1
 389.823242188 146.469726562 l 1
 505.072265625 146.469726562 l 1
 505.072265625 146.469726562 596.935546875 138.599609375 596.935546875 168.376953125 c 1
 663.556640625 196.376953125 l 1
 663.556640625 0.02734375 l 1
 67.3203125 0.02734375 l 1
 67.3203125 0.02734375 67.3203125 0.02734375 53.244140625 0.02734375 c 1
 53.244140625 109.435546875 l 1
 53.244140625 117.977539062 l 1
 59.3466796875 123.78515625 l 1
 464.143554688 626.220703125 l 1
 146.497070312 624.646484375 l 1
 146.497070312 624.646484375 96.599609375 624.400390625 88.3203125 603.525390625 c 1
 53.244140625 575.525390625 l 1
 53.244140625 773.25390625 l 1
 663.556640625 773.25390625 l 1
EndSplineSet
Validated: 33
EndChar

StartChar: backslash
Encoding: 92 92 26
Width: 554
VWidth: 0
Flags: W
HStem: 754.95 20G<85.7871 149.377>
LayerCount: 2
Fore
SplineSet
334.133789062 72.9931640625 m 5
 334.133789062 72.9931640625 212.967773438 646.194335938 85.787109375 774.950195312 c 5
 85.787109375 774.950195312 248.690429688 725.337890625 315.430664062 676.31640625 c 5
 315.430664062 676.31640625 489.774414062 5.1689453125 467.03515625 0.345703125 c 4
 463.787109375 -0.2451171875 334.133789062 72.9931640625 334.133789062 72.9931640625 c 5
EndSplineSet
Validated: 33
EndChar

StartChar: bracketright
Encoding: 93 93 27
Width: 473
VWidth: 0
Flags: W
LayerCount: 2
Fore
SplineSet
420.240234375 806.400390625 m 1
 52.958984375 806.400390625 l 1
 52.958984375 694.224609375 l 1
 281.924804688 694.224609375 l 1
 281.924804688 605.041015625 146.573242188 585.418945312 146.573242188 585.418945312 c 1
 339.904296875 527.439453125 303.559570312 -67.462890625 303.559570312 -67.462890625 c 1
 420.240234375 -191.263671875 l 1
 420.240234375 806.400390625 l 1
EndSplineSet
Validated: 41
EndChar

StartChar: bracketleft
Encoding: 91 91 28
Width: 473
VWidth: 0
Flags: W
HStem: 694.225 112.176<191.275 420.24>
LayerCount: 2
Fore
SplineSet
52.958984375 806.400390625 m 1
 420.240234375 806.400390625 l 1
 420.240234375 694.224609375 l 1
 191.275390625 694.224609375 l 1
 191.275390625 605.041015625 326.626953125 585.418945312 326.626953125 585.418945312 c 1
 133.294921875 527.439453125 169.640625 -67.462890625 169.640625 -67.462890625 c 1
 52.958984375 -191.263671875 l 1
 52.958984375 806.400390625 l 1
EndSplineSet
Validated: 33
EndChar

StartChar: parenright
Encoding: 41 41 29
Width: 448
VWidth: 0
Flags: W
LayerCount: 2
Fore
SplineSet
41.8466796875 700.174804688 m 1
 41.8466796875 806.400390625 l 1
 406.153320312 806.400390625 l 1
 406.153320312 806.400390625 312.046875 725.888671875 312.046875 686.120117188 c 2
 312.046875 683.604492188 l 1
 312.046875 683.604492188 398.595703125 578.200195312 398.595703125 313.622070312 c 1
 398.595703125 313.622070312 404.13671875 0 98.4482421875 -187.424804688 c 1
 98.4482421875 -187.424804688 217.043945312 16.2861328125 228.364257812 187.46875 c 0
 228.462890625 187.567382812 296.8984375 596.619140625 41.8466796875 700.174804688 c 1
EndSplineSet
Validated: 33
EndChar

StartChar: parenleft
Encoding: 40 40 30
Width: 448
VWidth: 0
Flags: W
HStem: 696.08 110.557<274.893 408.669>
LayerCount: 2
Fore
SplineSet
39.3310546875 806.63671875 m 1
 408.668945312 806.63671875 l 1
 408.668945312 696.080078125 l 1
 274.892578125 696.080078125 l 1
 273.21875 677.475585938 l 1
 332.28125 631.384765625 l 1
 332.28125 631.384765625 65.228515625 179.200195312 345.767578125 -191.224609375 c 1
 345.767578125 -191.224609375 -111.171875 165.200195312 131.271484375 667.336914062 c 0
 131.33203125 667.461914062 150.62890625 786.799804688 39.3310546875 806.63671875 c 1
EndSplineSet
Validated: 33
EndChar

StartChar: dollar
Encoding: 36 36 31
Width: 453
VWidth: 0
Flags: W
HStem: -0.314453 21G<225.717 234.63>
VStem: 177.482 0.197266<314.292 349.139>
LayerCount: 2
Fore
SplineSet
135.3515625 357.30859375 m 2
 125.212890625 312.563476562 l 1
 164.587890625 268.16796875 l 1
 170.690429688 274.271484375 l 1
 170.690429688 126.276367188 l 1
 22.2470703125 431.213867188 l 1
 173.052734375 769.26953125 l 1
 172.265625 735.604492188 l 1
 182.404296875 719.4609375 185.948242188 709.813476562 185.948242188 709.813476562 c 2
 176.892578125 722.90625 167.419921875 712.373046875 167.419921875 712.373046875 c 1
 124.46875 554.763671875 l 1
 142.581054688 544.526367188 150.806640625 517.26953125 151.396484375 515.891601562 c 1
 141.2578125 533.01953125 118.442382812 529.235351562 118.442382812 529.235351562 c 1
 104.048828125 458.502929688 l 2
 102.276367188 448.265625 107.001953125 437.04296875 117.435546875 436.9453125 c 2
 144.2109375 436.649414062 l 1
 185.653320312 442.260742188 141.947265625 465.4921875 141.947265625 465.4921875 c 1
 174.333007812 458.010742188 181.715820312 426.018554688 181.715820312 426.018554688 c 1
 184.668945312 432.0234375 176.892578125 456.6328125 176.6953125 457.321289062 c 1
 190.377929688 449.446289062 200.3203125 432.810546875 200.911132812 431.727539062 c 1
 172.659179688 482.81640625 182.798828125 510.87109375 182.798828125 510.87109375 c 1
 184.799804688 532 226.012695312 548.190429688 226.012695312 548.190429688 c 1
 256.200195312 561.400390625 255.630859375 581.14453125 255.630859375 581.14453125 c 1
 253.400390625 604.799804688 226.012695312 602.6484375 226.012695312 602.6484375 c 1
 186.932617188 605.20703125 182.798828125 566.32421875 182.798828125 566.32421875 c 1
 182.798828125 566.32421875 174.978515625 584.852539062 174.978515625 585.935546875 c 0
 174.978515625 587.018554688 181.081054688 605.130859375 181.081054688 605.130859375 c 1
 180.096679688 622.422851562 l 1
 194.020507812 641.203125 l 1
 186.932617188 674.573242188 202.091796875 687.665039062 202.091796875 687.665039062 c 2
 199.041015625 661.3828125 216.015625 646.802734375 216.015625 646.802734375 c 1
 246.333984375 636.6640625 265.78125 659.578125 265.78125 659.578125 c 1
 266.765625 652.490234375 262.729492188 641.203125 256.724609375 638.25 c 0
 234.379882812 627.02734375 235.626953125 620.0390625 235.626953125 620.0390625 c 1
 280 610.400390625 277.888671875 574.560546875 277.888671875 574.560546875 c 1
 278.873046875 542.2734375 235.462890625 526.03125 226.111328125 521.995117188 c 0
 186.341796875 504.768554688 226.111328125 474.547851562 226.111328125 474.547851562 c 1
 242.057617188 455.352539062 251.606445312 425.034179688 251.606445312 425.034179688 c 1
 252.590820312 444.229492188 274.837890625 457.321289062 274.837890625 457.321289062 c 2
 258.693359375 431.0390625 268.734375 421.982421875 268.734375 421.982421875 c 1
 287.634765625 462.341796875 307.912109375 466.279296875 307.912109375 466.279296875 c 1
 279.661132812 443.047851562 303.088867188 437.141601562 303.088867188 437.141601562 c 1
 329.864257812 437.141601562 l 2
 343.841796875 437.141601562 354.080078125 450.430664062 350.338867188 464.015625 c 2
 334.807617188 521.831054688 l 2
 326.833984375 539.74609375 297.7734375 518.243164062 297.083984375 517.456054688 c 1
 311.751953125 547.282226562 323.673828125 558.799804688 323.673828125 558.799804688 c 1
 283.325195312 712.701171875 l 6
 277.221679688 721.7578125 265.78125 707.844726562 265.78125 707.844726562 c 1
 265.78125 722.01953125 277.888671875 737.1796875 277.888671875 737.1796875 c 1
 278.676757812 771.435546875 l 1
 431.353515625 428.260742188 l 1
 300.923828125 163.2890625 l 1
 294.8203125 180.416992188 l 1
 288.716796875 176.380859375 l 1
 280.645507812 187.50390625 l 1
 280.645507812 277.125976562 l 1
 291.768554688 268.0703125 l 1
 299.840820312 275.157226562 l 1
 300.825195312 283.229492188 l 1
 321.989257812 309.51171875 l 1
 316.96875 325.907226562 l 1
 328.091796875 330.927734375 l 1
 316.96875 346.086914062 l 1
 316.96875 357.2109375 l 1
 283.598632812 351.107421875 275.231445312 313.40625 275.231445312 313.40625 c 1
 275.526367188 347.169921875 l 1
 259.3828125 343.133789062 248.259765625 316.8515625 248.259765625 316.8515625 c 1
 257.315429688 247.157226562 l 1
 228.637695312 178.448242188 l 1
 242.517578125 138.088867188 l 1
 211.411132812 89.55859375 l 1
 226.40625 54.044921875 l 1
 257.216796875 70.36328125 l 1
 225.716796875 -0.314453125 l 1
 225.716796875 -0.314453125 184.865234375 85.62109375 181.715820312 89.55859375 c 0
 184.078125 91.52734375 207.801757812 138.088867188 207.801757812 138.088867188 c 1
 190.673828125 174.412109375 l 1
 211.815429688 241.0546875 l 1
 211.716796875 256.213867188 l 2
 213.489257812 320.88671875 177.482421875 349.138671875 177.482421875 349.138671875 c 1
 177.6796875 314.291992188 l 1
 168.918945312 355.930664062 136.434570312 357.30859375 135.3515625 357.30859375 c 2
EndSplineSet
Validated: 33
EndChar

StartChar: exclam
Encoding: 33 33 32
Width: 224
VWidth: 0
Flags: W
HStem: 0.046875 144.02<70.7002 146.104>
VStem: 27.3984 169.203
LayerCount: 2
Fore
SplineSet
70.7001953125 144.06640625 m 1
 146.103515625 144.06640625 l 1
 188.001953125 72.0546875 l 1
 146.103515625 0.046875 l 1
 70.7001953125 0.046875 l 1
 27.3984375 73.455078125 l 1
 70.7001953125 144.06640625 l 1
63.6015625 765.799804688 m 6
 196.6015625 784 l 6
 196.6015625 784 185.401367188 744.236328125 184.5625 735.349609375 c 6
 184.001953125 729.400390625 l 5
 147.765625 244.798828125 l 6
 146.514648438 228.067382812 134.490234375 214.857421875 118.30859375 210.7890625 c 6
 76.201171875 200.200195312 l 6
 76.201171875 200.200195312 77.7763671875 207.421875 76.201171875 228.6796875 c 6
 39.408203125 732.626953125 l 6
 36.8427734375 767.24609375 63.6015625 765.799804688 63.6015625 765.799804688 c 6
EndSplineSet
Validated: 33
EndChar

StartChar: period
Encoding: 46 46 33
Width: 210
VWidth: 0
Flags: W
HStem: 0.046875 144.02<71.498 146.903>
VStem: 28.1982 160.604
LayerCount: 2
Fore
SplineSet
71.498046875 144.06640625 m 5
 146.903320312 144.06640625 l 5
 188.801757812 72.0546875 l 5
 146.903320312 0.046875 l 5
 71.498046875 0.046875 l 5
 28.1982421875 73.455078125 l 5
 71.498046875 144.06640625 l 5
EndSplineSet
Validated: 1
EndChar

StartChar: comma
Encoding: 44 44 34
Width: 210
VWidth: 0
Flags: W
VStem: 29.2061 151.588
LayerCount: 2
Fore
SplineSet
113.475585938 145.348632812 m 1
 113.475585938 145.348632812 180.793945312 98 180.793945312 26.5634765625 c 0
 180.793945312 -19.9072265625 116.610351562 -107.59375 116.610351562 -107.59375 c 2
 98.9365234375 -144.53515625 43.5302734375 -189 43.5302734375 -189 c 1
 133.129882812 -22.400390625 37.7763671875 6.830078125 37.7763671875 6.830078125 c 1
 29.2060546875 103.57421875 l 1
 113.475585938 145.348632812 l 1
EndSplineSet
Validated: 33
EndChar

StartChar: slash
Encoding: 47 47 35
Width: 450
VWidth: 0
Flags: W
HStem: 754.95 20G<346.456 410.047>
LayerCount: 2
Fore
SplineSet
175.700195312 72.9931640625 m 1
 175.700195312 72.9931640625 46.046875 -0.2451171875 42.798828125 0.345703125 c 0
 20.0595703125 5.1689453125 194.403320312 676.31640625 194.403320312 676.31640625 c 1
 261.143554688 725.337890625 410.046875 774.950195312 410.046875 774.950195312 c 1
 282.865234375 646.194335938 175.700195312 72.9931640625 175.700195312 72.9931640625 c 1
EndSplineSet
Validated: 33
EndChar

StartChar: question
Encoding: 63 63 36
Width: 422
VWidth: 0
Flags: W
HStem: 0.046875 144.02<93.0703 168.475> 682.506 94.543<143.638 194.989>
LayerCount: 2
Fore
SplineSet
93.0703125 144.06640625 m 1
 168.474609375 144.06640625 l 1
 210.373046875 72.0546875 l 1
 168.474609375 0.046875 l 1
 93.0703125 0.046875 l 1
 49.76953125 73.455078125 l 1
 93.0703125 144.06640625 l 1
211.920898438 777.454101562 m 1
 378.571289062 775.599609375 395.856445312 603.459960938 395.856445312 603.459960938 c 1
 405.171875 487.200195312 319.771484375 427 222.891601562 396.873046875 c 0
 160.026367188 377.323242188 167.171875 207.200195312 167.171875 207.200195312 c 1
 99.9716796875 189 95.392578125 225.61328125 95.392578125 225.61328125 c 1
 17.37109375 477.400390625 166.989257812 488.670898438 166.989257812 488.670898438 c 1
 302.971679688 508.200195312 284.327148438 593.201171875 284.327148438 593.201171875 c 1
 277.771484375 684.599609375 194.989257812 682.505859375 194.989257812 682.505859375 c 1
 97.171875 682.505859375 56.48828125 566.491210938 56.48828125 566.491210938 c 1
 56.48828125 566.491210938 26.24609375 716.70703125 26.24609375 720.349609375 c 0
 26.24609375 723.991210938 143.637695312 777.048828125 143.637695312 777.048828125 c 1
 211.920898438 777.454101562 l 1
EndSplineSet
Validated: 33
EndChar

StartChar: asterisk
Encoding: 42 42 37
Width: 259
VWidth: 0
Flags: W
HStem: 574.748 227.797
VStem: 18.4512 218.95
LayerCount: 2
Fore
SplineSet
46.1015625 761.684570312 m 5
 46.1015625 761.684570312 79.9365234375 762.3984375 90.9208984375 754.421875 c 4
 112.951171875 738.423828125 136.790039062 687.961914062 136.790039062 687.961914062 c 6
 143.647460938 678.030273438 133.215820312 660.084960938 133.215820312 660.084960938 c 5
 107.666015625 727.090820312 54.4248046875 709.573242188 54.4248046875 709.573242188 c 5
 40.435546875 730.37109375 l 5
 46.1015625 761.684570312 l 5
119.4375 683.521484375 m 1030
18.451171875 663.642578125 m 5
 18.451171875 663.642578125 40.1953125 689.57421875 53.4296875 692.58984375 c 4
 79.9775390625 698.633789062 133.653320312 683.34375 133.653320312 683.34375 c 6
 145.643554688 681.965820312 152.280273438 662.298828125 152.280273438 662.298828125 c 5
 85.025390625 687.192382812 63.150390625 635.591796875 63.150390625 635.591796875 c 5
 38.287109375 638.7578125 l 5
 18.451171875 663.642578125 l 5
125.568359375 667.361328125 m 1030
110.22265625 574.748046875 m 5
 110.22265625 574.748046875 92.5341796875 603.598632812 93.87890625 617.106445312 c 4
 96.578125 644.19921875 126.123046875 696.233398438 126.123046875 696.233398438 c 6
 131.239257812 707.163085938 151.99609375 707.21484375 151.99609375 707.21484375 c 5
 107.03125 651.344726562 151.016601562 608.2265625 151.016601562 608.2265625 c 5
 140.1171875 585.654296875 l 5
 110.22265625 574.748046875 l 5
138.711914062 683.491210938 m 1030
237.401367188 629.0390625 m 5
 237.401367188 629.0390625 208.55078125 611.3515625 195.04296875 612.698242188 c 4
 167.951171875 615.395507812 137.88671875 660.918945312 137.88671875 660.918945312 c 6
 126.95703125 666.033203125 126.905273438 686.790039062 126.905273438 686.790039062 c 5
 182.7734375 641.829101562 203.923828125 669.833007812 203.923828125 669.833007812 c 5
 226.49609375 658.93359375 l 5
 237.401367188 629.0390625 l 5
150.62890625 673.5078125 m 1030
240.548828125 740.137695312 m 5
 240.548828125 740.137695312 231.115234375 707.543945312 220.182617188 699.473632812 c 4
 198.263671875 683.28515625 144.774414062 675.903320312 144.774414062 675.903320312 c 6
 133.205078125 672.37890625 119.12890625 687.844726562 119.12890625 687.844726562 c 5
 190.979492188 691.809570312 190.12109375 748.107421875 190.12109375 748.107421875 c 5
 214.235351562 755.135742188 l 5
 240.548828125 740.137695312 l 5
154.270507812 802.544921875 m 5
 154.270507812 802.544921875 174.384765625 775.21875 174.1328125 761.633789062 c 4
 173.629882812 734.388671875 145.704101562 693.864257812 145.704101562 693.864257812 c 6
 141.45703125 682.541992188 115.75390625 674.453125 115.75390625 674.453125 c 5
 156.354492188 733.866210938 116.033203125 765.809570312 116.033203125 765.809570312 c 5
 125.138671875 789.21875 l 5
 154.270507812 802.544921875 l 5
EndSplineSet
Validated: 37
EndChar

StartChar: bar
Encoding: 124 124 38
Width: 251
VWidth: 0
Flags: W
VStem: 57.4004 137.199<472.819 745.664> 77.5801 117.02<-95.3857 206.399>
LayerCount: 2
Fore
SplineSet
77.580078125 -95.3857421875 m 5x40
 57.400390625 774.604492188 l 5
 84.765625 801.478515625 l 5
 194.599609375 745.6640625 l 5x80
 194.599609375 -196.677734375 l 5
 99.826171875 -156.515625 l 5
 77.580078125 -95.3857421875 l 5x40
EndSplineSet
Validated: 1
EndChar

StartChar: percent
Encoding: 37 37 39
Width: 1007
VWidth: 0
HStem: 86.6289 96.3701<644.089 741.178> 327.112 94.2041<645.027 740.853> 386.863 96.4688<295.139 399.318> 630.245 91.3057<295.264 394.172>
VStem: 174.432 95.7246<507.623 604.865> 416.347 92.7725<500.323 607.998> 523.589 99.8271<203.676 304.748> 761.206 97.0703<203.021 305.323>
LayerCount: 2
Fore
SplineSet
850.565429688 772.24609375 m 1xbf
 703.598632812 648.412109375 337.96875 14.583984375 337.96875 14.583984375 c 1
 337.96875 14.583984375 210.995117188 -0.783203125 207.845703125 0.201171875 c 0
 186.090820312 6.7958984375 603.455078125 626.865234375 603.455078125 626.865234375 c 2
 607.1953125 629.227539062 611.1328125 631.491210938 615.0703125 633.854492188 c 1
 603.060546875 630.11328125 596.268554688 628.341796875 596.268554688 628.341796875 c 2
 526.083007812 608.850585938 506.340820312 650.752929688 476.612304688 655.280273438 c 1
 496.791992188 633.72265625 499.668945312 620.849609375 504.984375 591.12109375 c 0
 507.740234375 579.30859375 509.119140625 566.905273438 509.119140625 554.20703125 c 0
 509.119140625 461.774414062 434.208007812 386.86328125 341.775390625 386.86328125 c 0
 249.341796875 386.86328125 174.431640625 461.774414062 174.431640625 554.20703125 c 0
 174.431640625 646.639648438 249.341796875 721.55078125 341.775390625 721.55078125 c 0
 349.846679688 721.55078125 357.918945312 720.959960938 365.6953125 719.877929688 c 0
 379.377929688 718.10546875 392.470703125 714.758789062 404.775390625 710.034179688 c 0
 475.453125 689.165039062 739.036132812 739.466796875 814.635742188 757.776367188 c 0
 836.291992188 766.83203125 850.565429688 772.24609375 850.565429688 772.24609375 c 1xbf
341.775390625 630.245117188 m 0
 315 630.245117188 270.15625 600.599609375 270.15625 554.20703125 c 0
 270.15625 509.599609375 317.799804688 483.33203125 342.759765625 483.33203125 c 0
 375.200195312 483.33203125 416.346679688 498.400390625 416.346679688 555.388671875 c 0
 416.346679688 607.599609375 371 630.245117188 341.775390625 630.245117188 c 0
690.932617188 421.31640625 m 0xdf
 783.365234375 421.31640625 858.276367188 346.405273438 858.276367188 253.97265625 c 0
 858.276367188 161.540039062 783.365234375 86.62890625 690.932617188 86.62890625 c 0
 598.5 86.62890625 523.588867188 161.540039062 523.588867188 253.97265625 c 0
 523.588867188 346.405273438 598.5 421.31640625 690.932617188 421.31640625 c 0xdf
691.818359375 182.999023438 m 0
 732.200195312 182.999023438 761.206054688 215.599609375 761.206054688 255.055664062 c 0
 761.206054688 294 730.799804688 327.112304688 690.833984375 327.112304688 c 0
 655.200195312 327.112304688 623.416015625 291.200195312 623.416015625 253.874023438 c 0
 623.416015625 210 659.400390625 182.999023438 691.818359375 182.999023438 c 0
EndSplineSet
Validated: 33
EndChar

StartChar: hyphen
Encoding: 45 45 40
Width: 616
VWidth: 0
Flags: W
HStem: 279.158 122.193
LayerCount: 2
Fore
SplineSet
95.8388671875 288.1484375 m 5
 95.8388671875 288.1484375 68.615234375 389.166992188 68.3193359375 391.7265625 c 4
 66.44921875 409.642578125 534.46484375 401.3515625 534.46484375 401.3515625 c 5
 556.796875 365.400390625 544.079101562 279.158203125 544.079101562 279.158203125 c 5
 421.400390625 312.200195312 95.8388671875 288.1484375 95.8388671875 288.1484375 c 5
EndSplineSet
Validated: 33
EndChar

StartChar: quotedbl
Encoding: 34 34 41
Width: 322
VWidth: 0
Flags: W
HStem: 512.961 267.478
VStem: 16.3652 289.27
LayerCount: 2
Fore
SplineSet
83.7802734375 780.438476562 m 1
 83.7802734375 780.438476562 137.634765625 742.560546875 137.634765625 685.411132812 c 0
 137.634765625 648.234375 86.2890625 578.084960938 86.2890625 578.084960938 c 2
 72.1494140625 548.532226562 27.8232421875 512.9609375 27.8232421875 512.9609375 c 1
 99.50390625 646.239257812 23.2216796875 669.624023438 23.2216796875 669.624023438 c 1
 16.365234375 747.018554688 l 1
 83.7802734375 780.438476562 l 1
251.780273438 780.438476562 m 1
 251.780273438 780.438476562 305.634765625 742.560546875 305.634765625 685.411132812 c 0
 305.634765625 648.234375 254.2890625 578.084960938 254.2890625 578.084960938 c 2
 240.149414062 548.532226562 195.823242188 512.9609375 195.823242188 512.9609375 c 1
 267.50390625 646.239257812 191.221679688 669.624023438 191.221679688 669.624023438 c 1
 184.365234375 747.018554688 l 1
 251.780273438 780.438476562 l 1
EndSplineSet
Validated: 33
EndChar

StartChar: quotesingle
Encoding: 39 39 42
Width: 186
VWidth: 0
Flags: W
VStem: 17.3057 151.589
LayerCount: 2
Fore
SplineSet
101.575195312 789.348632812 m 1
 101.575195312 789.348632812 168.89453125 742 168.89453125 670.563476562 c 0
 168.89453125 624.092773438 104.709960938 536.40625 104.709960938 536.40625 c 2
 87.0361328125 499.46484375 31.6298828125 455 31.6298828125 455 c 1
 121.229492188 621.599609375 25.876953125 650.830078125 25.876953125 650.830078125 c 1
 17.3056640625 747.57421875 l 1
 101.575195312 789.348632812 l 1
EndSplineSet
Validated: 33
EndChar

StartChar: colon
Encoding: 58 58 43
Width: 210
VWidth: 0
Flags: W
HStem: 0.046875 144.02<67.998 143.403> 303.847 144.02<67.998 143.403>
VStem: 24.6982 160.604
LayerCount: 2
Fore
SplineSet
67.998046875 447.866210938 m 5
 143.403320312 447.866210938 l 5
 185.301757812 375.854492188 l 5
 143.403320312 303.846679688 l 5
 67.998046875 303.846679688 l 5
 24.6982421875 377.254882812 l 5
 67.998046875 447.866210938 l 5
67.998046875 144.06640625 m 5
 143.403320312 144.06640625 l 5
 185.301757812 72.0546875 l 5
 143.403320312 0.046875 l 5
 67.998046875 0.046875 l 5
 24.6982421875 73.455078125 l 5
 67.998046875 144.06640625 l 5
EndSplineSet
Validated: 1
EndChar

StartChar: semicolon
Encoding: 59 59 44
Width: 210
VWidth: 0
Flags: W
HStem: 303.847 144.02<67.998 143.403>
VStem: 24.876 160.426
LayerCount: 2
Fore
SplineSet
109.145507812 145.348632812 m 5
 109.145507812 145.348632812 176.463867188 98 176.463867188 26.5634765625 c 4
 176.463867188 -19.9072265625 112.280273438 -107.59375 112.280273438 -107.59375 c 6
 94.6064453125 -144.53515625 39.2001953125 -189 39.2001953125 -189 c 5
 128.799804688 -22.400390625 33.447265625 6.830078125 33.447265625 6.830078125 c 5
 24.8759765625 103.57421875 l 5
 109.145507812 145.348632812 l 5
67.998046875 447.866210938 m 1
 143.403320312 447.866210938 l 1
 185.301757812 375.854492188 l 1
 143.403320312 303.846679688 l 1
 67.998046875 303.846679688 l 1
 24.6982421875 377.254882812 l 1
 67.998046875 447.866210938 l 1
EndSplineSet
Validated: 33
EndChar

StartChar: one
Encoding: 49 49 45
Width: 420
VWidth: 0
Flags: W
HStem: 0.732422 78.6748<51.1357 127.979 323.562 394.79> 637.471 77.7861<100.307 142.544>
VStem: 159.176 133.72<115.606 623.035>
LayerCount: 2
Fore
SplineSet
53.7294921875 715.256835938 m 6
 80.0927734375 715.256835938 l 6
 137.321289062 715.256835938 190.728515625 734.10546875 240.172851562 771.66796875 c 5
 292.895507812 771.66796875 l 5
 292.895507812 212.309570312 l 6
 292.895507812 150.161132812 316.661132812 79.4072265625 364.055664062 79.4072265625 c 6
 394.790039062 79.4072265625 l 5
 394.790039062 0.732421875 l 5
 51.1357421875 0.732421875 l 5
 51.1357421875 79.4072265625 l 5
 86.783203125 79.4072265625 l 6
 135 79.4072265625 159.17578125 150.161132812 159.17578125 212.309570312 c 6
 159.17578125 542.951171875 l 6
 159.17578125 605.916992188 139.5078125 637.470703125 100.306640625 637.470703125 c 5
 100.306640625 637.470703125 36.9287109375 635.831054688 36.9287109375 611.245117188 c 6
 36.9287109375 611.245117188 -11.5595703125 715.256835938 53.7294921875 715.256835938 c 6
EndSplineSet
Validated: 33
EndChar

StartChar: two
Encoding: 50 50 46
Width: 574
VWidth: 0
Flags: W
HStem: 1.16895 125.659<274.582 405.8> 635.653 134.599<280.849 336.52>
LayerCount: 2
Fore
SplineSet
56.5869140625 574.395507812 m 0
 76.8671875 666.306640625 175.504882812 770.251953125 295.869140625 770.251953125 c 0
 355.657226562 770.251953125 407.033203125 750.017578125 449.869140625 709.4140625 c 0
 490.737304688 669.336914062 511.233398438 612.370117188 511.233398438 553.634765625 c 0
 511.233398438 372.400390625 424.262695312 285.551757812 391.9140625 252.046875 c 2
 333.173828125 191.202148438 l 2
 283.111328125 143.110351562 309.271484375 165.459960938 274.58203125 126.828125 c 1
 351.17578125 126.828125 l 2
 381.923828125 126.828125 391.515625 132.344726562 406.498046875 143.384765625 c 0
 419.8984375 154.423828125 434.615234375 178.598632812 450.778320312 216.049804688 c 1
 545.529296875 216.049804688 l 1
 486.53125 1.1689453125 l 1
 28.470703125 1.1689453125 l 1
 28.470703125 83.333984375 l 1
 51.33203125 108.95703125 111.647460938 174.544921875 183.2578125 246.2890625 c 0
 225.306640625 288.3359375 254.083984375 319.873046875 295.869140625 367.177734375 c 0
 316.762695312 390.0390625 332.224609375 409.81640625 343.041992188 426.17578125 c 0
 358.400390625 449.400390625 372.400390625 481.599609375 376.244140625 503.821289062 c 0
 382.225585938 538.391601562 377.473632812 569.782226562 356.1875 595.668945312 c 0
 336.081054688 620.501953125 310.799804688 635.599609375 280.848632812 635.653320312 c 1
 280.848632812 635.653320312 204.400390625 632.799804688 166.85546875 555.15234375 c 1
 166.85546875 555.15234375 145.599609375 511 156.796875 495.615234375 c 0
 165.716796875 483.359375 39.2001953125 495.599609375 56.5869140625 574.395507812 c 0
EndSplineSet
Validated: 33
EndChar

StartChar: three
Encoding: 51 51 47
Width: 588
VWidth: 0
Flags: W
LayerCount: 2
Fore
SplineSet
167.819335938 428.822265625 m 1
 270.200195312 418.599609375 361.250976562 510.797851562 357.344726562 580.544921875 c 0
 353.438476562 650.29296875 285.50390625 651.079101562 223.846679688 620.250976562 c 0
 162.189453125 589.420898438 123.200195312 564.200195312 114.024414062 507.118164062 c 0
 111.061523438 488.684570312 30.7998046875 557.200195312 60.546875 660.487304688 c 1
 60.546875 660.487304688 105.0078125 649.41796875 152.71484375 700.333984375 c 0
 213.396484375 764.78125 264.629882812 771.28515625 328.37890625 771.28515625 c 0
 392.12890625 771.28515625 495.076171875 734.319335938 501.21484375 639.6015625 c 0
 507.352539062 544.8828125 401.615234375 472.486328125 401.615234375 472.486328125 c 1
 401.615234375 472.486328125 583.518554688 452.259765625 556.733398438 256.823242188 c 0
 529.950195312 61.390625 359.34765625 -9.173828125 226.546875 1.1484375 c 0
 93.7470703125 11.470703125 44.783203125 45.5068359375 30.5556640625 59.73828125 c 0
 16.3271484375 73.9658203125 89.599609375 119 81.3310546875 205.19140625 c 1
 81.3310546875 205.19140625 149.963867188 122.28125 288.204101562 147.530273438 c 0
 358.373046875 160.346679688 410.264648438 188.470703125 410.264648438 258.77734375 c 0
 410.264648438 329.083007812 329.075195312 369.486328125 260.3046875 345.771484375 c 0
 164.33203125 312.712890625 167.819335938 428.822265625 167.819335938 428.822265625 c 1
EndSplineSet
Validated: 33
EndChar

StartChar: four
Encoding: 52 52 48
Width: 665
VWidth: 0
Flags: W
HStem: 0.0986328 70.4961<286.972 348.219 543.409 608.141>
VStem: 375.241 142.12<332.331 550.819>
LayerCount: 2
Fore
SplineSet
613.377929688 214.125976562 m 0
 628.748046875 160.830078125 566.145507812 214.125976562 517.080078125 214.125976562 c 1
 517.080078125 214.125976562 496.212890625 70.5947265625 594.91015625 70.5947265625 c 0
 617.46875 70.5947265625 615.212890625 36.7568359375 615.212890625 0.0986328125 c 1
 275.133789062 0.0986328125 l 1
 275.133789062 0.0986328125 270.622070312 67.775390625 296.001953125 67.775390625 c 0
 321.380859375 67.775390625 375.241210938 70.5947265625 375.241210938 214.125976562 c 1
 375.241210938 214.125976562 85.9208984375 214.125976562 52.08203125 214.125976562 c 0
 18.244140625 214.125976562 22.4736328125 234.1484375 30.9326171875 249.65625 c 2
 30.9326171875 249.65625 208.303710938 510.213867188 255.114257812 575.353515625 c 0
 334.069335938 685.329101562 375.098632812 747.225585938 400.336914062 764.28515625 c 0
 433.611328125 786.704101562 517.361328125 781.204101562 517.361328125 781.204101562 c 1
 517.361328125 630.340820312 517.361328125 403.33984375 517.361328125 358.22265625 c 0
 517.361328125 313.10546875 535.69140625 310.284179688 583.630859375 396.291992188 c 1
 640.02734375 396.291992188 l 1
 640.02734375 396.291992188 598.01171875 267.421875 613.377929688 214.125976562 c 0
375.241210938 324.947265625 m 1
 375.241210938 550.819335938 l 1
 224.66015625 324.947265625 l 2
 224.66015625 326.921875 375.241210938 324.947265625 375.241210938 324.947265625 c 1
EndSplineSet
Validated: 37
EndChar

StartChar: five
Encoding: 53 53 49
Width: 632
VWidth: 0
Flags: W
HStem: 609.312 162.116<430.181 555.388>
VStem: 423.65 158.853<216.422 353.168>
LayerCount: 2
Fore
SplineSet
52.888671875 158.087890625 m 1
 148.038085938 127.053710938 423.650390625 106.547851562 423.650390625 284.818359375 c 0
 423.650390625 483.732421875 142.43359375 341.447265625 142.43359375 341.447265625 c 5
 100.327148438 341.447265625 68.884765625 376.581054688 68.884765625 376.581054688 c 5
 71.6171875 516.025390625 100.463867188 761.447265625 174.561523438 761.447265625 c 0
 209.146484375 761.447265625 337.654296875 760.490234375 426.107421875 760.490234375 c 0
 514.55859375 760.490234375 503.484375 771.427734375 518.247070312 771.427734375 c 0
 533.012695312 771.427734375 604.786132812 771.427734375 604.786132812 771.427734375 c 1
 604.786132812 771.427734375 575.666992188 610.268554688 545.590820312 609.311523438 c 0
 515.514648438 608.493164062 327.512695312 618.471679688 283.765625 618.471679688 c 0
 240.017578125 618.471679688 228.26171875 509.30078125 228.26171875 509.30078125 c 5
 273.76953125 537.599609375 368.969726562 527.799804688 378.778320312 526.251953125 c 4
 467.903320312 512.189453125 580.725585938 463.224609375 582.502929688 274.565429688 c 0
 584.553710938 51.0439453125 377.848632812 11.259765625 336.423828125 5.9306640625 c 0
 192.87890625 -12.3896484375 31.5615234375 11.3984375 28.28125 42.568359375 c 0
 24.9990234375 73.73828125 52.888671875 158.087890625 52.888671875 158.087890625 c 1
EndSplineSet
Validated: 33
EndChar

StartChar: six
Encoding: 54 54 50
Width: 518
VWidth: 0
Flags: W
LayerCount: 2
Fore
SplineSet
489.866210938 332.254882812 m 0
 507.380859375 226.5390625 500.653320312 1.2578125 251.907226562 1.2578125 c 0
 -42.607421875 1.2578125 16.9267578125 375.087890625 62.8623046875 556.456054688 c 0
 113.400390625 756 292.34375 762.456054688 318.834960938 762.216796875 c 0
 541.799804688 760.200195312 452.719726562 564.287109375 452.719726562 564.287109375 c 1
 452.719726562 564.287109375 399 693 258.712890625 609.798828125 c 4
 156.052734375 548.913085938 170.318359375 441.211914062 170.318359375 441.211914062 c 1
 372.077148438 581.02734375 473.018554688 433.944335938 489.866210938 332.254882812 c 0
372.498046875 219.224609375 m 0
 380.061523438 342.469726562 274.022460938 442.595703125 168.530273438 303.248046875 c 1
 168.530273438 303.248046875 151.388671875 184.8984375 200.474609375 149.211914062 c 0
 249.428710938 113.525390625 366.662109375 122.64453125 372.498046875 219.224609375 c 0
EndSplineSet
Validated: 33
EndChar

StartChar: seven
Encoding: 55 55 51
Width: 539
VWidth: 0
Flags: W
HStem: 647.25 123.885<115.661 361.577>
VStem: 117.288 185.391<1.44824 172.38>
LayerCount: 2
Fore
SplineSet
22.951171875 579.47265625 m 2
 58.603515625 782.88671875 l 1
 100.262695312 782.88671875 l 1
 115.541992188 775.051757812 140.484375 771.134765625 175.352539062 771.134765625 c 2
 516.934570312 771.134765625 l 1
 516.934570312 687.080078125 l 1
 505.181640625 669.840820312 490.5546875 643.853515625 472.924804688 609.116210938 c 0
 439.623046875 543.8203125 394.094726562 452.845703125 366.017578125 366.131835938 c 0
 324.619140625 238.283203125 303.463867188 98.869140625 302.678710938 1.4482421875 c 1
 117.288085938 1.4482421875 l 1
 117.288085938 23.6494140625 l 2
 117.288085938 89.7275390625 138.05078125 198.973632812 179.44921875 297.963867188 c 0
 241.21875 446.184570312 313.51953125 575.032226562 366.799804688 654.822265625 c 2
 361.577148438 647.25 l 1
 185.930664062 647.25 l 2
 155.373046875 647.25 130.559570312 643.462890625 118.415039062 629.096679688 c 0
 89.1611328125 594.09765625 55.2080078125 540.5546875 83.9384765625 522.272460938 c 1
 83.9384765625 522.272460938 13.41796875 519.661132812 22.951171875 579.47265625 c 2
EndSplineSet
Validated: 33
EndChar

StartChar: nine
Encoding: 57 57 52
Width: 571
VWidth: 0
Flags: W
LayerCount: 2
Fore
SplineSet
125.443359375 0.3701171875 m 0
 -47.73828125 -0.634765625 76.5595703125 99.7373046875 61.1298828125 157.41796875 c 0
 49.4501953125 201.399414062 114.051757812 193.036132812 125.586914062 182.36328125 c 0
 137.123046875 171.692382812 204.286132812 134.928710938 307.916992188 180.939453125 c 0
 382.293945312 213.961914062 382.1796875 317.62890625 382.1796875 317.62890625 c 1
 157.516601562 230.244140625 38.7021484375 390.16015625 30.205078125 470.606445312 c 0
 14.4580078125 619.7109375 72.138671875 757.72265625 263.088867188 772.286132812 c 0
 518.009765625 791.728515625 589.7265625 511.372070312 516.034179688 209.604492188 c 0
 459.377929688 -22.400390625 249.713867188 1.0927734375 125.443359375 0.3701171875 c 0
175.270507812 549.930664062 m 0
 175.270507812 415.536132812 281.9609375 420.16796875 380.737304688 476.40625 c 1
 380.737304688 476.40625 397.177734375 573.884765625 343.823242188 612.674804688 c 0
 290.612304688 651.46484375 175.270507812 634.430664062 175.270507812 549.930664062 c 0
EndSplineSet
Validated: 33
EndChar

StartChar: eight
Encoding: 56 56 53
Width: 590
VWidth: 0
Flags: W
HStem: 0.448242 21G<261.75 330.579> 673.021 99.2812<216.395 368.725>
VStem: 24.9512 130.565<171.22 288.785> 55.4014 119.722<551.929 634.205> 421.518 111.375<521.879 624.591> 441.816 124.032<165.89 256.599>
LayerCount: 2
Fore
SplineSet
156.630859375 407.162109375 m 1xe4
 107.405273438 440.811523438 102.678710938 454.298828125 86.689453125 475.573242188 c 0
 65.830078125 502.966796875 55.4013671875 534.530273438 55.4013671875 570.266601562 c 0
 55.4013671875 630.47265625 80.986328125 679.974609375 132.158203125 718.907226562 c 0
 179.295898438 754.505859375 234.356445312 772.302734375 297.485351562 772.302734375 c 0
 356.440429688 772.302734375 408.723632812 756.590820312 454.192382812 725.026367188 c 0
 506.614257812 689.84765625 532.892578125 643.544921875 532.892578125 586.1171875 c 0xd8
 532.892578125 516.037109375 520.1015625 463.059570312 439.03515625 426.907226562 c 1
 532.892578125 381.439453125 565.848632812 311.63671875 565.848632812 217.362304688 c 0
 565.848632812 149.78515625 525.525390625 95.6953125 472.684570312 55.09375 c 0
 425.1328125 18.662109375 366.036132812 0.4482421875 295.12109375 0.4482421875 c 0
 228.37890625 0.4482421875 170.8125 17.271484375 122.423828125 50.783203125 c 0
 66.6650390625 89.2978515625 24.951171875 140.329101562 24.951171875 203.735351562 c 0
 24.951171875 266.862304688 40.802734375 332.7734375 100.176757812 373.65234375 c 0
 115.333007812 384.498046875 134.1015625 395.622070312 156.630859375 407.162109375 c 1xe4
253.267578125 339.86328125 m 1
 188.193359375 309.967773438 155.516601562 275.901367188 155.516601562 239.053710938 c 0
 155.516601562 194.002929688 169.701171875 175.231445312 197.924804688 149.505859375 c 0
 225.319335938 122.810546875 254.936523438 117.38671875 317.5078125 123.505859375 c 0
 355.88671875 127.2578125 370.208007812 131.291992188 402.466796875 152.009765625 c 0
 430.415039062 169.947265625 441.81640625 186.911132812 441.81640625 211.383789062 c 0xe4
 441.81640625 253.514648438 403.717773438 274.373046875 327.520507812 310.385742188 c 2
 253.267578125 339.86328125 l 1
337.393554688 475.852539062 m 1
 393.56640625 500.881835938 421.517578125 541.482421875 421.517578125 565.954101562 c 0
 421.517578125 602.802734375 408.86328125 618.23828125 383.6953125 640.206054688 c 0
 358.525390625 662.17578125 327.520507812 673.021484375 290.670898438 673.021484375 c 0
 260.359375 673.021484375 234.077148438 664.819335938 211.969726562 648.412109375 c 0
 187.360351562 630.751953125 175.123046875 605.028320312 175.123046875 590.984375 c 0xd8
 175.123046875 569.430664062 192.783203125 551.35546875 227.9609375 528.411132812 c 0
 234.49609375 523.963867188 267.033203125 507.97265625 325.711914062 480.440429688 c 2
 337.393554688 475.852539062 l 1
EndSplineSet
Validated: 33
EndChar

StartChar: asciitilde
Encoding: 126 126 54
Width: 907
VWidth: 0
Flags: W
LayerCount: 2
Fore
SplineSet
790.650390625 438.1015625 m 4
 555.581054688 302.947265625 554.400390625 214.200195312 385.416015625 300.419921875 c 4
 226.5390625 381.483398438 115.466796875 294.732421875 116.549804688 294.732421875 c 4
 117.6328125 294.732421875 116.549804688 405.825195312 116.549804688 405.825195312 c 5
 116.549804688 405.825195312 210.119140625 495.4609375 343.416015625 441.634765625 c 4
 480.200195312 386.400390625 529.495117188 339.958984375 790.650390625 438.1015625 c 4
EndSplineSet
Validated: 37
EndChar

StartChar: numbersign
Encoding: 35 35 56
Width: 721
VWidth: 0
Flags: W
HStem: 181.899 108.831<57.3542 112.738 242.847 407.775 536.833 677.922> 431.97 109.832<57.3674 155.49 295.924 450.237 589.747 677.939>
LayerCount: 2
Fore
SplineSet
535.370117188 733.727539062 m 1
 649.259765625 744.42578125 l 1
 649.259765625 744.42578125 623.495117188 694.200195312 619.96484375 682.52734375 c 2
 617.603515625 674.708007812 l 1
 589.747070312 542.254882812 l 1
 643.188476562 541.794921875 677.96484375 541.3515625 677.96484375 541.3515625 c 1
 700.296875 505.400390625 687.579101562 419.158203125 687.579101562 419.158203125 c 1
 661.6796875 426.133789062 618.625 430.564453125 566.813476562 433.21484375 c 1
 536.833007812 290.6640625 l 1
 619.091796875 290.102539062 677.96484375 289.3515625 677.96484375 289.3515625 c 1
 700.296875 253.400390625 687.579101562 167.158203125 687.579101562 167.158203125 c 1
 653.327148438 176.3828125 589.07421875 181.158203125 514.241210938 183.248046875 c 1
 479.635742188 18.7060546875 l 2
 473.430664062 -3.3662109375 453.751953125 -17.8017578125 430.977539062 -18.873046875 c 2
 371.717773438 -21.6591796875 l 1
 371.717773438 -21.6591796875 375.78125 -12.4140625 379.42578125 16.4853515625 c 2
 407.775390625 184.600585938 l 1
 342.931640625 184.616210938 276.932617188 183.407226562 219.958007812 181.899414062 c 1
 185.635742188 18.7060546875 l 2
 179.430664062 -3.3662109375 159.751953125 -17.8017578125 136.977539062 -18.873046875 c 2
 77.7177734375 -21.6591796875 l 1
 77.7177734375 -21.6591796875 81.78125 -12.4140625 85.42578125 16.4853515625 c 2
 112.73828125 178.447265625 l 1
 78.3017578125 177.141601562 57.3388671875 176.1484375 57.3388671875 176.1484375 c 2
 57.3388671875 176.1484375 30.115234375 277.166992188 29.8193359375 279.7265625 c 0
 29.349609375 284.231445312 70.0908203125 287.079101562 131.349609375 288.818359375 c 1
 155.490234375 431.969726562 l 1
 96.4091796875 430 57.3388671875 428.1484375 57.3388671875 428.1484375 c 2
 57.3388671875 428.1484375 30.115234375 529.166992188 29.8193359375 531.7265625 c 0
 29.2470703125 537.2109375 89.7587890625 540.239257812 174.010742188 541.801757812 c 1
 199.98828125 695.846679688 l 2
 205.922851562 742.908203125 241.370117188 733.727539062 241.370117188 733.727539062 c 1
 355.259765625 744.42578125 l 1
 355.259765625 744.42578125 329.495117188 694.200195312 325.96484375 682.52734375 c 2
 323.603515625 674.708007812 l 1
 295.923828125 543.09765625 l 1
 353.357421875 543.369140625 413.301757812 543.286132812 468.221679688 543.048828125 c 1
 493.98828125 695.846679688 l 2
 499.922851562 742.908203125 535.370117188 733.727539062 535.370117188 733.727539062 c 1
273.219726562 435.147460938 m 1
 242.846679688 290.73046875 l 1
 301.327148438 291.275390625 365.295898438 291.3515625 425.750976562 291.1953125 c 1
 450.237304688 436.403320312 l 1
 391.458007812 436.954101562 329.8046875 436.294921875 273.219726562 435.147460938 c 1
EndSplineSet
Validated: 33
EndChar

StartChar: braceleft
Encoding: 123 123 57
Width: 347
VWidth: 0
Flags: W
VStem: 29.1475 288.761
LayerCount: 2
Fore
SplineSet
317.908203125 656.841796875 m 1
 319.84375 660.799804688 301.643554688 672 301.643554688 672 c 0
 297.888671875 673.87890625 258.681640625 522.704101562 258.681640625 522.704101562 c 0
 238.764648438 445.758789062 l 1
 262.444335938 418.599609375 263.155273438 386.149414062 264.041015625 383.984375 c 1
 251.244140625 418.599609375 225.759765625 406.286132812 225.759765625 406.286132812 c 1
 193.1328125 308.307617188 l 2
 190.770507812 292.262695312 234.499023438 206.512695312 248.280273438 206.315429688 c 1
 248.991210938 116.6171875 l 1
 286.965820312 33.21875 l 1
 315.939453125 53.8681640625 l 1
 287.939453125 -189.458007812 l 1
 29.1474609375 329.537109375 l 1
 302.092773438 806.0078125 l 1
 317.908203125 656.841796875 l 1
EndSplineSet
Validated: 37
EndChar

StartChar: braceright
Encoding: 125 125 58
Width: 347
VWidth: 0
Flags: W
VStem: 29.292 16.2637<667.522 672>
LayerCount: 2
Fore
SplineSet
29.2919921875 656.841796875 m 1
 27.3564453125 660.799804688 45.5556640625 672 45.5556640625 672 c 0
 49.3115234375 673.87890625 88.5185546875 522.704101562 88.5185546875 522.704101562 c 0
 108.435546875 445.758789062 l 1
 84.755859375 418.599609375 84.044921875 386.149414062 83.1591796875 383.984375 c 1
 95.9560546875 418.599609375 121.440429688 406.286132812 121.440429688 406.286132812 c 1
 154.067382812 308.307617188 l 2
 156.4296875 292.262695312 112.701171875 206.512695312 98.919921875 206.315429688 c 1
 98.208984375 116.6171875 l 1
 60.234375 33.21875 l 1
 31.2607421875 53.8681640625 l 1
 59.2607421875 -189.458007812 l 1
 318.052734375 329.537109375 l 1
 45.107421875 806.0078125 l 1
 29.2919921875 656.841796875 l 1
EndSplineSet
Validated: 37
EndChar

StartChar: underscore
Encoding: 95 95 59
Width: 1037
VWidth: 0
Flags: W
HStem: -195.887 193.386
LayerCount: 2
Fore
SplineSet
143.63671875 -195.88671875 m 1
 143.63671875 -195.88671875 16.849609375 -51.62109375 16.357421875 -46.69921875 c 0
 12.025390625 -13.1318359375 1021.89648438 -2.5009765625 1021.89648438 -2.5009765625 c 1
 958.896484375 -106.155273438 958.896484375 -197.155273438 958.896484375 -197.155273438 c 1
 495.599609375 -148.400390625 143.63671875 -195.88671875 143.63671875 -195.88671875 c 1
EndSplineSet
Validated: 33
EndChar

StartChar: asciicircum
Encoding: 94 94 60
Width: 312
VWidth: 0
Flags: W
HStem: 609.763 193.788
VStem: 31.9062 248.35
LayerCount: 2
Fore
SplineSet
198.26171875 627.3125 m 5
 198.26171875 627.3125 191.08203125 640.919921875 161.08203125 678.033203125 c 5
 128.849609375 648.5390625 120.920898438 632 120.920898438 632 c 5
 120.920898438 632 32.888671875 615.43359375 31.90625 615.969726562 c 4
 25.6103515625 619.408203125 143.266601562 777.518554688 159.96484375 799.887695312 c 4
 160.545898438 801.049804688 161.126953125 802.254882812 161.751953125 803.55078125 c 6
 161.751953125 803.55078125 287.266601562 613.067382812 280.255859375 609.762695312 c 4
 279.228515625 609.272460938 198.26171875 627.3125 198.26171875 627.3125 c 5
EndSplineSet
Validated: 33
EndChar

StartChar: less
Encoding: 60 60 61
Width: 482
VWidth: 0
Flags: W
LayerCount: 2
Fore
SplineSet
421.873046875 268.373046875 m 5
 421.873046875 268.373046875 317.799804688 284.200195312 235.979492188 350.338867188 c 5
 301 421.400390625 411.537109375 438.877929688 411.537109375 438.877929688 c 5
 411.537109375 438.877929688 448.057617188 632.953125 446.875976562 635.119140625 c 4
 439.296875 648.998046875 90.7294921875 389.615234375 41.412109375 352.799804688 c 4
 38.8525390625 351.520507812 36.1953125 350.240234375 33.33984375 348.862304688 c 6
 33.33984375 348.862304688 453.274414062 72.154296875 460.55859375 87.609375 c 4
 461.641601562 89.873046875 421.873046875 268.373046875 421.873046875 268.373046875 c 5
EndSplineSet
Validated: 41
EndChar

StartChar: greater
Encoding: 62 62 62
Width: 482
VWidth: 0
Flags: W
LayerCount: 2
Fore
SplineSet
66.587890625 268.373046875 m 1
 66.587890625 268.373046875 170.66015625 284.200195312 252.481445312 350.338867188 c 1
 187.4609375 421.400390625 76.923828125 438.877929688 76.923828125 438.877929688 c 1
 76.923828125 438.877929688 40.4033203125 632.953125 41.583984375 635.119140625 c 0
 49.1640625 648.998046875 397.731445312 389.615234375 447.048828125 352.799804688 c 0
 449.607421875 351.520507812 452.265625 350.240234375 455.120117188 348.862304688 c 2
 455.120117188 348.862304688 35.185546875 72.154296875 27.9013671875 87.609375 c 0
 26.818359375 89.873046875 66.587890625 268.373046875 66.587890625 268.373046875 c 1
EndSplineSet
Validated: 33
EndChar

StartChar: equal
Encoding: 61 61 63
Width: 686
VWidth: 0
Flags: W
HStem: 164.828 262.653
LayerCount: 2
Fore
SplineSet
532.124023438 279.168945312 m 5
 569.799804688 280 580.577148438 263.572265625 580.647460938 263.669921875 c 5
 590.799804688 204.400390625 580.422851562 164.828125 580.422851562 164.828125 c 5
 354.200195312 222.599609375 27.1357421875 167.693359375 27.1357421875 167.693359375 c 5
 27.1357421875 167.693359375 25.9560546875 253.8046875 25.611328125 257.643554688 c 4
 23.2001953125 284.517578125 467.599609375 277.200195312 467.599609375 277.200195312 c 6
 467.806640625 277.002929688 464.6328125 277 464.918945312 276.9921875 c 4
 508.200195312 275.799804688 532.124023438 279.168945312 532.124023438 279.168945312 c 5
602.124023438 400.96875 m 5
 628.171875 377.934570312 636.577148438 371.372070312 636.647460938 371.470703125 c 5
 574 387.799804688 580.422851562 314.627929688 580.422851562 314.627929688 c 5
 354.200195312 372.400390625 27.1357421875 317.494140625 27.1357421875 317.494140625 c 5
 27.1357421875 317.494140625 25.9560546875 403.604492188 25.611328125 407.443359375 c 4
 23.2001953125 434.317382812 534.297851562 427.481445312 534.297851562 427.481445312 c 6
 534.504882812 427.284179688 534.6328125 426.80078125 534.918945312 426.791992188 c 4
 578.200195312 425.599609375 602.124023438 400.96875 602.124023438 400.96875 c 5
EndSplineSet
Validated: 37
EndChar

StartChar: plus
Encoding: 43 43 64
Width: 560
VWidth: 0
Flags: W
HStem: 310.681 109.199<95.8809 227.674 345.271 500.223>
VStem: 228.938 116.334<163.131 310.681 419.906 566.314>
LayerCount: 2
Fore
SplineSet
95.8388671875 302.1484375 m 2
 95.8388671875 302.1484375 40.615234375 405.966796875 40.3193359375 408.526367188 c 0
 39.501953125 416.359375 128.500976562 419.182617188 228.9375 419.879882812 c 1
 227.638671875 501.018554688 222.348632812 566.361328125 222.348632812 566.361328125 c 1
 222.348632812 566.361328125 337.3671875 621.584960938 339.926757812 621.879882812 c 0
 348.10546875 622.734375 347.905273438 525.668945312 345.271484375 419.90625 c 1
 433.481445312 419.444335938 506.46484375 418.151367188 506.46484375 418.151367188 c 0
 528.796875 382.200195312 502.079101562 293.158203125 502.079101562 293.158203125 c 1
 462.796875 305.8046875 403.349609375 310.8984375 341.9609375 312.111328125 c 1
 338.901367188 226.077148438 335.551757812 155.735351562 335.551757812 155.735351562 c 0
 299.599609375 133.403320312 200.7578125 146.12109375 200.7578125 146.12109375 c 1
 217.154296875 183.025390625 224.744140625 245.258789062 227.673828125 310.680664062 c 1
 153.499023438 307.754882812 95.8388671875 302.1484375 95.8388671875 302.1484375 c 2
EndSplineSet
Validated: 33
EndChar

StartChar: ampersand
Encoding: 38 38 65
Width: 711
VWidth: 0
Flags: W
HStem: 670.41 108.359<295.917 436.37>
LayerCount: 2
Fore
SplineSet
653.177734375 735.526367188 m 4
 721.21875 655.89453125 672.935546875 502.98046875 584.936523438 441.59375 c 4
 497.240234375 380.10546875 477.483398438 325.270507812 523.547851562 241.909179688 c 4
 569.614257812 158.546875 548.446289062 21.0556640625 402.892578125 -1.6240234375 c 4
 368.216796875 -7.0673828125 319.83203125 -5.4541015625 269.23046875 4.423828125 c 5
 240.40234375 -60.2900390625 229.01171875 -83.5966796875 220.845703125 -129.360351562 c 4
 209.456054688 -192.86328125 227.5 -271.9921875 214.293945312 -263.221679688 c 4
 201.08984375 -254.453125 124.380859375 -193.06640625 119.946289062 -179.860351562 c 4
 115.612304688 -166.65625 122.1640625 -109.077148438 150.690429688 -27.9326171875 c 4
 156.234375 -12.0068359375 165.5078125 8.5556640625 177.200195312 31.841796875 c 5
 102.204101562 63.08984375 38.5 115.505859375 27.814453125 193.625 c 4
 5.8408203125 353.796875 181.231445312 486.954101562 181.231445312 486.954101562 c 5
 166.515625 507.416992188 149.48046875 544.9140625 144.943359375 571.020507812 c 4
 140.409179688 597.126953125 156.334960938 666.377929688 177.90625 691.375976562 c 4
 199.4765625 716.2734375 252.799804688 778.76953125 358.438476562 778.76953125 c 4
 432.223632812 778.76953125 464.077148438 762.84375 491.29296875 752.663085938 c 4
 518.508789062 742.481445312 538.971679688 711.737304688 544.616210938 692.484375 c 4
 550.362304688 673.231445312 568.506835938 635.734375 538.971679688 623.235351562 c 4
 509.4375 610.736328125 492.704101562 598.639648438 472.241210938 613.35546875 c 4
 451.879882812 628.073242188 435.651367188 670.41015625 367.510742188 670.41015625 c 4
 299.370117188 670.41015625 268.122070312 637.24609375 268.122070312 578.177734375 c 4
 268.122070312 519.108398438 359.245117188 433.025390625 389.887695312 430.708007812 c 5
 306.526367188 406.515625 153.209960938 358.8359375 163.89453125 257.33203125 c 4
 170.043945312 198.967773438 180.526367188 155.624023438 230.624023438 129.8203125 c 5
 274.9765625 206.427734375 325.678710938 286.16015625 354.809570312 327.48828125 c 4
 407.528320312 402.080078125 515.08203125 507.416992188 565.482421875 553.481445312 c 4
 615.8828125 599.546875 585.23828125 693.895507812 580.8046875 702.666015625 c 4
 576.368164062 711.435546875 625.557617188 767.883789062 653.177734375 735.526367188 c 4
323.662109375 105.9296875 m 5
 439.482421875 96.0517578125 430.006835938 256.625 394.32421875 208.947265625 c 4
 366.30078125 171.55078125 343.016601562 137.37890625 323.662109375 105.9296875 c 5
EndSplineSet
Validated: 33
EndChar

StartChar: grave
Encoding: 96 96 66
Width: 246
VWidth: 0
Flags: W
VStem: 33.4248 179.55
LayerCount: 2
Fore
SplineSet
39.51953125 778.684570312 m 5
 39.51953125 778.684570312 92.4736328125 801.377929688 135.029296875 775.1171875 c 4
 162.711914062 758.033203125 191.348632812 687.5625 191.348632812 687.5625 c 6
 206.858398438 663.454101562 212.974609375 614.102539062 212.974609375 614.102539062 c 5
 146.671875 728.723632812 94.20703125 682.66796875 94.20703125 682.66796875 c 5
 33.4248046875 713.127929688 l 5
 39.51953125 778.684570312 l 5
EndSplineSet
Validated: 33
EndChar

StartChar: sterling
Encoding: 163 163 67
Width: 453
VWidth: 0
Flags: W
HStem: -0.314453 21G<225.717 234.63>
VStem: 177.482 0.197266<314.292 349.139>
LayerCount: 2
Fore
SplineSet
135.3515625 357.30859375 m 2
 125.212890625 312.563476562 l 1
 164.587890625 268.16796875 l 1
 170.690429688 274.271484375 l 1
 170.690429688 126.276367188 l 1
 22.2470703125 431.213867188 l 1
 173.052734375 769.26953125 l 1
 172.265625 735.604492188 l 1
 182.404296875 719.4609375 185.948242188 709.813476562 185.948242188 709.813476562 c 2
 176.892578125 722.90625 167.419921875 712.373046875 167.419921875 712.373046875 c 1
 124.46875 554.763671875 l 1
 142.581054688 544.526367188 150.806640625 517.26953125 151.396484375 515.891601562 c 1
 141.2578125 533.01953125 118.442382812 529.235351562 118.442382812 529.235351562 c 1
 104.048828125 458.502929688 l 2
 102.276367188 448.265625 107.001953125 437.04296875 117.435546875 436.9453125 c 2
 144.2109375 436.649414062 l 1
 185.653320312 442.260742188 141.947265625 465.4921875 141.947265625 465.4921875 c 1
 174.333007812 458.010742188 181.715820312 426.018554688 181.715820312 426.018554688 c 1
 184.668945312 432.0234375 176.892578125 456.6328125 176.6953125 457.321289062 c 1
 190.377929688 449.446289062 200.3203125 432.810546875 200.911132812 431.727539062 c 1
 172.659179688 482.81640625 182.798828125 510.87109375 182.798828125 510.87109375 c 1
 184.799804688 532 226.012695312 548.190429688 226.012695312 548.190429688 c 1
 256.200195312 561.400390625 255.630859375 581.14453125 255.630859375 581.14453125 c 1
 253.400390625 604.799804688 226.012695312 602.6484375 226.012695312 602.6484375 c 1
 186.932617188 605.20703125 182.798828125 566.32421875 182.798828125 566.32421875 c 1
 182.798828125 566.32421875 174.978515625 584.852539062 174.978515625 585.935546875 c 0
 174.978515625 587.018554688 181.081054688 605.130859375 181.081054688 605.130859375 c 1
 180.096679688 622.422851562 l 1
 194.020507812 641.203125 l 1
 186.932617188 674.573242188 202.091796875 687.665039062 202.091796875 687.665039062 c 2
 199.041015625 661.3828125 216.015625 646.802734375 216.015625 646.802734375 c 1
 246.333984375 636.6640625 265.78125 659.578125 265.78125 659.578125 c 1
 266.765625 652.490234375 262.729492188 641.203125 256.724609375 638.25 c 0
 234.379882812 627.02734375 235.626953125 620.0390625 235.626953125 620.0390625 c 1
 280 610.400390625 277.888671875 574.560546875 277.888671875 574.560546875 c 1
 278.873046875 542.2734375 235.462890625 526.03125 226.111328125 521.995117188 c 0
 186.341796875 504.768554688 226.111328125 474.547851562 226.111328125 474.547851562 c 1
 242.057617188 455.352539062 251.606445312 425.034179688 251.606445312 425.034179688 c 1
 252.590820312 444.229492188 274.837890625 457.321289062 274.837890625 457.321289062 c 2
 258.693359375 431.0390625 268.734375 421.982421875 268.734375 421.982421875 c 1
 287.634765625 462.341796875 307.912109375 466.279296875 307.912109375 466.279296875 c 1
 279.661132812 443.047851562 303.088867188 437.141601562 303.088867188 437.141601562 c 1
 329.864257812 437.141601562 l 2
 343.841796875 437.141601562 354.080078125 450.430664062 350.338867188 464.015625 c 2
 334.807617188 521.831054688 l 2
 326.833984375 539.74609375 297.7734375 518.243164062 297.083984375 517.456054688 c 1
 311.751953125 547.282226562 323.673828125 558.799804688 323.673828125 558.799804688 c 1
 283.325195312 712.701171875 l 6
 277.221679688 721.7578125 265.78125 707.844726562 265.78125 707.844726562 c 1
 265.78125 722.01953125 277.888671875 737.1796875 277.888671875 737.1796875 c 1
 278.676757812 771.435546875 l 1
 431.353515625 428.260742188 l 1
 300.923828125 163.2890625 l 1
 294.8203125 180.416992188 l 1
 288.716796875 176.380859375 l 1
 280.645507812 187.50390625 l 1
 280.645507812 277.125976562 l 1
 291.768554688 268.0703125 l 1
 299.840820312 275.157226562 l 1
 300.825195312 283.229492188 l 1
 321.989257812 309.51171875 l 1
 316.96875 325.907226562 l 1
 328.091796875 330.927734375 l 1
 316.96875 346.086914062 l 1
 316.96875 357.2109375 l 1
 283.598632812 351.107421875 275.231445312 313.40625 275.231445312 313.40625 c 1
 275.526367188 347.169921875 l 1
 259.3828125 343.133789062 248.259765625 316.8515625 248.259765625 316.8515625 c 1
 257.315429688 247.157226562 l 1
 228.637695312 178.448242188 l 1
 242.517578125 138.088867188 l 1
 211.411132812 89.55859375 l 1
 226.40625 54.044921875 l 1
 257.216796875 70.36328125 l 1
 225.716796875 -0.314453125 l 1
 225.716796875 -0.314453125 184.865234375 85.62109375 181.715820312 89.55859375 c 0
 184.078125 91.52734375 207.801757812 138.088867188 207.801757812 138.088867188 c 1
 190.673828125 174.412109375 l 1
 211.815429688 241.0546875 l 1
 211.716796875 256.213867188 l 2
 213.489257812 320.88671875 177.482421875 349.138671875 177.482421875 349.138671875 c 1
 177.6796875 314.291992188 l 1
 168.918945312 355.930664062 136.434570312 357.30859375 135.3515625 357.30859375 c 2
EndSplineSet
Validated: 33
EndChar

StartChar: yen
Encoding: 165 165 68
Width: 453
VWidth: 0
Flags: W
HStem: -0.314453 21G<225.717 234.63>
VStem: 177.482 0.197266<314.292 349.139>
LayerCount: 2
Fore
SplineSet
135.3515625 357.30859375 m 2
 125.212890625 312.563476562 l 1
 164.587890625 268.16796875 l 1
 170.690429688 274.271484375 l 1
 170.690429688 126.276367188 l 1
 22.2470703125 431.213867188 l 1
 173.052734375 769.26953125 l 1
 172.265625 735.604492188 l 1
 182.404296875 719.4609375 185.948242188 709.813476562 185.948242188 709.813476562 c 2
 176.892578125 722.90625 167.419921875 712.373046875 167.419921875 712.373046875 c 1
 124.46875 554.763671875 l 1
 142.581054688 544.526367188 150.806640625 517.26953125 151.396484375 515.891601562 c 1
 141.2578125 533.01953125 118.442382812 529.235351562 118.442382812 529.235351562 c 1
 104.048828125 458.502929688 l 2
 102.276367188 448.265625 107.001953125 437.04296875 117.435546875 436.9453125 c 2
 144.2109375 436.649414062 l 1
 185.653320312 442.260742188 141.947265625 465.4921875 141.947265625 465.4921875 c 1
 174.333007812 458.010742188 181.715820312 426.018554688 181.715820312 426.018554688 c 1
 184.668945312 432.0234375 176.892578125 456.6328125 176.6953125 457.321289062 c 1
 190.377929688 449.446289062 200.3203125 432.810546875 200.911132812 431.727539062 c 1
 172.659179688 482.81640625 182.798828125 510.87109375 182.798828125 510.87109375 c 1
 184.799804688 532 226.012695312 548.190429688 226.012695312 548.190429688 c 1
 256.200195312 561.400390625 255.630859375 581.14453125 255.630859375 581.14453125 c 1
 253.400390625 604.799804688 226.012695312 602.6484375 226.012695312 602.6484375 c 1
 186.932617188 605.20703125 182.798828125 566.32421875 182.798828125 566.32421875 c 1
 182.798828125 566.32421875 174.978515625 584.852539062 174.978515625 585.935546875 c 0
 174.978515625 587.018554688 181.081054688 605.130859375 181.081054688 605.130859375 c 1
 180.096679688 622.422851562 l 1
 194.020507812 641.203125 l 1
 186.932617188 674.573242188 202.091796875 687.665039062 202.091796875 687.665039062 c 2
 199.041015625 661.3828125 216.015625 646.802734375 216.015625 646.802734375 c 1
 246.333984375 636.6640625 265.78125 659.578125 265.78125 659.578125 c 1
 266.765625 652.490234375 262.729492188 641.203125 256.724609375 638.25 c 0
 234.379882812 627.02734375 235.626953125 620.0390625 235.626953125 620.0390625 c 1
 280 610.400390625 277.888671875 574.560546875 277.888671875 574.560546875 c 1
 278.873046875 542.2734375 235.462890625 526.03125 226.111328125 521.995117188 c 0
 186.341796875 504.768554688 226.111328125 474.547851562 226.111328125 474.547851562 c 1
 242.057617188 455.352539062 251.606445312 425.034179688 251.606445312 425.034179688 c 1
 252.590820312 444.229492188 274.837890625 457.321289062 274.837890625 457.321289062 c 2
 258.693359375 431.0390625 268.734375 421.982421875 268.734375 421.982421875 c 1
 287.634765625 462.341796875 307.912109375 466.279296875 307.912109375 466.279296875 c 1
 279.661132812 443.047851562 303.088867188 437.141601562 303.088867188 437.141601562 c 1
 329.864257812 437.141601562 l 2
 343.841796875 437.141601562 354.080078125 450.430664062 350.338867188 464.015625 c 2
 334.807617188 521.831054688 l 2
 326.833984375 539.74609375 297.7734375 518.243164062 297.083984375 517.456054688 c 1
 311.751953125 547.282226562 323.673828125 558.799804688 323.673828125 558.799804688 c 1
 283.325195312 712.701171875 l 2
 277.221679688 721.7578125 265.78125 707.844726562 265.78125 707.844726562 c 1
 265.78125 722.01953125 277.888671875 737.1796875 277.888671875 737.1796875 c 1
 278.676757812 771.435546875 l 1
 431.353515625 428.260742188 l 1
 300.923828125 163.2890625 l 1
 294.8203125 180.416992188 l 1
 288.716796875 176.380859375 l 1
 280.645507812 187.50390625 l 1
 280.645507812 277.125976562 l 1
 291.768554688 268.0703125 l 1
 299.840820312 275.157226562 l 1
 300.825195312 283.229492188 l 1
 321.989257812 309.51171875 l 1
 316.96875 325.907226562 l 1
 328.091796875 330.927734375 l 1
 316.96875 346.086914062 l 1
 316.96875 357.2109375 l 1
 283.598632812 351.107421875 275.231445312 313.40625 275.231445312 313.40625 c 1
 275.526367188 347.169921875 l 1
 259.3828125 343.133789062 248.259765625 316.8515625 248.259765625 316.8515625 c 1
 257.315429688 247.157226562 l 1
 228.637695312 178.448242188 l 1
 242.517578125 138.088867188 l 1
 211.411132812 89.55859375 l 1
 226.40625 54.044921875 l 1
 257.216796875 70.36328125 l 1
 225.716796875 -0.314453125 l 1
 225.716796875 -0.314453125 184.865234375 85.62109375 181.715820312 89.55859375 c 0
 184.078125 91.52734375 207.801757812 138.088867188 207.801757812 138.088867188 c 1
 190.673828125 174.412109375 l 1
 211.815429688 241.0546875 l 1
 211.716796875 256.213867188 l 2
 213.489257812 320.88671875 177.482421875 349.138671875 177.482421875 349.138671875 c 1
 177.6796875 314.291992188 l 1
 168.918945312 355.930664062 136.434570312 357.30859375 135.3515625 357.30859375 c 2
EndSplineSet
Validated: 33
EndChar

StartChar: cent
Encoding: 162 162 69
Width: 453
VWidth: 0
Flags: W
HStem: -0.314453 21G<225.717 234.63>
VStem: 177.482 0.197266<314.292 349.139>
LayerCount: 2
Fore
SplineSet
135.3515625 357.30859375 m 2
 125.212890625 312.563476562 l 1
 164.587890625 268.16796875 l 1
 170.690429688 274.271484375 l 1
 170.690429688 126.276367188 l 1
 22.2470703125 431.213867188 l 1
 173.052734375 769.26953125 l 1
 172.265625 735.604492188 l 1
 182.404296875 719.4609375 185.948242188 709.813476562 185.948242188 709.813476562 c 2
 176.892578125 722.90625 167.419921875 712.373046875 167.419921875 712.373046875 c 1
 124.46875 554.763671875 l 1
 142.581054688 544.526367188 150.806640625 517.26953125 151.396484375 515.891601562 c 1
 141.2578125 533.01953125 118.442382812 529.235351562 118.442382812 529.235351562 c 1
 104.048828125 458.502929688 l 2
 102.276367188 448.265625 107.001953125 437.04296875 117.435546875 436.9453125 c 2
 144.2109375 436.649414062 l 1
 185.653320312 442.260742188 141.947265625 465.4921875 141.947265625 465.4921875 c 1
 174.333007812 458.010742188 181.715820312 426.018554688 181.715820312 426.018554688 c 1
 184.668945312 432.0234375 176.892578125 456.6328125 176.6953125 457.321289062 c 1
 190.377929688 449.446289062 200.3203125 432.810546875 200.911132812 431.727539062 c 1
 172.659179688 482.81640625 182.798828125 510.87109375 182.798828125 510.87109375 c 1
 184.799804688 532 226.012695312 548.190429688 226.012695312 548.190429688 c 1
 256.200195312 561.400390625 255.630859375 581.14453125 255.630859375 581.14453125 c 1
 253.400390625 604.799804688 226.012695312 602.6484375 226.012695312 602.6484375 c 1
 186.932617188 605.20703125 182.798828125 566.32421875 182.798828125 566.32421875 c 1
 182.798828125 566.32421875 174.978515625 584.852539062 174.978515625 585.935546875 c 0
 174.978515625 587.018554688 181.081054688 605.130859375 181.081054688 605.130859375 c 1
 180.096679688 622.422851562 l 1
 194.020507812 641.203125 l 1
 186.932617188 674.573242188 202.091796875 687.665039062 202.091796875 687.665039062 c 2
 199.041015625 661.3828125 216.015625 646.802734375 216.015625 646.802734375 c 1
 246.333984375 636.6640625 265.78125 659.578125 265.78125 659.578125 c 1
 266.765625 652.490234375 262.729492188 641.203125 256.724609375 638.25 c 0
 234.379882812 627.02734375 235.626953125 620.0390625 235.626953125 620.0390625 c 1
 280 610.400390625 277.888671875 574.560546875 277.888671875 574.560546875 c 1
 278.873046875 542.2734375 235.462890625 526.03125 226.111328125 521.995117188 c 0
 186.341796875 504.768554688 226.111328125 474.547851562 226.111328125 474.547851562 c 1
 242.057617188 455.352539062 251.606445312 425.034179688 251.606445312 425.034179688 c 1
 252.590820312 444.229492188 274.837890625 457.321289062 274.837890625 457.321289062 c 2
 258.693359375 431.0390625 268.734375 421.982421875 268.734375 421.982421875 c 1
 287.634765625 462.341796875 307.912109375 466.279296875 307.912109375 466.279296875 c 1
 279.661132812 443.047851562 303.088867188 437.141601562 303.088867188 437.141601562 c 1
 329.864257812 437.141601562 l 2
 343.841796875 437.141601562 354.080078125 450.430664062 350.338867188 464.015625 c 2
 334.807617188 521.831054688 l 2
 326.833984375 539.74609375 297.7734375 518.243164062 297.083984375 517.456054688 c 1
 311.751953125 547.282226562 323.673828125 558.799804688 323.673828125 558.799804688 c 1
 283.325195312 712.701171875 l 6
 277.221679688 721.7578125 265.78125 707.844726562 265.78125 707.844726562 c 1
 265.78125 722.01953125 277.888671875 737.1796875 277.888671875 737.1796875 c 1
 278.676757812 771.435546875 l 1
 431.353515625 428.260742188 l 1
 300.923828125 163.2890625 l 1
 294.8203125 180.416992188 l 1
 288.716796875 176.380859375 l 1
 280.645507812 187.50390625 l 1
 280.645507812 277.125976562 l 1
 291.768554688 268.0703125 l 1
 299.840820312 275.157226562 l 1
 300.825195312 283.229492188 l 1
 321.989257812 309.51171875 l 1
 316.96875 325.907226562 l 1
 328.091796875 330.927734375 l 1
 316.96875 346.086914062 l 1
 316.96875 357.2109375 l 1
 283.598632812 351.107421875 275.231445312 313.40625 275.231445312 313.40625 c 1
 275.526367188 347.169921875 l 1
 259.3828125 343.133789062 248.259765625 316.8515625 248.259765625 316.8515625 c 1
 257.315429688 247.157226562 l 1
 228.637695312 178.448242188 l 1
 242.517578125 138.088867188 l 1
 211.411132812 89.55859375 l 1
 226.40625 54.044921875 l 1
 257.216796875 70.36328125 l 1
 225.716796875 -0.314453125 l 1
 225.716796875 -0.314453125 184.865234375 85.62109375 181.715820312 89.55859375 c 0
 184.078125 91.52734375 207.801757812 138.088867188 207.801757812 138.088867188 c 1
 190.673828125 174.412109375 l 1
 211.815429688 241.0546875 l 1
 211.716796875 256.213867188 l 2
 213.489257812 320.88671875 177.482421875 349.138671875 177.482421875 349.138671875 c 1
 177.6796875 314.291992188 l 1
 168.918945312 355.930664062 136.434570312 357.30859375 135.3515625 357.30859375 c 2
EndSplineSet
Validated: 33
EndChar

StartChar: zero
Encoding: 48 48 70
Width: 590
VWidth: 0
Flags: W
HStem: -1.375 152.575<223.947 366.888> 627.2 139.866<235.087 363.452>
VStem: 38.4014 134.4<210.632 538.493> 415.002 137.199<208.899 555.761>
LayerCount: 2
Fore
SplineSet
38.4013671875 352.799804688 m 0
 38.4013671875 540.400390625 91.6015625 767.06640625 298.484375 767.06640625 c 0
 513.001953125 767.06640625 549.401367188 536.200195312 552.201171875 382.200195312 c 0
 555.33203125 210.0234375 523.21875 -1.375 300.422851562 -1.375 c 0
 100.181640625 -1.375 38.4013671875 183.306640625 38.4013671875 352.799804688 c 0
297.401367188 627.200195312 m 0
 206.401367188 627.200195312 175.6015625 539 172.801757812 361.200195312 c 0
 170.177734375 194.59765625 210.6015625 149.799804688 297.401367188 151.200195312 c 0
 395.329101562 152.779296875 413.6015625 208.599609375 415.001953125 379.400390625 c 0
 416.275390625 534.801757812 398.2109375 627.200195312 297.401367188 627.200195312 c 0
EndSplineSet
Validated: 33
EndChar

StartChar: a
Encoding: 97 97 71
Width: 532
VWidth: 0
Flags: W
HStem: 0.157227 21G<230.32 277.472 328.791 500.291>
VStem: 329.064 136.423<144.248 229.538>
LayerCount: 2
Fore
SplineSet
498.026367188 41.9169921875 m 1
 500.291015625 37.68359375 l 1
 500.291015625 0.1572265625 l 1
 337.354492188 0.1572265625 l 1
 328.791015625 13.9169921875 l 1
 329.184570312 41.435546875 l 1
 230.3203125 -0.4990234375 l 1
 230.3203125 -0.4990234375 109.515625 -44.4345703125 47.1064453125 45.33984375 c 1
 47.1064453125 45.33984375 6.2548828125 93.6728515625 57.6396484375 214.258789062 c 0
 70.830078125 245.365234375 205.317382812 304.12109375 205.317382812 304.12109375 c 1
 330.463867188 325.77734375 l 1
 330.463867188 325.77734375 330.872070312 428.400390625 147.720703125 333.313476562 c 1
 119.272460938 308.409179688 l 1
 89.751953125 304.044921875 l 1
 89.1611328125 413.22265625 l 1
 89.1611328125 413.22265625 334.369140625 545.599609375 448.359375 392.922851562 c 1
 448.359375 392.922851562 465.487304688 361.620117188 465.487304688 275.584960938 c 0
 465.487304688 189.55078125 465.487304688 87.1982421875 465.487304688 87.1982421875 c 1
 465.487304688 87.1982421875 467.984375 53.45703125 490.096679688 46.6416015625 c 0
 496.071289062 44.7998046875 498.026367188 41.9169921875 498.026367188 41.9169921875 c 1
329.163085938 144.248046875 m 1
 329.064453125 144.248046875 l 1
 330.463867188 229.538085938 l 1
 250.139648438 229.045898438 239.7265625 195.303710938 239.7265625 195.303710938 c 1
 181.254882812 230.938476562 169.311523438 181.424804688 169.311523438 181.424804688 c 1
 137.671875 46.2001953125 252.534179688 112.365234375 252.534179688 112.365234375 c 1
 329.163085938 144.248046875 l 1
EndSplineSet
Validated: 33
EndChar

StartChar: b
Encoding: 98 98 72
Width: 574
VWidth: 0
Flags: W
HStem: -10.9619 120.498<233.252 373.525> 333.099 131.25<237.646 364.191>
VStem: 48.7744 132.617<162.267 278.871 418.827 512.812 542.738 675.891> 413.015 120.203<147.355 284.525>
LayerCount: 2
Fore
SplineSet
319.040039062 464.348632812 m 4
 408.939453125 464.348632812 532.430664062 394.69921875 533.217773438 217.1171875 c 4
 533.709960938 67.197265625 426.151367188 -10.9619140625 333.029296875 -10.9619140625 c 4
 170.115234375 -10.9619140625 48.7744140625 60.109375 48.7744140625 60.109375 c 5
 48.7744140625 116.61328125 l 5
 48.7744140625 675.890625 l 5
 48.7744140625 675.890625 44.939453125 715.400390625 12.779296875 734.012695312 c 5
 178.143554688 770.041015625 l 5
 207.280273438 770.139648438 l 5
 207.280273438 770.139648438 181.391601562 758.622070312 181.391601562 712.356445312 c 6
 181.391601562 542.73828125 l 5
 173.91015625 536.4375 l 5
 173.123046875 530.629882812 l 5
 164.854492188 530.629882812 l 5
 162.885742188 526.397460938 l 5
 162.491210938 521.671875 l 5
 159.341796875 524.330078125 l 5
 159.735351562 516.455078125 l 5
 165.248046875 516.455078125 l 5
 169.579101562 512.8125 l 5
 174.303710938 520.1953125 l 5
 180.209960938 523.837890625 l 5
 180.209960938 418.827148438 l 5
 215.647460938 453.181640625 269.72265625 464.348632812 319.040039062 464.348632812 c 4
300.83984375 109.536132812 m 4
 372.5390625 109.536132812 413.014648438 149.799804688 413.014648438 217.1171875 c 4
 413.014648438 287 355.739257812 333.098632812 302.80859375 333.098632812 c 4
 250.739257812 333.098632812 184.169921875 287 184.169921875 221.842773438 c 4
 184.169921875 156.799804688 242.33984375 109.536132812 300.83984375 109.536132812 c 4
EndSplineSet
Validated: 33
EndChar

StartChar: c
Encoding: 99 99 73
Width: 454
VWidth: 0
Flags: W
HStem: 0.420898 21G<236.606 301.723>
VStem: 27.624 129.019<156.938 238.147>
LayerCount: 2
Fore
SplineSet
236.803710938 118.337890625 m 1
 236.803710938 118.337890625 327.180664062 107.799804688 403.80859375 209.021484375 c 1
 424.381835938 214.927734375 l 1
 427.181640625 100.509765625 l 1
 427.181640625 100.509765625 366.83984375 4.0634765625 236.606445312 0.4208984375 c 1
 236.606445312 0.4208984375 31.2666015625 -9.126953125 27.6240234375 238.147460938 c 1
 27.6240234375 238.147460938 24.6708984375 470.657226562 243.30078125 462.584960938 c 0
 327.267578125 462.584960938 383.180664062 421.33984375 383.180664062 421.33984375 c 1
 413.400390625 380.094726562 427.37890625 395.548828125 427.37890625 395.548828125 c 1
 410.447265625 352.138671875 354.53515625 277.751953125 354.53515625 277.751953125 c 1
 336.586914062 287.147460938 l 1
 336.586914062 357 243.399414062 351.241210938 243.399414062 351.241210938 c 1
 243.399414062 351.241210938 156.642578125 347.200195312 156.642578125 230.666015625 c 0
 156.642578125 121.799804688 236.803710938 118.337890625 236.803710938 118.337890625 c 1
EndSplineSet
Validated: 33
EndChar

StartChar: d
Encoding: 100 100 74
Width: 574
VWidth: 0
Flags: W
HStem: -10.9619 120.498<200.475 340.748> 333.099 131.25<209.809 336.354>
VStem: 40.7822 120.203<147.355 284.525> 392.608 132.617<162.267 278.871>
LayerCount: 2
Fore
SplineSet
254.959960938 464.348632812 m 0
 165.060546875 464.348632812 41.5693359375 394.69921875 40.7822265625 217.1171875 c 0
 40.2900390625 67.197265625 147.848632812 -10.9619140625 240.970703125 -10.9619140625 c 0
 403.884765625 -10.9619140625 525.225585938 60.109375 525.225585938 60.109375 c 1
 525.225585938 116.61328125 l 1
 525.225585938 675.890625 l 1
 525.225585938 675.890625 529.060546875 715.400390625 561.220703125 734.012695312 c 1
 395.856445312 770.041015625 l 1
 366.719726562 770.139648438 l 1
 366.719726562 770.139648438 392.608398438 758.622070312 392.608398438 712.356445312 c 2
 392.608398438 542.73828125 l 1
 400.08984375 536.4375 l 1
 400.876953125 530.629882812 l 1
 409.145507812 530.629882812 l 1
 411.114257812 526.397460938 l 1
 411.508789062 521.671875 l 1
 414.658203125 524.330078125 l 1
 414.264648438 516.455078125 l 1
 408.751953125 516.455078125 l 1
 404.420898438 512.8125 l 1
 399.696289062 520.1953125 l 1
 393.790039062 523.837890625 l 1
 393.790039062 418.827148438 l 1
 358.352539062 453.181640625 304.27734375 464.348632812 254.959960938 464.348632812 c 0
273.16015625 109.536132812 m 0
 201.4609375 109.536132812 160.985351562 149.799804688 160.985351562 217.1171875 c 0
 160.985351562 287 218.260742188 333.098632812 271.19140625 333.098632812 c 0
 323.260742188 333.098632812 389.830078125 287 389.830078125 221.842773438 c 0
 389.830078125 156.799804688 331.66015625 109.536132812 273.16015625 109.536132812 c 0
EndSplineSet
Validated: 41
EndChar

StartChar: j
Encoding: 106 106 75
Width: 249
VWidth: 0
Flags: W
HStem: 457.05 2.85449<220.299 236.554>
VStem: 52.1641 144.02<557.299 624.303> 65.3818 119.295<2.62891 358.809>
LayerCount: 2
Fore
SplineSet
52.1640625 557.298828125 m 1xc0
 52.1640625 624.302734375 l 1
 124.174804688 671.801757812 l 1
 196.18359375 624.302734375 l 1
 196.18359375 557.298828125 l 1
 124.174804688 509.797851562 l 1
 52.1640625 557.298828125 l 1xc0
236.553710938 459.904296875 m 1
 221.788085938 457.049804688 l 1
 211.944335938 448.38671875 185.5625 419.544921875 184.676757812 357.82421875 c 2
 184.676757812 315.594726562 l 1
 184.676757812 -14.26953125 l 2
 184.676757812 -162.400390625 107.75390625 -257.103515625 -8.052734375 -257.103515625 c 0
 -231.046875 -257.103515625 -149.015625 -46.337890625 -149.015625 -46.337890625 c 1
 -142.901367188 -31.1025390625 l 1
 -113.971679688 -8.52734375 l 1
 -110.72265625 -155.297851562 -10.6123046875 -134.778320312 -10.6123046875 -134.778320312 c 1
 60.1533203125 -131.599609375 65.3818359375 2.62890625 65.3818359375 2.62890625 c 1
 65.3818359375 358.80859375 l 1xa0
 65.3818359375 358.80859375 63 415.799804688 31.3876953125 443.858398438 c 1
 77.390625 451.733398438 l 1
 213.322265625 459.904296875 l 1
 225.134765625 459.904296875 l 1
 225.4296875 459.904296875 l 1
 236.553710938 459.904296875 l 1
EndSplineSet
Validated: 33
EndChar

StartChar: g
Encoding: 103 103 76
Width: 534
VWidth: 0
Flags: W
HStem: -277.15 94.4746<172.907 364.821> 36.3262 96.9395<188.246 311.819> 355.605 112.424<197.239 310.737>
VStem: 44 111.928<161.988 307.355> 350.138 108.082<173.258 313.723> 389.442 122.905<-163.743 -93.9072>
LayerCount: 2
Fore
SplineSet
523 455.51171875 m 5xf4
 523 455.51171875 501.580078125 352.637695312 470.284179688 348.857421875 c 5
 421.955078125 362.857421875 l 5
 456.572265625 327.239257812 458.219726562 283.72265625 458.219726562 231.13671875 c 4xf8
 458.219726562 100.799804688 379.548828125 36.326171875 265.108398438 36.326171875 c 4
 230.92578125 36.326171875 198.666015625 40.107421875 170.252929688 54.2216796875 c 5
 168.504882812 50.1044921875 167.630859375 50.607421875 167.630859375 47.33203125 c 4
 167.630859375 42.458984375 170.341796875 37.837890625 175.762695312 33.3017578125 c 4
 181.268554688 28.7666015625 191.84765625 17.1748046875 207.669921875 15.15625 c 4
 216.850585938 14.0654296875 239.931640625 13.0576171875 276.822265625 12.216796875 c 4
 344.665039062 10.7880859375 391.440429688 3.1728515625 411.547851562 0.650390625 c 4
 442.147460938 -3.04296875 466.642578125 -16.7998046875 484.897460938 -38.46484375 c 4
 500.494140625 -56.974609375 512.34765625 -82.314453125 512.34765625 -105.5 c 4
 512.34765625 -137.5078125 493.46484375 -208.096679688 458.58203125 -236.155273438 c 4
 407.17578125 -277.484375 323.408203125 -277.150390625 240.704101562 -277.150390625 c 4
 177.146484375 -277.150390625 123.467773438 -269.001953125 79.6669921875 -244.388671875 c 4
 54.92578125 -230.192382812 31.400390625 -191.692382812 31.400390625 -176.401367188 c 4
 31.400390625 -169.598632812 32.62109375 -163.6796875 32.62109375 -155.989257812 c 4
 32.62109375 -155.989257812 34.04296875 -131.599609375 58.8408203125 -95.419921875 c 4
 60.7587890625 -92.62109375 75.0986328125 -77.6123046875 106.397460938 -49.552734375 c 5
 52.193359375 -28.1328125 44 44.3916015625 44 44.3916015625 c 5
 75.560546875 43.634765625 92.4208984375 66.9033203125 113.40234375 80.0087890625 c 5
 81.642578125 91 44 142.799804688 44 231.219726562 c 4
 44 407.400390625 136.670898438 468.029296875 251.108398438 468.029296875 c 4
 293.684570312 468.029296875 333.2890625 455.680664062 366.16015625 434.51171875 c 5
 498.434570312 467.776367188 l 5
 523 455.51171875 l 5xf4
195.186523438 -83.7978515625 m 5
 179.7109375 -98.2470703125 180.686523438 -97.521484375 172.729492188 -110.038085938 c 4
 164.7734375 -122.553710938 159.438476562 -117.178710938 159.438476562 -127.678710938 c 4
 159.438476562 -141.288085938 156.35546875 -149.870117188 174.04296875 -162.400390625 c 4
 196.372070312 -178.21875 209.83203125 -182.67578125 272.080078125 -182.67578125 c 4
 331.352539062 -182.67578125 344.518554688 -180.120117188 358.416015625 -171.109375 c 4
 382.642578125 -155.400390625 389.442382812 -142.37890625 389.442382812 -121.965820312 c 4xf4
 389.442382812 -117.599609375 381.048828125 -110.763671875 364.263671875 -104.547851562 c 4
 347.127929688 -98.3310546875 335.04296875 -95.2001953125 304.502929688 -93.54296875 c 4
 230.54296875 -89.5302734375 235.052734375 -88.5859375 195.186523438 -83.7978515625 c 5
80.1064453125 309.766601562 m 5
 80.1064453125 309.766601562 85.353515625 327.154296875 104.935546875 330.682617188 c 5
 92.2587890625 330.682617188 l 5
 84.564453125 323.793945312 l 5
 79.0576171875 324.297851562 l 5
 75.7353515625 318.500976562 l 5
 66.90625 317.998046875 l 5
 80.1064453125 309.766601562 l 5
251.196289062 133.265625 m 4
 323.846679688 133.265625 350.137695312 197.400390625 350.137695312 232.5625 c 4xf8
 350.137695312 285.599609375 323.842773438 355.60546875 253.032226562 355.60546875 c 4
 182.443359375 355.60546875 155.927734375 285.599609375 155.927734375 231.13671875 c 4
 155.927734375 182 165.642578125 170.799804688 189.124023438 151.327148438 c 5
 190.78515625 150.73828125 l 6
 190.69921875 150.654296875 190.612304688 150.571289062 190.436523438 150.486328125 c 5
 207.921875 139.313476562 228.466796875 133.265625 251.196289062 133.265625 c 4
EndSplineSet
Validated: 33
EndChar

StartChar: h
Encoding: 104 104 77
Width: 505
VWidth: 0
Flags: W
HStem: 0.349609 37.5488<181.651 198.105 474.457 495.584> 316.443 144.419<191.433 317.377>
VStem: 45.3193 118.64<142.144 250.688 418.326 542.15 570.008 684.25> 343.936 126.743<76.1904 232.104>
LayerCount: 2
Fore
SplineSet
470.678710938 76.1904296875 m 1
 470.678710938 76.1904296875 472.451171875 37.111328125 495.583984375 37.208984375 c 1
 495.583984375 0.4482421875 l 1
 319.62109375 0.4482421875 l 1
 319.62109375 37.40625 l 1
 319.62109375 37.40625 342.75390625 37.603515625 343.935546875 76.6826171875 c 2
 343.935546875 98.3388671875 l 1
 343.935546875 232.104492188 l 1
 343.935546875 232.104492188 346.360351562 316.443359375 255.36328125 316.443359375 c 0
 172.760742188 316.443359375 169.459960938 250.6875 169.459960938 250.6875 c 1
 169.459960938 142.143554688 l 1
 169.459960938 142.143554688 171.428710938 37.8984375 198.10546875 37.8984375 c 1
 198.10546875 0.349609375 l 1
 17.560546875 0.349609375 l 1
 17.560546875 37.111328125 l 1
 17.560546875 37.111328125 43.94140625 50.3017578125 45.3193359375 143.325195312 c 2
 45.3193359375 181.004882812 l 1
 45.3193359375 684.25 l 1
 45.3193359375 684.25 43.087890625 726.622070312 9.81640625 740.206054688 c 1
 161.694335938 773.576171875 l 1
 190.733398438 773.674804688 l 1
 190.733398438 773.674804688 164.943359375 734.9453125 164.943359375 692.026367188 c 2
 164.943359375 570.0078125 l 1
 157.560546875 564.200195312 l 1
 156.772460938 558.786132812 l 1
 148.602539062 558.786132812 l 1
 146.633789062 554.848632812 l 1
 146.240234375 550.418945312 l 1
 143.08984375 552.879882812 l 1
 143.483398438 545.595703125 l 1
 148.99609375 545.595703125 l 1
 153.327148438 542.150390625 l 1
 158.052734375 548.942382812 l 1
 163.958984375 552.387695312 l 1
 163.958984375 418.326171875 l 1
 181.16015625 438.200195312 223.16015625 460.862304688 265.611328125 460.862304688 c 0
 393.9609375 460.862304688 470.274414062 375.182617188 470.482421875 299.107421875 c 2
 470.678710938 226.854492188 l 1
 470.678710938 76.1904296875 l 1
EndSplineSet
Validated: 33
EndChar

StartChar: e
Encoding: 101 101 78
Width: 470
VWidth: 0
Flags: W
HStem: -0.169922 21G<269.445 335.546> 208.518 84.6455<150.183 332.521>
VStem: 29.3125 119<146.012 208.518>
LayerCount: 2
Fore
SplineSet
255.543945312 110.233398438 m 5
 255.543945312 110.233398438 372.400390625 105 405.606445312 154.498046875 c 5
 447.573242188 160.501953125 l 5
 448.973632812 73.5927734375 l 5
 448.973632812 73.5927734375 401.646484375 3.5712890625 269.4453125 -0.169921875 c 5
 269.4453125 -0.169921875 33.599609375 -9.7998046875 29.3125 210.30078125 c 5
 29.3125 210.30078125 29.2138671875 212.663085938 29.4111328125 216.69921875 c 5
 30.8876953125 216.69921875 l 5
 34.8251953125 215.616210938 l 5
 37.7783203125 218.274414062 l 5
 42.306640625 219.849609375 l 5
 43.1923828125 228.01953125 l 5
 37.482421875 225.263671875 l 5
 36.892578125 222.802734375 l 5
 30.591796875 222.802734375 l 5
 29.115234375 221.030273438 l 5
 28.8203125 218.962890625 l 5
 26.4580078125 220.045898438 l 5
 26.654296875 217.978515625 l 5
 5.0966796875 220.538085938 16.2802734375 246.400390625 1.564453125 270.610351562 c 5
 30.986328125 282.389648438 l 5
 37.6796875 343.420898438 100.034179688 472.58203125 276.237304688 466.084960938 c 5
 276.237304688 466.084960938 385.973632812 464.21484375 419.048828125 393.634765625 c 4
 440.606445312 347.665039062 457.635742188 377.294921875 457.635742188 377.294921875 c 5
 454.879882812 346.384765625 445.823242188 328.173828125 445.823242188 328.173828125 c 5
 422.494140625 232.537109375 l 5
 405.168945312 210.19140625 332.521484375 213.14453125 332.521484375 213.14453125 c 5
 187.490234375 208.517578125 l 5
 148.509765625 208.517578125 l 5
 148.411132812 204.28515625 148.3125 200.150390625 148.3125 195.720703125 c 4
 148.3125 117.599609375 255.543945312 110.233398438 255.543945312 110.233398438 c 5
262.237304688 368.150390625 m 5
 262.237304688 368.150390625 150.182617188 368.200195312 150.182617188 293.163085938 c 5
 208.534179688 293.163085938 l 6
 263.856445312 296.313476562 352.307617188 317.083984375 352.307617188 317.083984375 c 5
 352.307617188 368.200195312 262.237304688 368.150390625 262.237304688 368.150390625 c 5
EndSplineSet
Validated: 33
EndChar

StartChar: f
Encoding: 102 102 79
Width: 510
VWidth: 0
Flags: W
HStem: 0.349609 21G<89.3213 288.634> 347.112 78.0723<74.3691 130.588> 658 119.776<306.806 368.62>
VStem: 130.588 138.163<142.932 347.112 428.63 515.43> 462.814 45.8174<568.936 625.957>
LayerCount: 2
Fore
SplineSet
368.620117188 658 m 5
 249.200195312 658 268.65234375 515.4296875 268.65234375 515.4296875 c 2
 268.65234375 428.629882812 l 1
 305.861328125 436.111328125 322.990234375 450.778320312 322.990234375 450.778320312 c 1
 442.819335938 442.400390625 465.287109375 467.041992188 465.287109375 467.041992188 c 1
 498.897460938 449.793945312 l 1
 471.630859375 414.75 l 2
 419.577148438 347.852539062 369.748046875 349.1796875 369.748046875 349.1796875 c 1
 268.750976562 347.998046875 l 1
 268.750976562 142.931640625 l 1
 268.750976562 142.931640625 270.62109375 49.21875 296.904296875 49.21875 c 1
 282.904296875 0.349609375 l 1
 89.3212890625 0.349609375 l 1
 103.321289062 49.908203125 l 1
 103.321289062 49.908203125 129.209960938 50.400390625 130.587890625 144.112304688 c 2
 130.587890625 196.087890625 l 1
 130.587890625 347.112304688 l 1
 39.1728515625 349.1796875 l 1
 40.845703125 389.484375 l 1
 74.369140625 426.5625 l 1
 130.686523438 425.184570312 l 1
 130.686523438 543.331054688 l 2
 130.686523438 714.416015625 231.419921875 777.776367188 342.874023438 777.776367188 c 0
 444.219726562 777.776367188 495.080078125 725.7578125 495.080078125 725.7578125 c 1
 525.02734375 731.478515625 l 1
 508.631835938 568.9140625 l 1
 462.814453125 568.935546875 l 1
 462.814453125 651 368.620117188 658 368.620117188 658 c 5
EndSplineSet
Validated: 33
EndChar

StartChar: i
Encoding: 105 105 80
Width: 226
VWidth: 0
Flags: W
HStem: 0.293945 25.9346<181.261 195.151>
VStem: 37.5801 144.02<557.299 624.303> 46.9531 126.629<79.5645 303.71 319.655 419.511>
LayerCount: 2
Fore
SplineSet
37.580078125 557.298828125 m 1xc0
 37.580078125 624.302734375 l 1
 109.590820312 671.801757812 l 1
 181.599609375 624.302734375 l 1
 181.599609375 557.298828125 l 1
 109.590820312 509.797851562 l 1
 37.580078125 557.298828125 l 1xc0
173.58203125 79.564453125 m 5xa0
 173.58203125 79.564453125 175.094726562 26.228515625 195.151367188 26.228515625 c 5
 195.151367188 0.2939453125 l 5
 26.048828125 0.2939453125 l 5
 26.048828125 26.6015625 l 5
 26.048828125 26.6015625 45.9130859375 26.8818359375 46.953125 80.2158203125 c 6
 46.953125 109.868164062 l 5
 46.953125 419.510742188 l 5
 46.953125 419.510742188 46.9697265625 434 28.990234375 437.184570312 c 5
 172.067382812 454.6640625 l 5
 193.920898438 454.7578125 l 5
 193.920898438 454.7578125 174.528320312 448.602539062 174.528320312 423.986328125 c 6
 174.528320312 319.655273438 l 5
 168.946289062 316.298828125 l 5
 164.346679688 313.221679688 l 5
 162.23046875 313.221679688 l 5
 160.716796875 310.983398438 l 5
 157.6328125 308.465820312 l 1
 155.267578125 309.865234375 l 5
 155.551757812 305.668945312 l 5
 162.41796875 305.668945312 l 5
 165.635742188 303.709960938 l 5
 169.135742188 307.625 l 5
 173.58203125 309.584960938 l 5
 173.58203125 79.564453125 l 5xa0
EndSplineSet
Validated: 1
EndChar

StartChar: k
Encoding: 107 107 81
Width: 567
VWidth: 0
Flags: W
HStem: -0.358398 41.3877<512.369 552.3> 0.349609 48.7705<184.649 202.781> 450.482 36.6631<493.915 530.469>
VStem: 45.5547 129.073<142.144 529.55 557.408 670.25>
LayerCount: 2
Fore
SplineSet
174.627929688 142.143554688 m 1x70
 174.627929688 142.143554688 176.596679688 49.1201171875 202.78125 49.1201171875 c 1
 202.78125 0.349609375 l 1
 18.484375 0.349609375 l 1
 18.484375 49.8095703125 l 1
 18.484375 49.8095703125 44.1767578125 50.3017578125 45.5546875 143.325195312 c 2
 45.5546875 181.004882812 l 1
 45.5546875 670.25 l 1
 45.5546875 670.25 45.220703125 719.599609375 14.7001953125 740.206054688 c 1
 172.659179688 773.576171875 l 1
 191.208984375 773.674804688 l 1
 191.208984375 773.674804688 175.809570312 762.9453125 175.809570312 720.026367188 c 2
 175.809570312 557.408203125 l 1
 168.525390625 551.599609375 l 1
 167.737304688 546.185546875 l 1
 159.763671875 546.185546875 l 1
 157.893554688 542.248046875 l 1
 157.5 537.818359375 l 1
 154.448242188 540.279296875 l 1
 154.841796875 532.995117188 l 1
 160.158203125 532.995117188 l 1
 164.390625 529.549804688 l 1
 168.918945312 536.341796875 l 1
 174.627929688 539.787109375 l 1
 174.627929688 142.143554688 l 1x70
472.270507812 102.454101562 m 2
 524.8359375 36.6982421875 552.201171875 41.029296875 552.299804688 41.029296875 c 2
 552.299804688 -0.3583984375 l 1
 381.2265625 -0.3583984375 l 1xb0
 339.2265625 44.0810546875 l 1
 347.1015625 52.7431640625 336.076171875 67.0166015625 336.076171875 67.0166015625 c 1
 274.060546875 136.828125 l 1
 274.060546875 144.998046875 l 1
 307.135742188 144.998046875 l 1
 313.435546875 148.443359375 l 1
 301.328125 152.775390625 l 1
 298.669921875 154.546875 l 1
 294.4375 151.1015625 l 1
 294.4375 151.1015625 280.754882812 153.267578125 279.1796875 153.267578125 c 0
 277.604492188 153.267578125 279.1796875 157.9921875 279.1796875 157.9921875 c 1
 260.771484375 159.763671875 l 1
 196.973632812 250.184570312 l 1
 320.6875 409.434570312 l 2
 349.234375 437.095703125 320.6875 450.482421875 320.6875 450.482421875 c 1
 320.6875 487.145507812 l 1
 530.46875 487.145507812 l 1
 530.9609375 450.482421875 l 1
 508.615234375 445.166992188 484.377929688 425.380859375 484.377929688 425.380859375 c 1
 349.846679688 250.184570312 l 1
 393.455078125 195.354492188 420.087890625 197.9140625 420.087890625 197.9140625 c 1
 472.270507812 102.454101562 l 2
323.083007812 144.801757812 m 1
 341.611328125 146.474609375 l 1
 324.953125 148.247070312 l 1
 323.083007812 152.578125 l 1
 316.487304688 148.247070312 l 1
 323.083007812 144.801757812 l 1
EndSplineSet
Validated: 33
EndChar

StartChar: l
Encoding: 108 108 82
Width: 256
VWidth: 0
Flags: W
HStem: 0.349609 48.7705<202.223 220.355>
VStem: 58.9287 133.273<142.144 529.55 557.408 670.25>
LayerCount: 2
Fore
SplineSet
192.202148438 142.143554688 m 1
 192.202148438 142.143554688 194.170898438 49.1201171875 220.35546875 49.1201171875 c 1
 220.35546875 0.349609375 l 1
 31.8583984375 0.349609375 l 1
 31.8583984375 49.8095703125 l 1
 31.8583984375 49.8095703125 57.55078125 50.3017578125 58.9287109375 143.325195312 c 2
 58.9287109375 195.004882812 l 1
 58.9287109375 670.25 l 1
 58.9287109375 670.25 53.2001953125 715.400390625 35.8447265625 740.206054688 c 1
 190.233398438 773.576171875 l 1
 218.583007812 773.674804688 l 1
 218.583007812 773.674804688 193.3828125 748.9453125 193.3828125 706.026367188 c 2
 193.3828125 557.408203125 l 1
 186.098632812 551.599609375 l 1
 185.311523438 546.185546875 l 1
 177.337890625 546.185546875 l 1
 175.467773438 542.248046875 l 1
 175.07421875 537.818359375 l 1
 172.022460938 540.279296875 l 1
 172.416015625 532.995117188 l 1
 177.731445312 532.995117188 l 1
 181.96484375 529.549804688 l 1
 186.4921875 536.341796875 l 1
 192.202148438 539.787109375 l 1
 192.202148438 142.143554688 l 1
EndSplineSet
Validated: 1
EndChar

StartChar: m
Encoding: 109 109 83
Width: 828
VWidth: 0
Flags: W
HStem: -0.0673828 33.9062<209.957 229.818 494.235 513.646 770.232 789.721> 341.872 117.086<224.412 326.238 507.463 615.82>
VStem: 61.4033 138.589<98.6113 219.558> 352.166 135.395<77.6436 217.195> 642.239 121.297<77.6436 217.097>
LayerCount: 2
Fore
SplineSet
763.536132812 77.6435546875 m 5
 763.536132812 77.6435546875 765.307617188 36.9892578125 789.720703125 36.9892578125 c 5
 789.720703125 -0.0673828125 l 5
 616.940429688 -0.0673828125 l 5
 616.940429688 37.2841796875 l 5
 616.940429688 37.2841796875 640.958984375 37.4814453125 642.239257812 78.1357421875 c 6
 642.239257812 100.678710938 l 5
 642.239257812 217.096679688 l 5
 642.239257812 217.096679688 655.48046875 341.7734375 563.533203125 341.7734375 c 4
 470.680664062 341.7734375 487.659179688 244.856445312 487.265625 224.381835938 c 4
 487.265625 221.920898438 487.364257812 219.459960938 487.364257812 216.999023438 c 6
 487.560546875 164.192382812 l 5
 487.560546875 77.6435546875 l 5
 487.560546875 77.6435546875 489.333007812 36.9892578125 513.646484375 36.9892578125 c 5
 513.646484375 -0.0673828125 l 5
 326.8671875 -0.0673828125 l 5
 326.8671875 37.2841796875 l 5
 326.8671875 37.2841796875 350.885742188 37.4814453125 352.166015625 78.1357421875 c 6
 352.166015625 100.678710938 l 5
 352.166015625 217.1953125 l 5
 352.166015625 217.1953125 365.680664062 341.872070312 273.458984375 341.872070312 c 4
 189.280273438 341.872070312 200.090820312 219.262695312 200.090820312 219.262695312 c 5
 199.9921875 219.557617188 l 5
 199.9921875 98.611328125 l 5
 199.9921875 98.611328125 202.059570312 33.8388671875 229.818359375 33.8388671875 c 5
 229.818359375 -0.0673828125 l 5
 32.560546875 -0.0673828125 l 5
 32.560546875 33.3466796875 l 5
 32.560546875 33.3466796875 59.9267578125 41.517578125 61.4033203125 99.2998046875 c 6
 61.4033203125 131.390625 l 5
 61.4033203125 394.416015625 l 5
 61.4033203125 394.416015625 57.400390625 442.400390625 39.080078125 453.741210938 c 5
 127.826171875 474.413085938 l 5
 216.846679688 474.510742188 l 5
 216.846679688 474.510742188 201.173828125 467.817382812 201.173828125 441.140625 c 6
 201.173828125 420.90625 l 5
 206.080078125 436.799804688 224.021484375 458.958007812 275.799804688 458.958007812 c 4
 313.895507812 458.958007812 401.471679688 457.536132812 436.416992188 388.629882812 c 5
 455.809570312 435.2890625 514.806640625 458.958007812 579.775390625 458.958007812 c 4
 628.698242188 458.958007812 763.338867188 440.452148438 763.338867188 305.198242188 c 6
 763.536132812 229.9921875 l 5
 763.536132812 77.6435546875 l 5
188.966796875 234.717773438 m 5
 190.935546875 236.587890625 l 5
 186.505859375 245.053710938 l 5
 184.044921875 245.053710938 l 5
 181.978515625 270.592773438 l 5
 181.583984375 267.8359375 l 5
 178.3359375 269.3125 l 5
 178.729492188 264.784179688 l 5
 184.439453125 236.784179688 l 5
 188.966796875 234.717773438 l 5
EndSplineSet
Validated: 33
EndChar

StartChar: n
Encoding: 110 110 84
Width: 571
VWidth: 0
Flags: W
HStem: -0.0673828 37.1396<200.294 221.364 518.706 540.094> 346.072 112.886<227.667 346.307>
VStem: 59.9482 131.589<98.6113 213.958> 378.711 135.396<77.6436 225.596>
LayerCount: 2
Fore
SplineSet
514.106445312 77.6435546875 m 1
 514.106445312 77.6435546875 515.877929688 36.9892578125 540.09375 37.087890625 c 1
 540.09375 0.03125 l 1
 353.412109375 0.03125 l 1
 353.412109375 9.3828125 l 1
 353.412109375 9.3828125 377.431640625 37.580078125 378.7109375 78.234375 c 2
 378.7109375 100.776367188 l 1
 378.7109375 225.595703125 l 1
 378.7109375 225.595703125 392.317382812 346.072265625 286.004882812 346.072265625 c 0
 183.530273438 346.072265625 191.635742188 213.663085938 191.635742188 213.663085938 c 1
 191.537109375 213.958007812 l 1
 191.537109375 98.611328125 l 1
 191.537109375 98.611328125 193.604492188 37.072265625 221.364257812 37.072265625 c 1
 221.364257812 -0.0673828125 l 1
 31.1064453125 -0.0673828125 l 1
 31.1064453125 36.0634765625 l 1
 31.1064453125 36.0634765625 59.9482421875 41.517578125 59.9482421875 99.2998046875 c 2
 59.9482421875 117.390625 l 1
 59.9482421875 394.317382812 l 1
 59.9482421875 394.317382812 58.9296875 439.599609375 37.5263671875 453.741210938 c 1
 182.2734375 474.413085938 l 1
 212.494140625 474.510742188 l 1
 212.494140625 474.510742188 187.119140625 467.817382812 187.119140625 441.140625 c 2
 187.119140625 425.106445312 l 1
 215.370117188 457.295898438 250.567382812 458.958007812 302.345703125 458.958007812 c 0
 438.330078125 458.958007812 513.700195312 385 513.909179688 305.198242188 c 2
 514.106445312 229.9921875 l 1
 514.106445312 77.6435546875 l 1
180.611328125 229.1171875 m 1
 182.580078125 231.0859375 l 1
 178.150390625 239.551757812 l 1
 175.689453125 239.551757812 l 1
 173.622070312 237.090820312 l 1
 173.228515625 234.334960938 l 1
 169.979492188 235.811523438 l 1
 170.373046875 231.283203125 l 1
 176.181640625 231.283203125 l 1
 180.611328125 229.1171875 l 1
EndSplineSet
Validated: 33
EndChar

StartChar: o
Encoding: 111 111 85
Width: 546
VWidth: 0
Flags: W
HStem: 0.251953 103.086<208.036 339.01> 364.744 99.9355<213.824 334.457>
VStem: 26.7861 134.607<153.376 308.07> 387.242 131.972<154.736 310.291>
LayerCount: 2
Fore
SplineSet
273 464.6796875 m 4
 401.263671875 464.6796875 519.213867188 382.200195312 519.213867188 232.465820312 c 4
 519.213867188 67.2001953125 401.263671875 0.251953125 273 0.251953125 c 4
 144.736328125 0.251953125 26.7861328125 84 26.7861328125 232.465820312 c 4
 26.7861328125 379.400390625 144.736328125 464.6796875 273 464.6796875 c 4
274.279296875 103.337890625 m 4
 343.280273438 103.337890625 387.2421875 156.799804688 387.2421875 234.041015625 c 4
 387.2421875 309.400390625 336.280273438 364.744140625 273 364.744140625 c 4
 213.080078125 364.744140625 161.393554688 302.400390625 161.393554688 232.465820312 c 4
 161.393554688 162.400390625 199.080078125 103.337890625 274.279296875 103.337890625 c 4
EndSplineSet
Validated: 1
EndChar

StartChar: p
Encoding: 112 112 86
Width: 548
VWidth: 0
Flags: W
HStem: 0.413086 114.133<214.486 357.048> 347.668 110.972<205.682 340.037>
VStem: 48.5459 116.025<-166.025 -84.707 -54.9785 39.8643 164.399 304.413> 389.72 117.665<148.776 296.711>
LayerCount: 2
Fore
SplineSet
295.624023438 458.639648438 m 0
 420.419921875 458.639648438 507.287109375 374.967773438 507.384765625 222.5859375 c 0
 507.384765625 83.5927734375 406.419921875 0 277.01953125 0.4130859375 c 0
 238.923828125 0.5341796875 200.008789062 5.9033203125 164.571289062 39.8642578125 c 1
 164.571289062 -65.9052734375 l 1
 159.05859375 -62.2626953125 l 1
 154.727539062 -54.978515625 l 1
 150.69140625 -58.62109375 l 1
 145.572265625 -58.62109375 l 1
 145.178710938 -66.49609375 l 1
 148.131835938 -63.837890625 l 1
 148.525390625 -68.5634765625 l 1
 150.396484375 -72.697265625 l 1
 158.07421875 -72.697265625 l 1
 158.763671875 -78.4072265625 l 1
 165.654296875 -84.70703125 l 1
 165.654296875 -174.294921875 l 2
 165.654296875 -220.138671875 189.672851562 -273.782226562 189.672851562 -273.782226562 c 1
 162.602539062 -273.68359375 l 1
 22.6572265625 -237.951171875 l 1
 48.15234375 -218.06640625 48.5458984375 -166.025390625 48.5458984375 -166.025390625 c 1
 48.5458984375 322.084960938 l 1
 48.5458984375 378.194335938 l 1
 48.5458984375 378.194335938 48.7431640625 378.29296875 48.939453125 378.587890625 c 2
 48.0537109375 378.194335938 l 1
 48.0537109375 378.194335938 44.21484375 414.736328125 26.791015625 411.684570312 c 1
 19.0146484375 417.689453125 l 1
 98.650390625 462.7734375 l 1
 160.633789062 462.7734375 l 1
 160.633789062 436.58984375 l 1
 192.232421875 448.795898438 231.639648438 458.639648438 290.013671875 458.639648438 c 1
 290.013671875 458.541015625 l 2
 291.883789062 458.639648438 293.75390625 458.639648438 295.624023438 458.639648438 c 0
288.044921875 114.545898438 m 0
 354.620117188 114.545898438 389.719726562 151.200195312 389.719726562 222.5859375 c 0
 389.719726562 316.400390625 318.219726562 347.66796875 277.40234375 347.66796875 c 0
 223.01953125 347.66796875 166.76953125 323.400390625 166.76953125 223.986328125 c 0
 166.76953125 172.200195312 207.620117188 114.545898438 288.044921875 114.545898438 c 0
EndSplineSet
Validated: 33
EndChar

StartChar: q
Encoding: 113 113 87
Width: 533
VWidth: 0
Flags: W
HStem: 0.311523 121.034<176.859 334.602> 346.188 110.774<190.621 324.62>
VStem: 29.8047 111.573<158.682 299.081> 370.256 116.812<-145.49 -88.3916 -58.7617 35.4648 156.19 299.609>
LayerCount: 2
Fore
SplineSet
595.645507812 -128.909179688 m 1
 598.794921875 -129.5 l 1
 592.396484375 -149.384765625 l 2
 582.4453125 -180.310546875 549.379882812 -211.083007812 549.379882812 -211.083007812 c 1
 482.0703125 -264.020507812 l 1
 430.095703125 -275.252929688 l 1
 429.997070312 -275.056640625 l 1
 429.208984375 -275.3515625 l 1
 360.237304688 -275.450195312 l 1
 360.237304688 -275.450195312 370.255859375 -240.1328125 370.255859375 -194.359375 c 2
 370.255859375 -88.3916015625 l 1
 377.146484375 -82.189453125 l 1
 377.8359375 -76.48046875 l 1
 385.513671875 -76.48046875 l 1
 387.286132812 -72.345703125 l 1
 387.6796875 -67.62109375 l 1
 390.6328125 -70.1806640625 l 1
 390.239257812 -62.404296875 l 1
 385.120117188 -62.404296875 l 1
 381.083984375 -58.76171875 l 1
 376.752929688 -66.0458984375 l 1
 371.338867188 -69.6884765625 l 1
 371.338867188 35.46484375 l 1
 341.599609375 9.7998046875 297.28125 0.390625 259.3828125 0.3115234375 c 0
 109.200195312 0 29.8046875 83.1962890625 29.8046875 221.795898438 c 0
 29.8046875 373.586914062 116.200195312 456.962890625 240.778320312 456.962890625 c 0
 242.549804688 456.962890625 244.419921875 456.865234375 246.291015625 456.865234375 c 2
 246.291015625 456.962890625 l 1
 355.599609375 456.962890625 375.177734375 421.01171875 375.177734375 421.01171875 c 1
 375.177734375 461.196289062 l 1
 409.0625 461.196289062 l 1
 502.501953125 416.209960938 l 1
 494.724609375 410.205078125 l 1
 487.200195312 403.200195312 487.560546875 376.813476562 487.560546875 376.813476562 c 1
 486.674804688 377.20703125 l 2
 486.970703125 377.009765625 487.068359375 376.813476562 487.068359375 376.813476562 c 1
 487.068359375 320.900390625 l 1
 487.068359375 -145.490234375 l 1
 487.068359375 -145.490234375 487.265625 -151.692382812 499.668945312 -163.8984375 c 1
 513.450195312 -155.236328125 518.174804688 -147.065429688 518.174804688 -147.065429688 c 1
 596.924804688 -126.197265625 595.645507812 -128.909179688 595.645507812 -128.909179688 c 1
248.259765625 121.345703125 m 0
 326.200195312 121.345703125 367.740234375 147 367.740234375 225.99609375 c 0
 367.740234375 323.400390625 296.799804688 346.188476562 260.301757812 346.188476562 c 0
 184.799804688 346.188476562 141.377929688 292.599609375 141.377929688 227.396484375 c 0
 141.377929688 151.200195312 190.400390625 121.345703125 248.259765625 121.345703125 c 0
EndSplineSet
Validated: 33
EndChar

StartChar: r
Encoding: 114 114 88
Width: 460
VWidth: 0
Flags: W
HStem: -0.0195312 40.6006<182.773 204.08> 349.795 104.432<197.726 265.68>
VStem: 54.0938 122.325<96.8867 261.103 277.936 328.823>
LayerCount: 2
Fore
SplineSet
376.5859375 420.96484375 m 1
 376.5859375 420.96484375 429.500976562 380.015625 427.45703125 337.063476562 c 2
 427.45703125 337.063476562 427.45703125 316.479492188 425.98046875 313.034179688 c 0
 424.50390625 309.588867188 354.12109375 265.149414062 354.12109375 265.149414062 c 1
 341.599609375 358.400390625 265.6796875 349.794921875 265.6796875 349.794921875 c 1
 199.234375 349.794921875 185.869140625 316.03125 176.418945312 299.296875 c 1
 176.418945312 277.935546875 l 1
 169.036132812 274.391601562 l 1
 168.249023438 271.143554688 l 1
 160.078125 271.143554688 l 1
 158.109375 268.78125 l 1
 157.715820312 266.123046875 l 1
 154.56640625 267.599609375 l 1
 154.959960938 263.169921875 l 1
 160.47265625 263.169921875 l 1
 164.803710938 261.102539062 l 1
 169.528320312 265.237304688 l 1
 175.434570312 267.3046875 l 1
 175.434570312 96.88671875 l 1
 175.434570312 96.88671875 177.403320312 40.5810546875 204.080078125 40.5810546875 c 1
 204.080078125 -0.01953125 l 1
 26.3349609375 -0.01953125 l 1
 26.3349609375 40.974609375 l 1
 26.3349609375 40.974609375 52.7158203125 41.171875 54.09375 97.4775390625 c 2
 54.09375 128.682617188 l 1
 54.09375 416.349609375 l 1
 54.09375 416.349609375 51.373046875 439.110351562 18.2001953125 447.28125 c 1
 141.069335938 467.362304688 l 1
 202.30859375 467.4609375 l 1
 202.30859375 467.4609375 176.517578125 458.1640625 176.517578125 432.17578125 c 2
 176.517578125 425.865234375 l 1
 201.619140625 454.1171875 250.772460938 454.2265625 292.509765625 454.2265625 c 0
 337.59375 454.2265625 376.5859375 420.96484375 376.5859375 420.96484375 c 1
EndSplineSet
Validated: 33
EndChar

StartChar: s
Encoding: 115 115 89
Width: 362
VWidth: 0
Flags: W
HStem: 332.576 105.963<267.945 310.766>
VStem: 24.5205 314.891
LayerCount: 2
Fore
SplineSet
339.411132812 143.489257812 m 5
 339.411132812 143.489257812 348.098632812 116.200195312 306.784179688 57.3671875 c 5
 306.784179688 57.3671875 262.400390625 -3.4892578125 168.392578125 0.6455078125 c 5
 168.392578125 0.6455078125 56.119140625 0.7001953125 24.5205078125 63.6015625 c 5
 24.5205078125 163.997070312 l 5
 68.8505859375 163.997070312 l 5
 68.8505859375 163.997070312 77.8984375 116.200195312 156.678710938 111.759765625 c 5
 156.678710938 111.759765625 232.059570312 100.799804688 232.059570312 153.201171875 c 5
 232.059570312 153.201171875 235.200195312 186.200195312 132.440429688 201.293945312 c 5
 132.440429688 201.293945312 138.051757812 214.681640625 160.495117188 225.903320312 c 5
 146.221679688 225.903320312 l 5
 137.4609375 217.831054688 l 5
 131.259765625 218.421875 l 5
 127.518554688 211.53125 l 5
 117.577148438 210.940429688 l 5
 117.577148438 210.940429688 35.2392578125 252 35.2392578125 346.205078125 c 5
 35.2392578125 346.205078125 37.5693359375 431.309570312 119.173828125 457.494140625 c 5
 119.173828125 457.494140625 207.997070312 491.498046875 310.765625 438.5390625 c 5
 310.765625 332.576171875 l 5
 267.9453125 332.576171875 l 5
 267.9453125 332.576171875 187.599609375 408.799804688 140.8984375 347.200195312 c 5
 140.8984375 347.200195312 119.478515625 317.939453125 181.057617188 290.325195312 c 6
 181.057617188 290.325195312 202.498046875 280 279.265625 250.775390625 c 5
 279.265625 250.775390625 339.411132812 228.200195312 339.411132812 143.489257812 c 5
EndSplineSet
Validated: 33
EndChar

StartChar: t
Encoding: 116 116 90
Width: 410
VWidth: 0
Flags: W
HStem: -0.263672 50.0498<265.847 284.331> 367.258 82.6328<44.4277 129.599> 370.211 95.8896<268.013 313.01>
VStem: 130.506 124.098<148.421 367.849 458.422 461.999> 188.158 68.3369<527.489 558.981>
LayerCount: 2
Fore
SplineSet
392.448242188 468.561523438 m 6x80
 392.0546875 468.856445312 391.661132812 468.955078125 391.661132812 468.955078125 c 5
 392.448242188 468.561523438 l 6x80
392.448242188 468.561523438 m 6
 397.173828125 466.198242188 l 5
 376.009765625 398.495117188 l 5
 360.780273438 372.400390625 313.009765625 370.583007812 313.009765625 370.583007812 c 5
 254.8984375 370.2109375 l 5xa8
 254.603515625 148.420898438 l 5
 254.603515625 148.420898438 256.669921875 49.7861328125 284.331054688 49.7861328125 c 5
 284.331054688 -0.263671875 l 5
 101.762695312 -0.263671875 l 5
 101.762695312 50.4755859375 l 5
 101.762695312 50.4755859375 129.029296875 50.9677734375 130.505859375 149.700195312 c 6
 130.505859375 204.431640625 l 5
 130.900390625 367.848632812 l 5
 108.849609375 367.2578125 l 5
 13.0263671875 367.2578125 l 5
 13.0263671875 393.486328125 l 5
 44.427734375 449.890625 l 5
 129.598632812 449.890625 l 5xd0
 129.598632812 461.999023438 l 5
 129.598632812 461.999023438 187.9609375 547.463867188 188.158203125 599.439453125 c 5
 256.495117188 558.981445312 l 5
 256.396484375 458.421875 l 5
 264.370117188 462.655273438 268.012695312 466.100585938 268.012695312 466.100585938 c 5xa8
 407.596679688 458.619140625 395.794921875 466.592773438 392.448242188 468.561523438 c 6
EndSplineSet
Validated: 37
EndChar

StartChar: u
Encoding: 117 117 91
Width: 503
VWidth: 0
Flags: W
HStem: 0.349609 111.027<249.314 306.015> 438.981 19.6826G<33.3428 181.262 324.455 470.657>
VStem: 50.4707 113.663<155.143 396.703> 341.584 111.945<158.834 164.544 164.685 397.021>
LayerCount: 2
Fore
SplineSet
324.455078125 458.981445312 m 1
 470.657226562 458.762695312 l 1
 470.657226562 423.182617188 l 1
 470.657226562 423.182617188 452.938476562 415.603515625 453.529296875 387.3515625 c 0
 454.119140625 359.099609375 453.134765625 164.543945312 453.134765625 164.543945312 c 1
 453.134765625 158.833984375 l 1
 448.803710938 150.861328125 l 1
 453.134765625 149.482421875 l 1
 453.134765625 149.482421875 455 0 244.196289062 0.349609375 c 0
 49 0.673828125 50.373046875 154.995117188 50.373046875 154.995117188 c 1
 50.373046875 154.995117188 49.880859375 359.001953125 50.470703125 387.252929688 c 0
 51.0615234375 415.504882812 33.3427734375 423.083984375 33.3427734375 423.083984375 c 1
 33.3427734375 458.6640625 l 1
 181.26171875 458.6640625 l 1
 181.26171875 424.560546875 l 1
 163.54296875 417.669921875 164.133789062 396.703125 164.133789062 396.703125 c 1
 164.133789062 223.890625 l 2
 164.133789062 110.490234375 249.314453125 111.376953125 249.314453125 111.376953125 c 1
 323.930664062 111.376953125 336.46484375 168.174804688 340.599609375 201.643554688 c 0
 340.89453125 208.435546875 341.189453125 215.5234375 341.583984375 222.90625 c 2
 341.288085938 233.2421875 l 1
 341.583984375 397.020507812 l 1
 341.583984375 397.020507812 342.173828125 417.987304688 324.455078125 424.877929688 c 1
 324.455078125 458.981445312 l 1
EndSplineSet
Validated: 33
EndChar

StartChar: v
Encoding: 118 118 92
Width: 564
VWidth: 0
Flags: W
HStem: 0.349609 21G<223.142 355.907> 445.369 20.0977G<35.4434 216.611 355.887 355.988>
LayerCount: 2
Fore
SplineSet
355.98828125 465.369140625 m 1
 355.98828125 465.270507812 l 1
 528.756835938 465.270507812 l 1
 528.756835938 425.458007812 l 1
 528.756835938 425.458007812 502.27734375 417.877929688 474.22265625 349.5625 c 2
 444.69140625 281.739257812 l 1
 447.939453125 292.862304688 l 1
 444.396484375 292.271484375 l 1
 447.15234375 295.126953125 l 1
 449.711914062 304.083984375 l 1
 448.727539062 301.623046875 l 1
 447.841796875 299.260742188 l 1
 447.841796875 299.260742188 445.282226562 298.669921875 443.412109375 298.669921875 c 0
 441.541015625 298.669921875 447.841796875 301.328125 447.841796875 301.328125 c 1
 444.592773438 301.328125 l 1
 444.592773438 319.046875 l 1
 441.73828125 320.916992188 l 1
 447.447265625 301.130859375 438.883789062 290.9921875 438.883789062 290.9921875 c 1
 441.443359375 287.841796875 l 1
 441.443359375 284.692382812 l 1
 444.494140625 281.837890625 l 1
 349.130859375 0.349609375 l 1
 231.530273438 0.349609375 l 1
 86.138671875 347.002929688 l 1
 86.138671875 347.002929688 52.767578125 415.318359375 35.443359375 427.328125 c 1
 35.443359375 465.466796875 l 1
 216.611328125 465.466796875 l 1
 216.513671875 427.426757812 l 1
 216.513671875 427.426757812 172.01953125 415.712890625 215.233398438 312.943359375 c 2
 287.344726562 149.40625 l 1
 291.938476562 149.40625 l 1
 370.852539062 353.0078125 l 1
 370.852539062 353.0078125 396.150390625 413.0546875 355.791015625 426.34375 c 1
 355.98828125 465.369140625 l 1
EndSplineSet
Validated: 37
EndChar

StartChar: w
Encoding: 119 119 93
Width: 723
VWidth: 0
Flags: W
HStem: 0.251953 21G<165.652 273.108 453.85 555.503> 357.525 25.0244<274.553 289.602 435.309 448.951>
VStem: 274.356 174.792<284.034 382.55>
LayerCount: 2
Fore
SplineSet
526.564453125 466.549804688 m 1
 683.877929688 466.549804688 l 1
 683.877929688 442.411132812 l 1
 669.703125 430.302734375 642.534179688 361.888671875 642.534179688 361.888671875 c 1
 550.408203125 0.251953125 l 1
 463.072265625 0.251953125 l 1
 391.015625 156.526367188 l 1
 393.4765625 159.380859375 l 1
 393.4765625 162.53125 l 1
 395.543945312 165.681640625 l 1
 395.543945312 165.681640625 388.5546875 175.918945312 393.279296875 195.705078125 c 1
 391.015625 193.833984375 l 1
 391.015625 176.115234375 l 1
 388.357421875 176.115234375 l 1
 388.357421875 176.115234375 393.4765625 173.458007812 392 173.458007812 c 0
 390.424804688 173.458007812 388.357421875 174.048828125 388.357421875 174.048828125 c 1
 387.668945312 176.411132812 l 1
 386.880859375 178.872070312 l 1
 388.948242188 169.9140625 l 1
 391.212890625 167.059570312 l 1
 388.357421875 167.650390625 l 1
 391.015625 156.427734375 l 1
 364.700195312 207.123046875 l 1
 338.384765625 156.427734375 l 1
 341.041992188 167.650390625 l 1
 338.1875 167.059570312 l 1
 340.451171875 169.9140625 l 1
 342.518554688 178.872070312 l 1
 341.731445312 176.411132812 l 1
 341.041992188 174.048828125 l 1
 341.041992188 174.048828125 338.876953125 173.458007812 337.400390625 173.458007812 c 0
 335.923828125 173.458007812 341.041992188 176.115234375 341.041992188 176.115234375 c 1
 338.384765625 176.115234375 l 1
 338.384765625 193.833984375 l 1
 336.120117188 195.705078125 l 1
 340.845703125 175.918945312 333.856445312 165.681640625 333.856445312 165.681640625 c 1
 335.923828125 162.53125 l 1
 335.923828125 159.380859375 l 1
 338.384765625 156.526367188 l 1
 263.528320312 0.251953125 l 1
 170.591796875 0.251953125 l 1
 81.265625 361.888671875 l 1
 81.265625 361.888671875 65.099609375 424.200195312 39.921875 442.411132812 c 1
 39.921875 466.549804688 l 1
 196.940429688 466.549804688 l 1
 196.841796875 442.509765625 l 1
 196.841796875 442.509765625 160.6171875 430.794921875 195.857421875 327.731445312 c 2
 235.123046875 177.701171875 l 1
 245.754882812 177.701171875 l 1
 286.661132812 283.9921875 l 1
 286.661132812 283.9921875 314.740234375 341.599609375 274.356445312 357.525390625 c 1
 274.552734375 382.549804688 l 1
 277.505859375 382.549804688 l 1
 445.998046875 382.549804688 l 1
 448.951171875 382.549804688 l 1
 449.1484375 357.525390625 l 1
 412.740234375 340.200195312 436.84375 283.9921875 436.84375 283.9921875 c 1
 477.848632812 177.701171875 l 1
 488.479492188 177.701171875 l 1
 527.646484375 327.731445312 l 2
 562.986328125 430.794921875 526.662109375 442.509765625 526.662109375 442.509765625 c 1
 526.564453125 466.549804688 l 1
EndSplineSet
Validated: 33
EndChar

StartChar: x
Encoding: 120 120 94
Width: 525
VWidth: 0
Flags: W
HStem: 0.251953 25.2109<188.454 206.932 468.29 492.259> 439.414 22.6074<27.4258 44.3114 317.149 335.325>
LayerCount: 2
Fore
SplineSet
445.500976562 65.1875 m 1
 445.500976562 65.1875 471.381835938 23.7998046875 492.258789062 25.462890625 c 1
 492.258789062 0.251953125 l 1
 302.28515625 0.251953125 l 1
 302.383789062 23.767578125 l 1
 302.383789062 23.767578125 335.75390625 41.267578125 303.663085938 83.201171875 c 2
 261.81640625 151.768554688 l 1
 252.016601562 151.768554688 l 1
 192.461914062 61.8408203125 l 1
 192.461914062 61.8408203125 171.78125 37.7998046875 207.12890625 22.859375 c 1
 206.931640625 0.251953125 l 1
 29.208984375 0.251953125 l 1
 29.208984375 24.751953125 l 1
 29.208984375 24.751953125 40.9990234375 27.3876953125 68.365234375 63.7109375 c 2
 176.537109375 229.927734375 l 1
 64.482421875 397.184570312 l 1
 64.482421875 397.184570312 44.3818359375 439.599609375 27.42578125 439.611328125 c 1
 27.42578125 462.021484375 l 1
 207.599609375 462.021484375 l 1
 207.500976562 439.90625 l 1
 207.500976562 439.90625 174.130859375 421.005859375 206.220703125 379.072265625 c 2
 259.290039062 292.676757812 l 1
 250.76953125 292.479492188 l 1
 246.241210938 289.1328125 l 1
 230.196289062 289.1328125 l 1
 229.60546875 285.392578125 l 1
 219.860351562 281.159179688 l 1
 236.693359375 279.486328125 l 1
 239.94140625 282.833007812 l 1
 252.443359375 281.947265625 l 1
 257.857421875 285.6875 l 1
 255.69140625 277.713867188 l 1
 272.91796875 299.3046875 l 1
 276.264648438 299.3046875 l 1
 331.619140625 400.432617188 l 1
 331.619140625 400.432617188 356.58203125 427 316.952148438 439.4140625 c 1
 317.149414062 462.021484375 l 1
 497.57421875 462.021484375 l 5
 497.57421875 438.921875 l 5
 497.57421875 438.921875 478.783203125 434.885742188 451.41796875 398.5625 c 2
 347.446289062 228.244140625 l 1
 445.500976562 65.1875 l 1
EndSplineSet
Validated: 33
EndChar

StartChar: y
Encoding: 121 121 95
Width: 581
VWidth: 0
Flags: W
HStem: 442.771 20.0977G<31.4756 226.645 360.46 360.617>
VStem: 18.1152 9.24219<-143.376 -140.271>
LayerCount: 2
Fore
SplineSet
360.6171875 462.771484375 m 5
 360.6171875 462.672851562 l 5
 548.884765625 462.672851562 l 5
 548.884765625 436.860351562 l 5
 548.884765625 436.860351562 522.405273438 429.280273438 494.251953125 360.96484375 c 6
 464.720703125 293.04296875 l 5
 467.96875 304.166015625 l 5
 464.42578125 303.576171875 l 5
 467.181640625 306.430664062 l 5
 469.741210938 315.388671875 l 5
 468.756835938 312.927734375 l 5
 467.87109375 310.564453125 l 5
 467.87109375 310.564453125 465.311523438 309.974609375 463.44140625 309.974609375 c 4
 461.5703125 309.974609375 467.87109375 312.631835938 467.87109375 312.631835938 c 5
 464.622070312 312.631835938 l 5
 464.622070312 330.350585938 l 5
 461.767578125 332.220703125 l 5
 467.4765625 312.533203125 458.913085938 302.295898438 458.913085938 302.295898438 c 5
 461.47265625 299.146484375 l 5
 461.47265625 295.99609375 l 5
 464.5234375 293.141601562 l 5
 316.780273438 -134.400390625 l 6
 212.19140625 -437.05859375 22.921875 -140.270507812 18.115234375 -163.18359375 c 5
 27.357421875 -81.5361328125 l 5
 91.587890625 -52.751953125 l 5
 196.379882812 -252 266.379882812 14 221.6015625 83.3603515625 c 5
 82.1708984375 358.405273438 l 5
 82.1708984375 358.405273438 48.8984375 426.720703125 31.4755859375 438.73046875 c 5
 31.4755859375 462.869140625 l 5
 226.64453125 462.869140625 l 5
 226.545898438 438.829101562 l 5
 226.545898438 438.829101562 182.051757812 427.115234375 225.265625 324.248046875 c 6
 296.075195312 180.211914062 l 5
 303.46875 180.211914062 l 5
 375.481445312 364.311523438 l 5
 375.481445312 364.311523438 400.780273438 424.45703125 360.420898438 437.74609375 c 5
 360.6171875 462.771484375 l 5
EndSplineSet
Validated: 37
EndChar

StartChar: z
Encoding: 122 122 96
Width: 481
VWidth: 0
Flags: W
HStem: 0.342773 105.115<187.852 241.029 257.142 345.089> 362.57 101.331<120.794 318.425>
VStem: 411.872 39.96<111.093 128.317>
LayerCount: 2
Fore
SplineSet
451.83203125 463.901367188 m 1
 451.733398438 463.901367188 l 1
 451.733398438 349.37109375 l 1
 187.8515625 106.7265625 l 1
 241.029296875 106.7265625 l 1
 244.390625 98.529296875 l 1
 247.454101562 97.650390625 l 1
 247.454101562 88.576171875 l 1
 249.7265625 86.427734375 l 1
 252.296875 86.0380859375 l 1
 250.913085938 82.6220703125 l 1
 255.1640625 83.0126953125 l 1
 255.1640625 89.0625 l 1
 257.141601562 93.8447265625 l 1
 253.186523438 99.017578125 l 1
 251.2109375 105.458007812 l 1
 345.088867188 105.458007812 l 1
 345.088867188 105.458007812 410.852539062 103.599609375 411.872070312 128.317382812 c 1
 451.83203125 135.317382812 l 1
 451.83203125 0.3427734375 l 1
 39.35546875 0.3427734375 l 1
 39.35546875 0.3427734375 39.35546875 0.3427734375 29.767578125 0.3427734375 c 1
 29.767578125 88.2373046875 l 1
 29.767578125 116.829101562 l 1
 33.919921875 120.244140625 l 1
 318.424804688 363.545898438 l 1
 120.793945312 362.5703125 l 1
 120.793945312 362.5703125 73.8798828125 361.498046875 67.35546875 343.932617188 c 1
 29.767578125 338.270507812 l 1
 29.767578125 453.264648438 l 1
 29.767578125 463.901367188 l 1
 439.872070312 463.901367188 l 1
 451.83203125 463.901367188 l 1
EndSplineSet
Validated: 37
EndChar

StartChar: at
Encoding: 64 64 97
Width: 932
VWidth: 0
Flags: W
HStem: 0.157227 101.305<655.027 735.036>
VStem: 537.137 136.423<144.248 229.538>
LayerCount: 2
Fore
SplineSet
708.36328125 0.1572265625 m 2
 655.02734375 101.461914062 l 1
 740.072265625 101.461914062 833.7578125 158.815429688 754.529296875 369.588867188 c 0
 693.444335938 532.079101562 536.499023438 566.85546875 414.329101562 533.489257812 c 0
 292.16015625 500.125 187.125976562 418.6796875 160.2109375 264.051757812 c 0
 133.903320312 112.649414062 213.03125 -108.203125 485.19140625 -92.880859375 c 0
 522.487304688 -90.7646484375 515.733398438 -78.9716796875 519.866210938 -85.9267578125 c 0
 523.999023438 -92.880859375 501.823242188 -97.115234375 489.323242188 -106.791992188 c 0
 476.82421875 -116.569335938 333.7890625 -195.696289062 231.075195312 -158.200195312 c 0
 128.359375 -120.702148438 44.19140625 16.5869140625 35.3212890625 134.825195312 c 0
 20.0986328125 338.9453125 81.890625 486.315429688 290.848632812 604.150390625 c 0
 399.108398438 665.235351562 564.419921875 659.69140625 649.091796875 633.28125 c 0
 724.995117188 609.694335938 821.540039062 544.588867188 871.254882812 387.530273438 c 0
 958.47265625 112 824.072265625 0 714.208984375 0.0556640625 c 0
 712.091796875 0.0576171875 710.377929688 0.1572265625 708.36328125 0.1572265625 c 2
706.098632812 41.9169921875 m 1
 708.36328125 37.68359375 l 1
 708.36328125 0.1572265625 l 1
 545.426757812 0.1572265625 l 1
 536.86328125 13.9169921875 l 1
 537.256835938 41.435546875 l 1
 438.392578125 -0.4990234375 l 1
 438.392578125 -0.4990234375 317.587890625 -44.4345703125 255.178710938 45.33984375 c 1
 255.178710938 45.33984375 214.327148438 93.6728515625 265.711914062 214.258789062 c 0
 278.90234375 245.365234375 413.389648438 304.12109375 413.389648438 304.12109375 c 1
 538.536132812 325.77734375 l 1
 538.536132812 325.77734375 538.944335938 428.400390625 355.79296875 333.313476562 c 1
 327.344726562 308.409179688 l 1
 297.82421875 304.044921875 l 1
 297.233398438 413.22265625 l 1
 297.233398438 413.22265625 542.44140625 545.599609375 656.431640625 392.922851562 c 1
 656.431640625 392.922851562 673.559570312 361.620117188 673.559570312 275.584960938 c 0
 673.559570312 189.55078125 673.559570312 87.1982421875 673.559570312 87.1982421875 c 1
 673.559570312 87.1982421875 676.056640625 53.45703125 698.168945312 46.6416015625 c 0
 704.143554688 44.7998046875 706.098632812 41.9169921875 706.098632812 41.9169921875 c 1
537.235351562 144.248046875 m 1
 537.13671875 144.248046875 l 1
 538.536132812 229.538085938 l 1
 458.211914062 229.045898438 447.798828125 195.303710938 447.798828125 195.303710938 c 1
 389.327148438 230.938476562 377.383789062 181.424804688 377.383789062 181.424804688 c 1
 345.744140625 46.2001953125 460.606445312 112.365234375 460.606445312 112.365234375 c 1
 537.235351562 144.248046875 l 1
EndSplineSet
Validated: 37
EndChar

StartChar: Edieresis
Encoding: 203 203 98
Width: 558
VWidth: 0
Flags: W
HStem: 0.420898 120.323<257.836 394.423 394.485 452.807> 344.799 83.0596<217.399 285.973> 660.313 112.94<302.744 355.868>
VStem: 71.5479 146.146<164.638 344.799 427.858 524.579 554.11 647.095> 138.917 115.216<861.637 921.962> 301.317 115.216<861.637 921.962> 487.993 35.0869<590.423 620.286>
LayerCount: 2
Fore
SplineSet
416.533203125 921.961914062 m 5xe6
 416.533203125 861.63671875 l 5
 358.923828125 828.119140625 l 5
 301.317382812 861.63671875 l 5
 301.317382812 921.961914062 l 5
 360.04296875 956.6015625 l 5
 416.533203125 921.961914062 l 5xe6
254.1328125 921.961914062 m 1xee
 254.1328125 861.63671875 l 1
 196.5234375 828.119140625 l 1
 138.916992188 861.63671875 l 1
 138.916992188 921.961914062 l 1
 197.643554688 956.6015625 l 1
 254.1328125 921.961914062 l 1xee
523.080078125 590.422851562 m 1
 487.993164062 589.83203125 l 1
 467.71484375 660.313476562 355.868164062 660.313476562 355.868164062 660.313476562 c 1
 302.744140625 660.313476562 l 1
 302.744140625 660.313476562 228.030273438 665.333984375 218.580078125 619.658203125 c 1
 218.580078125 554.110351562 l 1
 208.93359375 547.810546875 l 1
 207.94921875 542.001953125 l 1
 197.219726562 542.001953125 l 1
 194.66015625 537.76953125 l 1
 194.16796875 533.044921875 l 1
 190.131835938 535.702148438 l 1
 190.624023438 527.827148438 l 1
 197.711914062 527.827148438 l 1
 202.732421875 524.579101562 l 1
 205.193359375 526.350585938 l 1
 209.524414062 531.469726562 l 1
 217.202148438 535.111328125 l 1
 217.30078125 427.858398438 l 1
 273.700195312 427.858398438 286.009765625 449.897460938 286.009765625 449.897460938 c 1
 443.099609375 441 460.748046875 456.88671875 460.748046875 456.88671875 c 1
 450.099609375 422.799804688 l 1
 438.205078125 380.673828125 l 2
 421.56640625 345.249023438 317.641601562 344.634765625 317.641601562 344.634765625 c 1
 217.399414062 344.798828125 l 1
 217.694335938 227.352539062 l 2
 220.155273438 199.297851562 234.870117188 120.744140625 323.12109375 120.744140625 c 0
 465.5 120.744140625 479.822265625 165.041015625 479.822265625 165.041015625 c 1
 523.080078125 165.041015625 l 1
 523.080078125 0.51953125 l 1
 479.374023438 0.6181640625 394.422851562 0.4208984375 394.422851562 0.4208984375 c 1
 210.541015625 0.716796875 l 1
 210.344726562 0.51953125 l 1
 35.51953125 0.51953125 l 1
 35.51953125 83.75390625 l 1
 35.51953125 83.75390625 68.5947265625 83.064453125 71.5478515625 177.26953125 c 2xf6
 71.744140625 582.646484375 l 1
 71.744140625 618.37890625 l 2
 70.46484375 635.408203125 67.216796875 655.587890625 59.341796875 671.633789062 c 0
 54.025390625 681.083984375 46.4462890625 689.943359375 35.51953125 696.045898438 c 1
 35.51953125 696.63671875 l 1
 35.51953125 772.663085938 l 1
 35.51953125 773.25390625 l 1
 88.873046875 773.25390625 l 1
 253.952148438 773.25390625 l 1
 523.080078125 773.25390625 l 1
 523.080078125 590.422851562 l 1
EndSplineSet
Validated: 33
EndChar

StartChar: AE
Encoding: 198 198 99
Width: 1115
VWidth: 0
Flags: W
HStem: 0.420898 120.323<805.169 941.756 941.818 1000.14> 344.799 83.0596<764.732 833.306> 661.713 111.541<850.077 903.201>
VStem: 619.077 146.836<326.578 344.799 427.858 525.979 555.51 648.806> 1035.33 35.0869<591.822 621.686>
LayerCount: 2
Fore
SplineSet
526.63671875 295.974609375 m 1
 535.328125 301.6015625 l 2
 530.595703125 303.752929688 528.802734375 305.805664062 528.451171875 307.553710938 c 2
 521.0390625 295.974609375 l 1
 526.63671875 295.974609375 l 1
1070.41308594 591.822265625 m 1
 1035.32617188 591.232421875 l 1
 1015.04785156 661.712890625 903.201171875 661.712890625 903.201171875 661.712890625 c 1
 850.077148438 661.712890625 l 1
 850.077148438 661.712890625 775.36328125 666.733398438 765.913085938 621.05859375 c 1
 765.913085938 555.509765625 l 1
 756.266601562 549.209960938 l 1
 755.282226562 543.40234375 l 1
 744.552734375 543.40234375 l 1
 741.993164062 539.169921875 l 1
 741.500976562 534.444335938 l 1
 737.46484375 537.102539062 l 1
 737.95703125 529.227539062 l 1
 745.044921875 529.227539062 l 1
 750.065429688 525.978515625 l 1
 752.526367188 527.750976562 l 1
 756.857421875 532.869140625 l 1
 764.53515625 536.51171875 l 1
 764.633789062 427.858398438 l 1
 821.033203125 427.858398438 833.342773438 449.897460938 833.342773438 449.897460938 c 1
 990.432617188 441 1008.08105469 456.88671875 1008.08105469 456.88671875 c 1
 997.432617188 422.799804688 l 1
 985.538085938 380.673828125 l 1
 968.899414062 345.249023438 864.974609375 344.634765625 864.974609375 344.634765625 c 1
 764.732421875 344.798828125 l 1
 765.02734375 227.352539062 l 2
 767.48828125 199.297851562 782.203125 120.744140625 870.454101562 120.744140625 c 0
 1012.83300781 120.744140625 1027.15527344 165.041015625 1027.15527344 165.041015625 c 1
 1070.41308594 165.041015625 l 1
 1070.41308594 0.51953125 l 1
 1026.70703125 0.6181640625 941.755859375 0.4208984375 941.755859375 0.4208984375 c 1
 757.874023438 0.716796875 l 1
 757.677734375 0.51953125 l 1
 582.852539062 0.51953125 l 1
 582.852539062 0.9013671875 l 1
 577.02734375 0.9013671875 l 1
 577.02734375 45.9794921875 l 1
 577.02734375 45.9794921875 595.967773438 70.6220703125 553.102539062 122.250976562 c 2
 510.65234375 173.379882812 l 1
 468.873046875 161.638671875 424.203125 163.966796875 424.203125 163.966796875 c 1
 279.114257812 158.727539062 l 1
 231.580078125 78.6806640625 l 1
 223.579101562 48.6962890625 234.840820312 45.9794921875 234.840820312 45.9794921875 c 1
 234.840820312 0.9013671875 l 1
 209.159179688 0.9013671875 l 1
 45.38671875 0.9013671875 l 1
 45.38671875 47.0478515625 l 1
 51.90625 52.578125 61.2900390625 68.0078125 70.4755859375 85.2783203125 c 2
 398.56640625 775.672851562 l 1
 618.953125 326.578125 l 1
 619.077148438 582.646484375 l 1
 619.077148438 618.37890625 l 2
 617.797851562 635.408203125 614.549804688 655.587890625 606.674804688 671.633789062 c 0
 601.358398438 681.083984375 593.779296875 689.943359375 582.852539062 696.045898438 c 1
 582.852539062 696.63671875 l 1
 582.852539062 772.663085938 l 1
 582.852539062 773.25390625 l 1
 636.206054688 773.25390625 l 1
 801.28515625 773.25390625 l 1
 1070.41308594 773.25390625 l 1
 1070.41308594 591.822265625 l 1
497.470703125 295.974609375 m 1
 488.609375 309.364257812 l 1
 488.609375 317.126953125 l 1
 472.609375 318.875 l 1
 402.254882812 496.096679688 l 1
 380.229492188 447.381835938 l 2
 378.84765625 449.130859375 376.575195312 451.84765625 374.006835938 453.787109375 c 0
 369.958007812 456.892578125 365.415039062 474.940429688 360.376953125 455.245117188 c 1
 363.833007812 451.458984375 l 1
 362.74609375 447.381835938 l 1
 368.375976562 443.403320312 l 1
 372.327148438 430.111328125 l 1
 307.6484375 257.643554688 l 1
 377.481445312 267.250976562 392.026367188 304.998046875 392.026367188 304.998046875 c 1
 452.276367188 301.892578125 425.423828125 300.825195312 458.509765625 301.01953125 c 1
 481.400390625 282.583007812 l 1
 481.400390625 295.974609375 l 1
 497.470703125 295.974609375 l 1
EndSplineSet
Validated: 33
EndChar

StartChar: Ecircumflex
Encoding: 202 202 100
Width: 558
VWidth: 0
Flags: W
HStem: 0.420898 120.323<257.836 394.423 394.485 452.807> 344.799 83.0596<217.399 285.973> 660.313 112.94<302.744 355.868>
VStem: 71.5479 146.146<164.638 344.799 427.858 524.579 554.11 647.095> 487.993 35.0869<590.423 620.286>
LayerCount: 2
Fore
SplineSet
322.861328125 862.51171875 m 5
 322.861328125 862.51171875 315.682617188 876.120117188 285.681640625 913.233398438 c 5
 253.44921875 883.739257812 245.520507812 867.200195312 245.520507812 867.200195312 c 5
 245.520507812 867.200195312 157.489257812 850.633789062 156.505859375 851.169921875 c 4
 150.209960938 854.608398438 267.866210938 1012.71777344 284.565429688 1035.08789062 c 4
 285.146484375 1036.25 285.727539062 1037.45507812 286.3515625 1038.75097656 c 6
 286.3515625 1038.75097656 411.866210938 848.267578125 404.85546875 844.962890625 c 4
 403.829101562 844.471679688 322.861328125 862.51171875 322.861328125 862.51171875 c 5
523.080078125 590.422851562 m 1
 487.993164062 589.83203125 l 1
 467.71484375 660.313476562 355.868164062 660.313476562 355.868164062 660.313476562 c 1
 302.744140625 660.313476562 l 1
 302.744140625 660.313476562 228.030273438 665.333984375 218.580078125 619.658203125 c 1
 218.580078125 554.110351562 l 1
 208.93359375 547.810546875 l 1
 207.94921875 542.001953125 l 1
 197.219726562 542.001953125 l 1
 194.66015625 537.76953125 l 1
 194.16796875 533.044921875 l 1
 190.131835938 535.702148438 l 1
 190.624023438 527.827148438 l 1
 197.711914062 527.827148438 l 1
 202.732421875 524.579101562 l 1
 205.193359375 526.350585938 l 1
 209.524414062 531.469726562 l 1
 217.202148438 535.111328125 l 1
 217.30078125 427.858398438 l 1
 273.700195312 427.858398438 286.009765625 449.897460938 286.009765625 449.897460938 c 1
 443.099609375 441 460.748046875 456.88671875 460.748046875 456.88671875 c 1
 450.099609375 422.799804688 l 1
 438.205078125 380.673828125 l 2
 421.56640625 345.249023438 317.641601562 344.634765625 317.641601562 344.634765625 c 1
 217.399414062 344.798828125 l 1
 217.694335938 227.352539062 l 2
 220.155273438 199.297851562 234.870117188 120.744140625 323.12109375 120.744140625 c 0
 465.5 120.744140625 479.822265625 165.041015625 479.822265625 165.041015625 c 1
 523.080078125 165.041015625 l 1
 523.080078125 0.51953125 l 1
 479.374023438 0.6181640625 394.422851562 0.4208984375 394.422851562 0.4208984375 c 1
 210.541015625 0.716796875 l 1
 210.344726562 0.51953125 l 1
 35.51953125 0.51953125 l 1
 35.51953125 83.75390625 l 1
 35.51953125 83.75390625 68.5947265625 83.064453125 71.5478515625 177.26953125 c 2
 71.744140625 582.646484375 l 1
 71.744140625 618.37890625 l 2
 70.46484375 635.408203125 67.216796875 655.587890625 59.341796875 671.633789062 c 0
 54.025390625 681.083984375 46.4462890625 689.943359375 35.51953125 696.045898438 c 1
 35.51953125 696.63671875 l 1
 35.51953125 772.663085938 l 1
 35.51953125 773.25390625 l 1
 88.873046875 773.25390625 l 1
 253.952148438 773.25390625 l 1
 523.080078125 773.25390625 l 1
 523.080078125 590.422851562 l 1
EndSplineSet
Validated: 33
EndChar

StartChar: Eacute
Encoding: 201 201 101
Width: 558
VWidth: 0
Flags: W
HStem: 0.420898 120.323<257.836 394.423 394.485 452.807> 344.799 83.0596<217.399 285.973> 660.313 112.94<302.744 355.868>
VStem: 71.5479 146.146<164.638 344.799 427.858 524.579 554.11 647.095> 487.993 35.0869<590.423 620.286>
LayerCount: 2
Fore
SplineSet
361.484375 1003.48046875 m 5
 361.484375 1003.48046875 384.178710938 950.526367188 357.916992188 907.970703125 c 4
 340.833007812 880.288085938 270.362304688 851.651367188 270.362304688 851.651367188 c 6
 246.25390625 836.141601562 196.90234375 830.025390625 196.90234375 830.025390625 c 5
 311.5234375 896.328125 265.467773438 948.79296875 265.467773438 948.79296875 c 5
 295.927734375 1009.57519531 l 5
 361.484375 1003.48046875 l 5
523.080078125 590.422851562 m 1
 487.993164062 589.83203125 l 1
 467.71484375 660.313476562 355.868164062 660.313476562 355.868164062 660.313476562 c 1
 302.744140625 660.313476562 l 1
 302.744140625 660.313476562 228.030273438 665.333984375 218.580078125 619.658203125 c 1
 218.580078125 554.110351562 l 1
 208.93359375 547.810546875 l 1
 207.94921875 542.001953125 l 1
 197.219726562 542.001953125 l 1
 194.66015625 537.76953125 l 1
 194.16796875 533.044921875 l 1
 190.131835938 535.702148438 l 1
 190.624023438 527.827148438 l 1
 197.711914062 527.827148438 l 1
 202.732421875 524.579101562 l 1
 205.193359375 526.350585938 l 1
 209.524414062 531.469726562 l 1
 217.202148438 535.111328125 l 1
 217.30078125 427.858398438 l 1
 273.700195312 427.858398438 286.009765625 449.897460938 286.009765625 449.897460938 c 1
 443.099609375 441 460.748046875 456.88671875 460.748046875 456.88671875 c 1
 450.099609375 422.799804688 l 1
 438.205078125 380.673828125 l 2
 421.56640625 345.249023438 317.641601562 344.634765625 317.641601562 344.634765625 c 1
 217.399414062 344.798828125 l 1
 217.694335938 227.352539062 l 2
 220.155273438 199.297851562 234.870117188 120.744140625 323.12109375 120.744140625 c 0
 465.5 120.744140625 479.822265625 165.041015625 479.822265625 165.041015625 c 1
 523.080078125 165.041015625 l 1
 523.080078125 0.51953125 l 1
 479.374023438 0.6181640625 394.422851562 0.4208984375 394.422851562 0.4208984375 c 1
 210.541015625 0.716796875 l 1
 210.344726562 0.51953125 l 1
 35.51953125 0.51953125 l 1
 35.51953125 83.75390625 l 1
 35.51953125 83.75390625 68.5947265625 83.064453125 71.5478515625 177.26953125 c 2
 71.744140625 582.646484375 l 1
 71.744140625 618.37890625 l 2
 70.46484375 635.408203125 67.216796875 655.587890625 59.341796875 671.633789062 c 0
 54.025390625 681.083984375 46.4462890625 689.943359375 35.51953125 696.045898438 c 1
 35.51953125 696.63671875 l 1
 35.51953125 772.663085938 l 1
 35.51953125 773.25390625 l 1
 88.873046875 773.25390625 l 1
 253.952148438 773.25390625 l 1
 523.080078125 773.25390625 l 1
 523.080078125 590.422851562 l 1
EndSplineSet
Validated: 33
EndChar

StartChar: Egrave
Encoding: 200 200 102
Width: 558
VWidth: 0
Flags: W
HStem: 0.420898 120.323<257.836 394.423 394.485 452.807> 344.799 83.0596<217.399 285.973> 660.313 112.94<302.744 355.868>
VStem: 71.5479 146.146<164.638 344.799 427.858 524.579 554.11 647.095> 487.993 35.0869<590.423 620.286>
LayerCount: 2
Fore
SplineSet
211.115234375 1021.6796875 m 5
 211.115234375 1021.6796875 188.421875 968.7265625 214.682617188 926.170898438 c 4
 231.766601562 898.48828125 302.237304688 869.8515625 302.237304688 869.8515625 c 6
 326.346679688 854.341796875 375.697265625 848.224609375 375.697265625 848.224609375 c 5
 261.077148438 914.528320312 307.131835938 966.9921875 307.131835938 966.9921875 c 5
 276.671875 1027.77539062 l 5
 211.115234375 1021.6796875 l 5
523.080078125 590.422851562 m 1
 487.993164062 589.83203125 l 1
 467.71484375 660.313476562 355.868164062 660.313476562 355.868164062 660.313476562 c 1
 302.744140625 660.313476562 l 1
 302.744140625 660.313476562 228.030273438 665.333984375 218.580078125 619.658203125 c 1
 218.580078125 554.110351562 l 1
 208.93359375 547.810546875 l 1
 207.94921875 542.001953125 l 1
 197.219726562 542.001953125 l 1
 194.66015625 537.76953125 l 1
 194.16796875 533.044921875 l 1
 190.131835938 535.702148438 l 1
 190.624023438 527.827148438 l 1
 197.711914062 527.827148438 l 1
 202.732421875 524.579101562 l 1
 205.193359375 526.350585938 l 1
 209.524414062 531.469726562 l 1
 217.202148438 535.111328125 l 1
 217.30078125 427.858398438 l 1
 273.700195312 427.858398438 286.009765625 449.897460938 286.009765625 449.897460938 c 1
 443.099609375 441 460.748046875 456.88671875 460.748046875 456.88671875 c 1
 450.099609375 422.799804688 l 1
 438.205078125 380.673828125 l 2
 421.56640625 345.249023438 317.641601562 344.634765625 317.641601562 344.634765625 c 1
 217.399414062 344.798828125 l 1
 217.694335938 227.352539062 l 2
 220.155273438 199.297851562 234.870117188 120.744140625 323.12109375 120.744140625 c 0
 465.5 120.744140625 479.822265625 165.041015625 479.822265625 165.041015625 c 1
 523.080078125 165.041015625 l 1
 523.080078125 0.51953125 l 1
 479.374023438 0.6181640625 394.422851562 0.4208984375 394.422851562 0.4208984375 c 1
 210.541015625 0.716796875 l 1
 210.344726562 0.51953125 l 1
 35.51953125 0.51953125 l 1
 35.51953125 83.75390625 l 1
 35.51953125 83.75390625 68.5947265625 83.064453125 71.5478515625 177.26953125 c 2
 71.744140625 582.646484375 l 1
 71.744140625 618.37890625 l 2
 70.46484375 635.408203125 67.216796875 655.587890625 59.341796875 671.633789062 c 0
 54.025390625 681.083984375 46.4462890625 689.943359375 35.51953125 696.045898438 c 1
 35.51953125 696.63671875 l 1
 35.51953125 772.663085938 l 1
 35.51953125 773.25390625 l 1
 88.873046875 773.25390625 l 1
 253.952148438 773.25390625 l 1
 523.080078125 773.25390625 l 1
 523.080078125 590.422851562 l 1
EndSplineSet
Validated: 41
EndChar

StartChar: Adieresis
Encoding: 196 196 103
Width: 807
VWidth: 0
Flags: W
HStem: 0.901367 21G<44.0537 233.508 575.694 763.746> 755.673 20G<387.729 407.048>
VStem: 263.518 115.215<861.637 921.962> 425.917 115.216<861.637 921.962>
LayerCount: 2
Fore
SplineSet
726.096679688 111.603515625 m 2
 738.247070312 86.8583984375 754.4609375 54.90625 763.74609375 47.0478515625 c 1
 763.74609375 0.9013671875 l 1
 607.103515625 0.9013671875 l 1
 575.694335938 0.9013671875 l 1
 575.694335938 45.9794921875 l 1
 575.694335938 45.9794921875 594.634765625 70.6220703125 551.76953125 122.250976562 c 2
 509.319335938 173.379882812 l 1
 467.540039062 161.638671875 422.870117188 163.966796875 422.870117188 163.966796875 c 1
 277.78125 158.727539062 l 1
 230.247070312 78.6806640625 l 1
 222.24609375 48.6962890625 233.5078125 45.9794921875 233.5078125 45.9794921875 c 1
 233.5078125 0.9013671875 l 1
 207.826171875 0.9013671875 l 1
 44.0537109375 0.9013671875 l 1
 44.0537109375 47.0478515625 l 1
 50.5732421875 52.578125 59.95703125 68.0078125 69.142578125 85.2783203125 c 2
 397.233398438 775.672851562 l 1
 703.346679688 151.887695312 l 1
 726.096679688 111.603515625 l 2
525.303710938 295.974609375 m 1
 533.995117188 301.6015625 l 1
 520.760742188 307.618164062 530.513671875 312.857421875 530.513671875 312.857421875 c 1
 508.116210938 277.87109375 l 1
 487.276367188 309.364257812 l 1
 487.276367188 317.126953125 l 1
 471.276367188 318.875 l 1
 400.921875 496.096679688 l 1
 378.896484375 447.381835938 l 2
 377.514648438 449.130859375 375.2421875 451.84765625 372.673828125 453.787109375 c 0
 368.625 456.892578125 364.08203125 474.940429688 359.043945312 455.245117188 c 1
 362.5 451.458984375 l 1
 361.413085938 447.381835938 l 1
 367.04296875 443.403320312 l 1
 370.994140625 430.111328125 l 1
 306.315429688 257.643554688 l 1
 376.1484375 267.250976562 390.693359375 304.998046875 390.693359375 304.998046875 c 1
 450.943359375 301.892578125 424.090820312 300.825195312 457.176757812 301.01953125 c 1
 480.067382812 282.583007812 l 1
 480.067382812 295.974609375 l 1
 525.303710938 295.974609375 l 1
541.1328125 921.961914062 m 5
 541.1328125 861.63671875 l 5
 483.5234375 828.119140625 l 5
 425.916992188 861.63671875 l 5
 425.916992188 921.961914062 l 5
 484.643554688 956.6015625 l 5
 541.1328125 921.961914062 l 5
378.732421875 921.961914062 m 5
 378.732421875 861.63671875 l 5
 321.124023438 828.119140625 l 5
 263.517578125 861.63671875 l 5
 263.517578125 921.961914062 l 5
 322.243164062 956.6015625 l 5
 378.732421875 921.961914062 l 5
EndSplineSet
Validated: 37
EndChar

StartChar: Acircumflex
Encoding: 194 194 104
Width: 807
VWidth: 0
Flags: W
HStem: 0.901367 21G<44.0537 233.508 575.694 763.746> 755.673 20G<387.729 407.048>
LayerCount: 2
Fore
SplineSet
726.096679688 111.603515625 m 6
 738.247070312 86.8583984375 754.4609375 54.90625 763.74609375 47.0478515625 c 5
 763.74609375 0.9013671875 l 5
 607.103515625 0.9013671875 l 5
 575.694335938 0.9013671875 l 5
 575.694335938 45.9794921875 l 5
 575.694335938 45.9794921875 594.634765625 70.6220703125 551.76953125 122.250976562 c 6
 509.319335938 173.379882812 l 5
 467.540039062 161.638671875 422.870117188 163.966796875 422.870117188 163.966796875 c 5
 277.78125 158.727539062 l 5
 230.247070312 78.6806640625 l 5
 222.24609375 48.6962890625 233.5078125 45.9794921875 233.5078125 45.9794921875 c 5
 233.5078125 0.9013671875 l 5
 207.826171875 0.9013671875 l 5
 44.0537109375 0.9013671875 l 5
 44.0537109375 47.0478515625 l 5
 50.5732421875 52.578125 59.95703125 68.0078125 69.142578125 85.2783203125 c 6
 397.233398438 775.672851562 l 5
 703.346679688 151.887695312 l 5
 726.096679688 111.603515625 l 6
525.303710938 295.974609375 m 5
 533.995117188 301.6015625 l 5
 520.760742188 307.618164062 530.513671875 312.857421875 530.513671875 312.857421875 c 5
 508.116210938 277.87109375 l 5
 487.276367188 309.364257812 l 5
 487.276367188 317.126953125 l 5
 471.276367188 318.875 l 5
 400.921875 496.096679688 l 5
 378.896484375 447.381835938 l 6
 377.514648438 449.130859375 375.2421875 451.84765625 372.673828125 453.787109375 c 4
 368.625 456.892578125 364.08203125 474.940429688 359.043945312 455.245117188 c 5
 362.5 451.458984375 l 5
 361.413085938 447.381835938 l 5
 367.04296875 443.403320312 l 5
 370.994140625 430.111328125 l 5
 306.315429688 257.643554688 l 5
 376.1484375 267.250976562 390.693359375 304.998046875 390.693359375 304.998046875 c 5
 450.943359375 301.892578125 424.090820312 300.825195312 457.176757812 301.01953125 c 5
 480.067382812 282.583007812 l 5
 480.067382812 295.974609375 l 5
 525.303710938 295.974609375 l 5
443.26171875 862.51171875 m 1
 443.26171875 862.51171875 436.08203125 876.120117188 406.08203125 913.233398438 c 1
 373.849609375 883.739257812 365.920898438 867.200195312 365.920898438 867.200195312 c 1
 365.920898438 867.200195312 277.888671875 850.633789062 276.90625 851.169921875 c 0
 270.610351562 854.608398438 388.266601562 1012.71777344 404.96484375 1035.08789062 c 0
 405.545898438 1036.25 406.126953125 1037.45507812 406.751953125 1038.75097656 c 2
 406.751953125 1038.75097656 532.266601562 848.267578125 525.255859375 844.962890625 c 0
 524.228515625 844.471679688 443.26171875 862.51171875 443.26171875 862.51171875 c 1
EndSplineSet
Validated: 37
EndChar

StartChar: Agrave
Encoding: 192 192 105
Width: 807
VWidth: 0
Flags: W
HStem: 0.901367 21G<44.0537 233.508 575.694 763.746> 755.673 20G<387.729 407.048>
LayerCount: 2
Fore
SplineSet
726.096679688 111.603515625 m 6
 738.247070312 86.8583984375 754.4609375 54.90625 763.74609375 47.0478515625 c 5
 763.74609375 0.9013671875 l 5
 607.103515625 0.9013671875 l 5
 575.694335938 0.9013671875 l 5
 575.694335938 45.9794921875 l 5
 575.694335938 45.9794921875 594.634765625 70.6220703125 551.76953125 122.250976562 c 6
 509.319335938 173.379882812 l 5
 467.540039062 161.638671875 422.870117188 163.966796875 422.870117188 163.966796875 c 5
 277.78125 158.727539062 l 5
 230.247070312 78.6806640625 l 5
 222.24609375 48.6962890625 233.5078125 45.9794921875 233.5078125 45.9794921875 c 5
 233.5078125 0.9013671875 l 5
 207.826171875 0.9013671875 l 5
 44.0537109375 0.9013671875 l 5
 44.0537109375 47.0478515625 l 5
 50.5732421875 52.578125 59.95703125 68.0078125 69.142578125 85.2783203125 c 6
 397.233398438 775.672851562 l 5
 703.346679688 151.887695312 l 5
 726.096679688 111.603515625 l 6
525.303710938 295.974609375 m 5
 533.995117188 301.6015625 l 5
 520.760742188 307.618164062 530.513671875 312.857421875 530.513671875 312.857421875 c 5
 508.116210938 277.87109375 l 5
 487.276367188 309.364257812 l 5
 487.276367188 317.126953125 l 5
 471.276367188 318.875 l 5
 400.921875 496.096679688 l 5
 378.896484375 447.381835938 l 6
 377.514648438 449.130859375 375.2421875 451.84765625 372.673828125 453.787109375 c 4
 368.625 456.892578125 364.08203125 474.940429688 359.043945312 455.245117188 c 5
 362.5 451.458984375 l 5
 361.413085938 447.381835938 l 5
 367.04296875 443.403320312 l 5
 370.994140625 430.111328125 l 5
 306.315429688 257.643554688 l 5
 376.1484375 267.250976562 390.693359375 304.998046875 390.693359375 304.998046875 c 5
 450.943359375 301.892578125 424.090820312 300.825195312 457.176757812 301.01953125 c 5
 480.067382812 282.583007812 l 5
 480.067382812 295.974609375 l 5
 525.303710938 295.974609375 l 5
344.115234375 1021.6796875 m 1
 344.115234375 1021.6796875 321.421875 968.7265625 347.682617188 926.170898438 c 0
 364.766601562 898.48828125 435.237304688 869.8515625 435.237304688 869.8515625 c 2
 459.346679688 854.341796875 508.697265625 848.224609375 508.697265625 848.224609375 c 1
 394.077148438 914.528320312 440.131835938 966.9921875 440.131835938 966.9921875 c 1
 409.671875 1027.77539062 l 1
 344.115234375 1021.6796875 l 1
EndSplineSet
Validated: 37
EndChar

StartChar: Aacute
Encoding: 193 193 106
Width: 807
VWidth: 0
Flags: W
HStem: 0.901367 21G<44.0537 233.508 575.694 763.746> 755.673 20G<387.729 407.048>
LayerCount: 2
Fore
SplineSet
726.096679688 111.603515625 m 6
 738.247070312 86.8583984375 754.4609375 54.90625 763.74609375 47.0478515625 c 5
 763.74609375 0.9013671875 l 5
 607.103515625 0.9013671875 l 5
 575.694335938 0.9013671875 l 5
 575.694335938 45.9794921875 l 5
 575.694335938 45.9794921875 594.634765625 70.6220703125 551.76953125 122.250976562 c 6
 509.319335938 173.379882812 l 5
 467.540039062 161.638671875 422.870117188 163.966796875 422.870117188 163.966796875 c 5
 277.78125 158.727539062 l 5
 230.247070312 78.6806640625 l 5
 222.24609375 48.6962890625 233.5078125 45.9794921875 233.5078125 45.9794921875 c 5
 233.5078125 0.9013671875 l 5
 207.826171875 0.9013671875 l 5
 44.0537109375 0.9013671875 l 5
 44.0537109375 47.0478515625 l 5
 50.5732421875 52.578125 59.95703125 68.0078125 69.142578125 85.2783203125 c 6
 397.233398438 775.672851562 l 5
 703.346679688 151.887695312 l 5
 726.096679688 111.603515625 l 6
525.303710938 295.974609375 m 5
 533.995117188 301.6015625 l 5
 520.760742188 307.618164062 530.513671875 312.857421875 530.513671875 312.857421875 c 5
 508.116210938 277.87109375 l 5
 487.276367188 309.364257812 l 5
 487.276367188 317.126953125 l 5
 471.276367188 318.875 l 5
 400.921875 496.096679688 l 5
 378.896484375 447.381835938 l 6
 377.514648438 449.130859375 375.2421875 451.84765625 372.673828125 453.787109375 c 4
 368.625 456.892578125 364.08203125 474.940429688 359.043945312 455.245117188 c 5
 362.5 451.458984375 l 5
 361.413085938 447.381835938 l 5
 367.04296875 443.403320312 l 5
 370.994140625 430.111328125 l 5
 306.315429688 257.643554688 l 5
 376.1484375 267.250976562 390.693359375 304.998046875 390.693359375 304.998046875 c 5
 450.943359375 301.892578125 424.090820312 300.825195312 457.176757812 301.01953125 c 5
 480.067382812 282.583007812 l 5
 480.067382812 295.974609375 l 5
 525.303710938 295.974609375 l 5
477.684570312 1021.6796875 m 1
 477.684570312 1021.6796875 500.377929688 968.7265625 474.1171875 926.170898438 c 0
 457.033203125 898.48828125 386.5625 869.8515625 386.5625 869.8515625 c 2
 362.454101562 854.341796875 313.102539062 848.224609375 313.102539062 848.224609375 c 1
 427.723632812 914.528320312 381.66796875 966.9921875 381.66796875 966.9921875 c 1
 412.127929688 1027.77539062 l 1
 477.684570312 1021.6796875 l 1
EndSplineSet
Validated: 37
EndChar

StartChar: Atilde
Encoding: 195 195 107
Width: 807
VWidth: 0
Flags: W
HStem: 0.901367 21G<44.0537 233.508 575.694 763.746> 755.673 20G<387.729 407.048>
LayerCount: 2
Fore
SplineSet
726.096679688 111.603515625 m 6
 738.247070312 86.8583984375 754.4609375 54.90625 763.74609375 47.0478515625 c 5
 763.74609375 0.9013671875 l 5
 607.103515625 0.9013671875 l 5
 575.694335938 0.9013671875 l 5
 575.694335938 45.9794921875 l 5
 575.694335938 45.9794921875 594.634765625 70.6220703125 551.76953125 122.250976562 c 6
 509.319335938 173.379882812 l 5
 467.540039062 161.638671875 422.870117188 163.966796875 422.870117188 163.966796875 c 5
 277.78125 158.727539062 l 5
 230.247070312 78.6806640625 l 5
 222.24609375 48.6962890625 233.5078125 45.9794921875 233.5078125 45.9794921875 c 5
 233.5078125 0.9013671875 l 5
 207.826171875 0.9013671875 l 5
 44.0537109375 0.9013671875 l 5
 44.0537109375 47.0478515625 l 5
 50.5732421875 52.578125 59.95703125 68.0078125 69.142578125 85.2783203125 c 6
 397.233398438 775.672851562 l 5
 703.346679688 151.887695312 l 5
 726.096679688 111.603515625 l 6
525.303710938 295.974609375 m 5
 533.995117188 301.6015625 l 5
 520.760742188 307.618164062 530.513671875 312.857421875 530.513671875 312.857421875 c 5
 508.116210938 277.87109375 l 5
 487.276367188 309.364257812 l 5
 487.276367188 317.126953125 l 5
 471.276367188 318.875 l 5
 400.921875 496.096679688 l 5
 378.896484375 447.381835938 l 6
 377.514648438 449.130859375 375.2421875 451.84765625 372.673828125 453.787109375 c 4
 368.625 456.892578125 364.08203125 474.940429688 359.043945312 455.245117188 c 5
 362.5 451.458984375 l 5
 361.413085938 447.381835938 l 5
 367.04296875 443.403320312 l 5
 370.994140625 430.111328125 l 5
 306.315429688 257.643554688 l 5
 376.1484375 267.250976562 390.693359375 304.998046875 390.693359375 304.998046875 c 5
 450.943359375 301.892578125 424.090820312 300.825195312 457.176757812 301.01953125 c 5
 480.067382812 282.583007812 l 5
 480.067382812 295.974609375 l 5
 525.303710938 295.974609375 l 5
622.951171875 937.52734375 m 0
 496.014648438 864.543945312 495.375976562 816.620117188 404.124023438 863.1796875 c 0
 318.330078125 906.952148438 258.3515625 860.107421875 258.9375 860.107421875 c 0
 259.522460938 860.107421875 258.9375 920.09765625 258.9375 920.09765625 c 1
 258.9375 920.09765625 309.463867188 968.500976562 381.444335938 939.434570312 c 0
 455.307617188 909.607421875 481.927734375 884.530273438 622.951171875 937.52734375 c 0
EndSplineSet
Validated: 37
EndChar

